<?xml version="1.0" encoding="utf-8"?>
<!-- Generator: Adobe Illustrator 18.0.0, SVG Export Plug-In . SVG Version: 6.00 Build 0)  -->
<!DOCTYPE svg PUBLIC "-//W3C//DTD SVG 1.1//EN" "http://www.w3.org/Graphics/SVG/1.1/DTD/svg11.dtd">
<svg version="1.1" id="Layer_1" xmlns="http://www.w3.org/2000/svg" xmlns:xlink="http://www.w3.org/1999/xlink" x="0px" y="0px"
	 viewBox="187.4 187.4 425.2 425.2" enable-background="new 187.4 187.4 425.2 425.2" xml:space="preserve">
<path fill="#444444" d="M491.8,262.5c0,8.2,6.3,14.9,14,14.9c7.7,0,14-6.7,14-14.9c0-8.2-6.3-14.9-14-14.9
	C498.1,247.6,491.8,254.3,491.8,262.5z"/>
<path fill="#444444" d="M491.8,379.6c0,8.2,6.3,14.9,14,14.9c7.7,0,14-6.7,14-14.9s-6.3-14.9-14-14.9
	C498.1,364.7,491.8,371.4,491.8,379.6z"/>
<path fill="#FFFFFF" d="M537.3,233.6H228.5c-8.6,0-15.6,7-15.6,15.6v26.7c0,8.6,7,15.6,15.6,15.6h308.7c8.6,0,15.6-7,15.6-15.6
	v-26.7C552.9,240.6,545.9,233.6,537.3,233.6z M366.9,267.7H242.5c-2.9,0-5.2-2.3-5.2-5.2c0-2.9,2.3-5.2,5.2-5.2h124.4
	c2.9,0,5.2,2.3,5.2,5.2C372.1,265.4,369.8,267.7,366.9,267.7z M505.8,277.5c-7.7,0-14-6.7-14-14.9s6.3-14.9,14-14.9s14,6.7,14,14.9
	S513.6,277.5,505.8,277.5z M552.9,366.3c0-8.6-7-15.6-15.6-15.6H228.5c-8.6,0-15.6,7-15.6,15.6V393c0,8.6,7,15.6,15.6,15.6h205.1
	l17-10.4c3.1-1.9,6.6-2.9,10.2-3h0.4c3.3,0,6.7,0.8,9.7,2.3c3.2,1.6,5.9,4,7.8,6.9l2.8,4.1h25.4l2.2-4.4c1.2-2.4,3-4.6,5.1-6.3
	c2-1.7,4.4-2.9,6.9-3.6c1.9-0.6,3.8-0.8,5.8-0.8c3.3,0,6.7,0.8,9.6,2.3l13,6.7c2-2.7,3.2-5.9,3.2-9.5L552.9,366.3L552.9,366.3z
	 M505.8,394.5c-7.7,0-14-6.7-14-14.9s6.3-14.9,14-14.9s14,6.7,14,14.9S513.6,394.5,505.8,394.5z"/>
<path fill="#31D292" d="M537.3,212.8H228.5c-20.1,0-36.4,16.3-36.4,36.4v26.7c0,20.1,16.3,36.4,36.4,36.4h308.7
	c20.1,0,36.4-16.3,36.4-36.4v-26.7C573.7,229.1,557.3,212.8,537.3,212.8z M552.9,275.9c0,8.6-7,15.6-15.6,15.6H228.5
	c-8.6,0-15.6-7-15.6-15.6v-26.7c0-8.6,7-15.6,15.6-15.6h308.7c8.6,0,15.6,7,15.6,15.6V275.9z"/>
<path fill="#444444" d="M366.9,257.3H242.5c-2.9,0-5.2,2.3-5.2,5.2c0,2.9,2.3,5.2,5.2,5.2h124.4c2.9,0,5.2-2.3,5.2-5.2
	C372.1,259.6,369.8,257.3,366.9,257.3z"/>
<path fill="#E6E6E6" d="M397.1,519.8c-2.1-3-3.3-6.4-3.6-10.1l-1.8-24.6c-0.4-5.4,1.4-10.5,4.9-14.5c1-1.1,2-2,3.2-2.9H228.5
	c-8.6,0-15.6,7-15.6,15.6v26.7c0,8.6,7,15.6,15.6,15.6h174.7C400.8,524.2,398.7,522.2,397.1,519.8L397.1,519.8z"/>
<path fill="#31D292" d="M431,536.1c-1.6-2.4-3.1-4.9-4.4-7.4l-11.6,0.3h-0.5c-3.3,0-6.7-0.8-9.6-2.3c-0.6-0.3-1.1-0.6-1.6-0.9H228.5
	c-8.6,0-15.6-7-15.6-15.6v-26.7c0-8.6,7-15.6,15.6-15.6h171.2c1-0.7,2.1-1.4,3.2-1.9c2.5-1.1,5.2-1.8,8-1.8l11.1-0.3
	c0.2-0.6,0.4-1.1,0.6-1.7c0.9-2.2,1.8-4.4,2.9-6.4c1.3-2.5,2.8-5.1,4.5-7.6l-0.8-1.2H228.5c-20.1,0-36.4,16.3-36.4,36.4V510
	c0,20.1,16.3,36.4,36.4,36.4h207.7l1-2C435,541.8,432.9,539,431,536.1L431,536.1z"/>
<path fill="#FFFFFF" d="M535,483.7c-1.7-4.7-4.2-8.9-7.5-12.7c-1-1.1-2.1-2.2-3.2-3.2c-2.5-2.2-5.2-4.1-8.3-5.7
	c-4.4-2.2-9-3.6-13.9-4.2c-5-0.5-9.9-0.1-14.7,1.3c-2.4,0.7-4.7,1.7-6.9,2.9c-2,1.1-4,2.4-5.8,3.9c-0.7,0.6-1.3,1.1-1.9,1.8
	c-2.7,2.6-4.8,5.6-6.5,8.8c-2.1,4.1-3.3,8.5-3.6,13.1c-0.4,4.8,0.3,9.6,1.9,14.2c1.7,4.7,4.2,8.9,7.5,12.7c3.2,3.6,7.1,6.6,11.5,8.8
	c0.1,0.1,0.2,0.1,0.4,0.2c4.3,2.1,8.8,3.5,13.6,4c5,0.5,9.9,0.1,14.7-1.3c2.3-0.7,4.5-1.6,6.6-2.7c2.2-1.1,4.2-2.5,6.1-4.1
	c3.5-3,6.4-6.5,8.5-10.6c2.1-4.1,3.3-8.5,3.6-13.1C537.3,493.2,536.7,488.4,535,483.7z"/>
<path fill="#FFFFFF" d="M590.4,480c-0.1-1-0.8-2-1.9-2.6c-0.5-0.3-1.1-0.4-1.7-0.4l-13.7,0.4l-9.6,0.3l-0.4-0.9l-2-4.5
	c-0.8-2-1.8-3.8-2.8-5.7c-3-5.4-6.8-10.4-11.2-14.9l-4.1-4.1l-0.4-0.4l10.4-20.3c0.2-0.4,0.3-0.8,0.2-1.2c-0.1-0.9-0.8-1.9-1.9-2.5
	l-22.9-11.7c-0.5-0.3-1.1-0.4-1.7-0.4c-1,0-1.9,0.5-2.3,1.2l-8.8,17.2l-1.7,3.2l-6.2-1c-3.6-0.6-7.2-0.8-10.8-0.8
	c-4.7,0-9.5,0.5-14.1,1.5l-5.8,1.2l-2.8-4.1l-10.3-15.1c-0.4-0.5-0.8-0.9-1.4-1.2c-0.5-0.3-1.1-0.4-1.7-0.4s-1.1,0.2-1.5,0.4
	l-21,12.9c-0.5,0.3-0.8,0.7-0.9,1.3c-0.2,0.7,0,1.4,0.5,2l0.1,0.1l12.1,17.7l1.2,1.8l-4,5c-2.1,2.7-4,5.5-5.6,8.4
	c-0.3,0.5-0.6,1-0.8,1.6c-0.7,1.3-1.3,2.7-1.9,4.1c-0.9,2.2-1.7,4.5-2.4,6.9l-1.7,6.2l-23.6,0.6c-0.8,0-1.5,0.3-1.9,0.8
	c-0.4,0.4-0.5,0.9-0.5,1.5l1.8,24.6c0.1,1,0.8,2,1.9,2.6c0.5,0.3,1.1,0.4,1.7,0.4l23.2-0.6l2.3,5.4c1.4,3.3,3.1,6.4,5,9.4
	c2.4,3.7,5.1,7.2,8.2,10.4c0.3,0.3,0.5,0.5,0.7,0.8l4.5,4.5l-2.7,5.1l-7.8,15.2c-0.4,0.7-0.2,1.5-0.1,1.9c0.3,0.8,0.9,1.4,1.7,1.8
	l22.9,11.7c0.5,0.3,1.1,0.4,1.7,0.4c1,0,1.9-0.5,2.3-1.2l10.4-20.4l6.2,1c3.6,0.6,7.2,0.8,10.8,0.8c4.7,0,9.5-0.5,14.1-1.5l5.8-1.2
	l13,19.1c0.4,0.5,0.8,0.9,1.4,1.2c0.5,0.3,1.1,0.4,1.7,0.4c0.6,0,1.1-0.2,1.5-0.4l21-12.9c0.5-0.3,0.8-0.7,0.9-1.3
	c0.2-0.8-0.2-1.6-0.5-2l-10.9-16l-2.4-3.6l3.7-4.7l0.3-0.3c2.5-3.2,4.7-6.5,6.4-9.9c1.2-2.3,2.2-4.8,3.1-7.3
	c0.4-1.2,0.8-2.4,1.1-3.7l1.8-6.2l7.5-0.2l16.2-0.4c0.8,0,1.5-0.3,1.9-0.8c0.4-0.4,0.5-0.9,0.5-1.5L590.4,480L590.4,480z
	 M478.6,535.2c-4.9-2.5-9.3-5.7-13-9.6c-0.6-0.6-1.1-1.1-1.7-1.8c-4.3-4.8-7.5-10.3-9.7-16.4c-2.1-6.1-3-12.3-2.5-18.6
	c0.4-6.1,2-11.9,4.8-17.3c0.7-1.4,1.4-2.6,2.2-3.8c1.3-2,2.8-3.9,4.3-5.7c1.5-1.6,3-3.1,4.7-4.5c4.8-4,10.4-7,16.6-8.8
	c3.4-1,6.8-1.6,10.3-1.9c2.3-0.2,4.6-0.2,6.9,0l1.7,0.2c6.2,0.7,12.2,2.4,17.7,5.3c4.9,2.5,9.4,5.8,13.1,9.7c0.5,0.5,1,1,1.5,1.6
	c1.2,1.4,2.3,2.7,3.3,4.2c2.7,3.7,4.8,7.8,6.3,12.2c2.1,6.1,3,12.3,2.5,18.6c-0.4,6.1-2,11.9-4.8,17.3c-1.8,3.5-4.1,6.8-6.7,9.7
	c-1.4,1.6-2.9,3-4.5,4.3c-2.9,2.4-6.1,4.4-9.5,6.1c-2.3,1.1-4.6,2-7.1,2.8c-6.1,1.8-12.5,2.4-18.9,1.7c-5.6-0.6-10.9-2.1-16-4.5
	C479.8,535.8,479.2,535.5,478.6,535.2L478.6,535.2z"/>
<path fill="#31D292" d="M609.6,503.3l-1.8-24.6c-0.3-3.6-1.5-7.1-3.6-10.1c-2-2.9-4.7-5.2-7.7-6.8c-3-1.5-6.3-2.3-9.6-2.3h-0.5
	l-11.6,0.3c-3-5.6-6.5-10.9-10.7-15.8l4.8-9.3c1.2-2.4,2-5.1,2.1-7.8c0.2-2.6-0.3-5.2-1.1-7.7c-0.7-1.9-1.6-3.6-2.8-5.2
	c4.2-5.9,6.7-13.1,6.7-20.9v-26.7c0-20.1-16.3-36.4-36.4-36.4H228.5c-20.1,0-36.4,16.3-36.4,36.4V393c0,20.1,16.3,36.4,36.4,36.4
	h191.8c0.1,0.7,0.2,1.4,0.3,2.1c0.5,2.7,1.6,5.2,3.2,7.5l5.5,8l0.8,1.2c-1.7,2.5-3.2,5-4.5,7.6c-1,2-2,4.2-2.9,6.4
	c-0.2,0.6-0.4,1.1-0.6,1.7l-11.1,0.3c-2.8,0.1-5.5,0.7-8,1.8c-1.1,0.5-2.2,1.1-3.2,1.9c-1.1,0.8-2.2,1.8-3.2,2.9
	c-3.6,4-5.4,9.1-4.9,14.5l1.8,24.6c0.3,3.6,1.5,7.1,3.6,10.1c1.6,2.3,3.7,4.3,6.1,5.9c0.5,0.3,1,0.6,1.6,0.9c3,1.5,6.3,2.3,9.6,2.3
	h0.5l11.6-0.3c1.4,2.5,2.8,5,4.4,7.4c1.9,2.9,4,5.7,6.3,8.4l-1,2l-3.7,7.3c-1.2,2.4-2,5.1-2.1,7.8c-0.2,2.6,0.3,5.2,1.1,7.7
	c1.8,5,5.4,9.1,10.2,11.6l22.9,11.7c3,1.5,6.3,2.3,9.6,2.3c2,0,3.9-0.3,5.8-0.8c2.5-0.7,4.9-2,6.9-3.6c2.1-1.7,3.9-3.8,5.1-6.3
	l4.8-9.3c2.4,0.2,4.8,0.3,7.2,0.3c4,0,8-0.3,11.9-0.8l6.5,9.6c2,2.9,4.7,5.3,7.8,6.9c3,1.5,6.3,2.3,9.7,2.3h0.4
	c3.6-0.1,7.2-1.1,10.2-3l21-12.9c4.6-2.8,7.7-7.3,8.9-12.5c0.6-2.6,0.6-5.3,0.1-8c-0.5-2.7-1.6-5.2-3.2-7.5l-6.2-9.1
	c1.7-2.5,3.2-5,4.5-7.6c1.3-2.5,2.5-5.2,3.5-8.1l11.1-0.3c2.8-0.1,5.5-0.7,8-1.8c2.4-1.1,4.6-2.7,6.4-4.7
	C608.3,513.8,610,508.7,609.6,503.3L609.6,503.3z M213,393v-26.7c0-8.6,7-15.6,15.6-15.6h308.7c8.6,0,15.6,7,15.6,15.6V393
	c0,3.6-1.2,6.9-3.2,9.5l-13-6.7c-3-1.5-6.3-2.3-9.6-2.3c-2,0-3.9,0.3-5.8,0.8c-2.5,0.7-4.9,2-6.9,3.6c-2.1,1.7-3.9,3.8-5.1,6.3
	l-2.2,4.4h-25.4l-2.8-4.1c-2-2.9-4.7-5.3-7.8-6.9c-3-1.5-6.3-2.3-9.7-2.3h-0.4c-3.6,0.1-7.2,1.1-10.2,3l-17,10.4H228.5
	C220,408.6,213,401.6,213,393z M591.7,506.1c-0.5,0.5-1.1,0.8-1.9,0.8l-16.2,0.4l-7.5,0.2l-1.8,6.2c-0.4,1.2-0.7,2.5-1.1,3.7
	c-0.9,2.5-1.9,5-3.1,7.3c-1.7,3.4-3.9,6.7-6.4,9.9l-0.3,0.3l-3.7,4.7l2.4,3.6l10.9,16c0.3,0.5,0.6,1.2,0.5,2c-0.1,0.5-0.5,1-0.9,1.3
	l-21,12.8c-0.4,0.3-0.9,0.4-1.5,0.4c-0.6,0-1.1-0.2-1.7-0.4c-0.6-0.3-1-0.7-1.4-1.2l-13-19.1l-5.8,1.2c-4.6,1-9.4,1.5-14.1,1.5
	c-3.6,0-7.2-0.3-10.8-0.8l-6.2-1l-10.4,20.4c-0.4,0.7-1.2,1.2-2.3,1.2c-0.6,0-1.1-0.2-1.7-0.4l-22.9-11.7c-0.8-0.4-1.4-1.1-1.7-1.8
	c-0.2-0.4-0.3-1.1,0.1-1.9l7.8-15.2l2.7-5.1l-4.5-4.5c-0.3-0.3-0.5-0.5-0.7-0.8c-3.1-3.2-5.9-6.7-8.2-10.4c-1.9-3-3.6-6.1-5-9.4
	l-2.3-5.4l-23.2,0.6c-0.6,0-1.1-0.2-1.7-0.4c-1.1-0.6-1.8-1.6-1.9-2.6l-1.8-24.6c-0.1-0.6,0.1-1.1,0.5-1.5c0.5-0.5,1.1-0.8,1.9-0.8
	l23.6-0.6l1.7-6.2c0.7-2.4,1.5-4.7,2.4-6.9c0.6-1.4,1.2-2.8,1.9-4.1c0.3-0.5,0.6-1,0.8-1.6c1.6-2.9,3.5-5.7,5.6-8.4l4-5l-1.2-1.8
	l-12.1-17.7l-0.1-0.1c-0.5-0.7-0.6-1.4-0.5-2c0.1-0.5,0.5-1,0.9-1.3l21-12.9c0.4-0.3,0.9-0.4,1.5-0.4c0.6,0,1.1,0.2,1.7,0.4
	s1,0.7,1.4,1.2l10.3,15.1l2.8,4.1l5.8-1.2c4.6-1,9.4-1.5,14.1-1.5c3.6,0,7.2,0.3,10.8,0.8l6.2,1l1.6-3.2l8.8-17.2
	c0.4-0.7,1.2-1.2,2.3-1.2c0.6,0,1.1,0.2,1.7,0.4l22.9,11.7c1,0.5,1.8,1.5,1.9,2.5c0.1,0.4,0,0.8-0.2,1.2l-10.4,20.4l0.4,0.4l4.1,4.1
	c4.5,4.5,8.2,9.5,11.2,14.9c1,1.9,2,3.7,2.8,5.7l2,4.5l0.4,0.9l9.6-0.3l13.7-0.4c0.6,0,1.1,0.2,1.7,0.4c1.1,0.6,1.8,1.6,1.9,2.6
	l1.8,24.6C592.3,505.2,592.1,505.7,591.7,506.1L591.7,506.1z"/>
<path fill="#06F3FF" d="M494.6,447h6.9C499.2,446.9,496.9,446.9,494.6,447z"/>
<path fill="#444444" d="M545.3,480.1c-1.5-4.4-3.7-8.5-6.3-12.2c-1-1.5-2.1-2.8-3.3-4.2c-0.5-0.5-1-1.1-1.5-1.6
	c-3.8-3.9-8.2-7.2-13.1-9.7c-5.6-2.9-11.5-4.6-17.7-5.3l-1.7-0.2h-6.9c-3.5,0.3-6.9,0.8-10.3,1.9c-6.2,1.8-11.7,4.8-16.6,8.8
	c-1.7,1.4-3.2,2.9-4.7,4.5c-1.6,1.8-3,3.6-4.3,5.7c-0.8,1.2-1.6,2.5-2.2,3.8c-2.8,5.4-4.4,11.2-4.8,17.3c-0.5,6.3,0.4,12.5,2.5,18.6
	c2.1,6,5.4,11.5,9.7,16.4c0.5,0.6,1.1,1.2,1.7,1.8c3.8,3.8,8.2,7.1,13,9.6c0.6,0.3,1.1,0.6,1.8,0.8c5.1,2.3,10.4,3.8,16,4.5
	c6.4,0.7,12.8,0.1,18.9-1.7c2.5-0.7,4.8-1.7,7.1-2.8c3.4-1.6,6.5-3.6,9.5-6.1c1.6-1.4,3.1-2.8,4.5-4.3c2.7-2.9,4.9-6.1,6.7-9.7
	c2.8-5.4,4.4-11.2,4.8-17.3C548.3,492.5,547.4,486.2,545.3,480.1L545.3,480.1z M537,498c-0.3,4.6-1.6,9-3.6,13.1
	c-2.1,4.1-4.9,7.6-8.5,10.6c-1.9,1.6-3.9,2.9-6.1,4.1c-2.1,1.1-4.3,2-6.6,2.7c-4.8,1.4-9.7,1.9-14.7,1.3c-4.7-0.5-9.3-1.9-13.6-4
	c-0.1-0.1-0.2-0.1-0.4-0.2c-4.4-2.2-8.3-5.2-11.5-8.8c-3.3-3.7-5.9-8-7.5-12.7c-1.6-4.7-2.3-9.5-1.9-14.2c0.3-4.6,1.6-9,3.6-13.1
	c1.7-3.3,3.9-6.3,6.5-8.8c0.6-0.6,1.2-1.2,1.9-1.8c1.8-1.5,3.7-2.8,5.8-3.9c2.2-1.1,4.5-2.1,6.9-2.9c4.8-1.4,9.7-1.9,14.7-1.3
	c4.8,0.5,9.5,1.9,13.9,4.2c3,1.6,5.8,3.4,8.3,5.7c1.1,1,2.2,2.1,3.2,3.2c3.3,3.7,5.9,8,7.5,12.7C536.7,488.4,537.3,493.2,537,498z"
	/>
</svg>
