<?xml version="1.0" encoding="utf-8"?>
<!-- Generator: Adobe Illustrator 18.0.0, SVG Export Plug-In . SVG Version: 6.00 Build 0)  -->
<!DOCTYPE svg PUBLIC "-//W3C//DTD SVG 1.1//EN" "http://www.w3.org/Graphics/SVG/1.1/DTD/svg11.dtd">
<svg version="1.1" id="Layer_1" xmlns="http://www.w3.org/2000/svg" xmlns:xlink="http://www.w3.org/1999/xlink" x="0px" y="0px"
	 viewBox="187.4 187.4 425.2 425.2" enable-background="new 187.4 187.4 425.2 425.2" xml:space="preserve">
<path fill="#FFFFFF" d="M398.6,191.3l107.8,62l0.1,111.2l98,56.4l0.1,124.4l-107.7,62.3l-97.6-56.2l-97.1,56.2l-107.8-62l-0.1-124.5
	l96.6-55.9l-0.2-111.7L398.6,191.3z"/>
<path fill="#06F3FF" d="M404.4,410.8v-92l-5.7,3.3l-5.7-3.3v91.8l5.8,3.3L404.4,410.8z M302.2,489.7l-5.7-3.2v91.8l5.8,3.3l5.5-3.2
	v-91.9L302.2,489.7z M502.6,578.4v-91.9l-1.1,0.6c-0.9,0.5-1.9,0.7-2.8,0.7c-2,0-3.8-1-4.9-2.8c-1.4-2.4-0.8-5.4,1.2-7.2
	c-2.2,0.8-3.7,2.9-3.7,5.3v95l5.8,3.3L502.6,578.4z"/>
<path fill="#005BFF" d="M577.1,431.3l4.8,2.7C580.8,432.3,579,431.3,577.1,431.3z M582,434.3v5.4C582.9,438,582.9,436,582,434.3z
	 M481.8,468l-4.9-2.8c-2.7-1.6-6.2-0.6-7.8,2.1c-1.6,2.7-0.6,6.2,2.1,7.8l4.9,2.8c0.9,0.5,1.9,0.7,2.8,0.7c2,0,3.8-1,4.9-2.8
	C485.4,473,484.5,469.6,481.8,468z M457.2,453.9l-4.9-2.8c-2.7-1.6-6.2-0.6-7.8,2.1s-0.6,6.2,2.1,7.8l4.9,2.8
	c0.9,0.5,1.9,0.7,2.8,0.7c2,0,3.8-1,4.9-2.8C460.9,458.9,459.9,455.5,457.2,453.9z"/>
<path fill="#005BFF" d="M581.9,434.1c0-0.1-0.1-0.1-0.1-0.1l-4.8-2.7c-1,0-2,0.2-2.9,0.7l-4.9,2.8c-2.7,1.6-3.6,5-2.1,7.8
	c1.1,1.8,2.9,2.8,4.9,2.8c1,0,1.9-0.2,2.8-0.7l4.9-2.8c1-0.6,1.6-1.3,2.2-2.2v-5.4C582,434.2,581.9,434.1,581.9,434.1z M500.6,474.5
	l-4.9,2.8c-0.3,0.2-0.6,0.3-0.8,0.6c-2.1,1.8-2.7,4.8-1.2,7.2c1.1,1.8,2.9,2.8,4.9,2.8c1,0,1.9-0.2,2.8-0.7l1.1-0.6l3.8-2.2
	c2.7-1.6,3.6-5,2.1-7.8C506.8,473.9,503.4,472.9,500.6,474.5z M432.7,439.8l-4.9-2.8c-2.7-1.6-6.2-0.6-7.8,2.1s-0.6,6.2,2.1,7.8
	l4.9,2.8c0.9,0.5,1.9,0.7,2.8,0.7c2,0,3.8-1,4.9-2.8C436.3,444.8,435.4,441.3,432.7,439.8z M549.7,446.2l-4.9,2.8
	c-2.7,1.6-3.6,5-2.1,7.8c1.1,1.8,2.9,2.8,4.9,2.8c1,0,1.9-0.2,2.8-0.7l4.9-2.8c2.7-1.6,3.6-5,2.1-7.8
	C555.8,445.6,552.4,444.6,549.7,446.2z M525.1,460.4l-4.9,2.8c-2.7,1.6-3.6,5-2.1,7.8c1.1,1.8,2.9,2.8,4.9,2.8c1,0,1.9-0.2,2.8-0.7
	l4.9-2.8c2.7-1.6,3.6-5,2.1-7.8C531.3,459.7,527.9,458.8,525.1,460.4z"/>
<path fill="#31D292" d="M604.6,421l-98-56.4l-0.1-111.2l-107.8-62l-107.7,62.3l0.1,111.7l-96.6,56l0.2,124.4l107.8,62.1l97-56.2
	l97.6,56.2l107.7-62.3L604.6,421z M398.6,217.5l79.5,45.7l-79.4,45.8l-79.5-45.7L398.6,217.5z M302.1,385.1l79.5,45.7l-79.4,45.8
	L222.7,431L302.1,385.1z M307.9,578.4l-5.5,3.2l-5.8-3.3l-79.4-45.7l-0.1-91.8l79.5,45.7l5.7,3.3l5.7-3.3l79.5-45.8l0.1,91.8
	L307.9,578.4L307.9,578.4z M398.9,414l-5.8-3.3L313.7,365l-0.1-91.8l79.5,45.6l5.7,3.3l5.7-3.3l79.5-45.8l0.1,91.8l-79.6,46.1
	L398.9,414z M582.1,532.4l-79.6,46.1l-5.5,3.2l-5.8-3.3l-79.4-45.7l-0.1-98.3l85.1-49.2l80.3,46.2c1.9,0.1,3.7,1,4.8,2.7l0.1,0.1
	v0.2c1,1.8,0.9,3.8,0,5.4L582.1,532.4L582.1,532.4z"/>
</svg>
