<?xml version="1.0" encoding="utf-8"?>
<!-- Generator: Adobe Illustrator 18.0.0, SVG Export Plug-In . SVG Version: 6.00 Build 0)  -->
<!DOCTYPE svg PUBLIC "-//W3C//DTD SVG 1.1//EN" "http://www.w3.org/Graphics/SVG/1.1/DTD/svg11.dtd">
<svg version="1.1" id="OBJECTS" xmlns="http://www.w3.org/2000/svg" xmlns:xlink="http://www.w3.org/1999/xlink" x="0px" y="0px"
	 viewBox="0 0 500 500" enable-background="new 0 0 500 500" xml:space="preserve">
<g>
	<circle fill="#31D292" cx="250" cy="250" r="188.5"/>
	<path opacity="0.5" fill="#1B79A1" d="M434.3,154.2l-57.6,21.2l1.6,3.8l0,0l-6.2,2.3l-30,11l1,2.8l-7,2.6l-19.9,7.3l-63.9-6.4
		c-2.7-0.3-5.5,0.3-7.9,1.6l-31.7,17.2l-31,7.2l-16.8-7.4l-6-2.6l1.8-3.9L132,197.1l-6.2-3l0,0l1.9-3.6l-55.3-26.7L0,120v146
		l6.6,3.8l0,0c1.3,3.8,4.9,6.7,9.2,6.9c0.8,0,1.6,0,2.3-0.2l0,0L66.9,305l14.4-27.2l13,5.9l27.1,12.3l3.7-8.2l12.5,6l8.5,4.1
		c4.7,3.4,12.4,9.6,19.6,15.4c-2.5-0.2-3.5,0.8-3.5,0.8c-5.1,3.6,1.3,16,8.1,19.1c2.1,1,4.1,1.2,5.8,1c1.8-0.2,3.3-1,4.4-2
		c-0.6,1.7-1,3.4-1.4,4.8c-1.4,6.1,2.3,12.2,8.4,13.5c6.2,1.3,12.4-1.8,12.4-1.8s-1.1,4.7,4.2,9.2c0.4,0.3,0.8,0.6,1.2,1
		c6.8,4.8,14.9,2.1,15.3,1.9c0,0,0.4,3.9,4.2,6.8c0.3,0.2,0.7,0.5,1,0.7l0,0c0,0,0.1,0,0.2,0.1c0.7,0.4,1.4,0.7,2.2,1
		c0.1,0,0.2,0.1,0.3,0.1c3.1,1.2,8.2,2.4,12.6-0.2c4.1-2.4,7.5-4.4,9.5-5.7c4.6,2.2,9,3.4,14.3,3.4c4,0,6.6-1.9,8.3-4.2
		c2.4-3.2,2.8-7,2.8-7s2.6,2.1,5,2.8c2.3,0.7,10,2.3,15.6-4.3c0.6-0.7,1.1-1.4,1.5-2c3.5-5.6,1.3-10.2,1.2-10.4l0,0
		c3.3,1.1,15.5,0.4,19.4-8.6c0-0.1,0.1-0.1,0.1-0.2c3.7-8.8-1.5-16.8-1.6-17c13.3,7.4,19.8,2.5,22.9-2.1c2.3-3.4,2.5-8.8,2.4-11.3
		c0-0.1,0-0.1,0-0.2c0-0.8-0.2-1.6-0.6-2.4c0,0,0,0,0,0l-3-6.7c0,0,2.3-1.3,5.6-3.6c0.5-0.4,1.1-0.8,1.7-1.2
		c0.1-0.1,0.3-0.2,0.4-0.3c0.5-0.3,1-0.7,1.5-1.1c0.2-0.1,0.4-0.3,0.6-0.4c0.5-0.3,0.9-0.7,1.4-1.1c0.2-0.2,0.5-0.4,0.7-0.6
		c0.4-0.4,0.9-0.7,1.3-1.1c0.3-0.2,0.5-0.4,0.8-0.7c0.4-0.4,0.8-0.7,1.3-1.1c0.3-0.3,0.6-0.5,0.8-0.8c0.4-0.4,0.8-0.7,1.2-1.1
		c0.3-0.3,0.6-0.6,0.9-0.9c0.4-0.4,0.7-0.7,1.1-1.1c0.3-0.3,0.6-0.7,0.9-1c0.2-0.3,0.5-0.5,0.7-0.8c0.2-0.2,0.4-0.4,0.6-0.6l9.5-3.5
		l2.8,8.2l30.1-10.3l11.5-3.9l0,0l11.7,28.4l74-34.1V122.7L434.3,154.2z M182.1,326.7c0.2,0.1,0.3,0.3,0.5,0.4
		c-0.1,0.2-0.2,0.5-0.3,0.7C182.2,327.5,182.2,327.1,182.1,326.7z"/>
	<g>
		<path fill="#FAB29A" d="M225.9,353.3c0,0,8.5,5,15.3,1c6.8-4,11.6-7,11.6-7l-15-8.8L225.9,353.3z"/>
		<path opacity="0.5" fill="#CC8A79" d="M225.9,353.3c0,0,8.5,5,15.3,1c6.8-4,11.6-7,11.6-7l-15-8.8L225.9,353.3z"/>
		<path fill="#875C50" d="M340.2,299.2c-3.1,4.6-9.7,9.5-22.9,2.1c0,0,0,0,0,0c0.3,0.5,4.3,6.9,2.5,14.5c-0.2,0.8-0.5,1.7-0.8,2.5
			c0,0.1-0.1,0.1-0.1,0.2c-3.9,9-16.1,9.7-19.4,8.6v0c0.1,0.2,2.3,4.8-1.2,10.4c-0.4,0.7-0.9,1.3-1.5,2c-5.6,6.6-13.3,5-15.6,4.3
			c-2.3-0.7-5-2.8-5-2.8s-0.5,3.8-2.8,7c-1.6,2.2-4.2,4.1-8.3,4.2c-6.4,0-11.5-1.8-17.4-4.9c-1.3-0.7-2.7-1.5-4.1-2.3
			c-1.8-1.1-3.8-2.3-5.9-3.6c-10.9-6.7-53.5-27.7-53.5-27.7s-7.9-6.5-16.8-13.8c-7.7-6.3-16.3-13.1-21.4-16.8l-8.5-4.1l-24.7-11.8
			l-11.6-5.6L68,245.6l45.8-65.5l22.6,9.9l28.3,12.4l16.8,7.4l38.4-8.9l9.2-2.2l30.8,19.5l76.2,48.3l3,12.2l3,6.7c0,0,0,0,0,0
			c0.3,0.7,0.5,1.6,0.6,2.4c0,0,0,0.1,0,0.2C342.7,290.4,342.5,295.8,340.2,299.2z"/>
		<path opacity="0.5" fill="#875C50" d="M243.6,344.8c-1.8-1.1-3.8-2.3-5.9-3.6c-10.9-6.7-53.5-27.7-53.5-27.7s-7.9-6.5-16.8-13.8
			c-7.7-6.3-16.3-13.1-21.4-16.8l-8.5-4.1l-24.7-11.8l5.2-9.1l37.4,17.6c0,0,46.4,39.1,59.8,47.5c13.4,8.4,27.8,19.4,27.8,19.4
			L243.6,344.8z"/>
		<polygon opacity="0.5" fill="#875C50" points="164.7,202.3 137.6,278.9 101.3,261.5 136.4,190 		"/>
		<path opacity="0.5" fill="#875C50" d="M342.1,285.4C342.1,285.4,342.1,285.4,342.1,285.4l-3-6.7l-3-12.2l-76.1-48.3l0,0
			l-30.8-19.5l-9.2,2.2l-5.8,8.3l-25.8,35.4c0,0,4.4,11.1,18.6,9.9c14.2-1.2,26.1-20.8,31.1-23.2c2-0.9,13.1,3,26.8,8.8
			c20.3,11.2,59.9,33.3,68.4,39c4.6,3.1,7.5,6.1,9.4,8.6C342.6,286.9,342.4,286.1,342.1,285.4z"/>
		<path opacity="0.5" fill="#875C50" d="M319.7,315.8c-8-5.6-21.4-14.8-28.3-19.5c-11.2-7.7-9.8-17.4-9.8-17.4l35.6,22.4
			c0,0,0,0,0,0C317.6,301.8,321.6,308.2,319.7,315.8z"/>
		<path opacity="0.5" fill="#875C50" d="M298.2,337.4c-5.7-3.8-15-10.1-20.7-14c-8.6-5.8-9-17.1-9-17.1l30.9,20.7l0,0
			C299.5,327.2,301.6,331.8,298.2,337.4z"/>
		<path opacity="0.5" fill="#875C50" d="M276.1,340.9c0,0-0.5,3.8-2.8,7c-4.9-2.9-12.1-7.4-16.6-10.9c-7.5-5.8-7.1-11.9-7.1-11.9
			L276.1,340.9z"/>
		<path fill="#FAB29A" d="M450.4,228.4l-64,23.4l-26,9.5c-0.2,0.2-0.4,0.4-0.6,0.6c-4.9,5.6-10.8,10.1-15.1,13.1
			c-3.3,2.3-5.6,3.6-5.6,3.6l-1.8-2.3c-1.8-2.3-4.1-4.3-6.6-5.8l-10.9-6.5l-20.6-12.3l-3.8-2.3l-2.5-1.5l-43.6-26.1
			c-1.6-1-3.5-1.3-5.3-0.9c-0.3,0.1-0.6,0.1-0.9,0.2l-12.6,4.3l-0.7,0.2c-0.2,0.1-0.5,0.2-0.7,0.3c-0.8,0.4-1.5,0.9-2.1,1.5
			c-0.4,0.4-0.7,0.8-1,1.2c-9.6,15.2-19.6,19.9-27.1,20.8c-0.9,0.1-1.8,0.2-2.7,0.2c-2,0-3.7-0.2-5.1-0.6c-3.1-0.7-4.8-4-3.6-7
			l13.6-29.8c1.2-3,3.4-5.5,6.2-7l37-20c2.4-1.3,5.2-1.9,7.9-1.6l63.9,6.4l19.9-7.3l25.9-9.6l59.6-22l24.3,64.9L450.4,228.4z"/>
		<polygon fill="#FFFFFF" points="160.4,195.8 121.3,281.1 94.3,268.8 66.8,256.3 112.8,172.9 132,182.1 		"/>
		<path opacity="0.5" fill="#875C50" d="M247.7,347.1c-3-1.6-6.2-3.6-10-5.9c-10.9-6.7-53.5-27.7-53.5-27.7s-7.9-6.5-16.8-13.8
			c4,0.1,12.1,1.6,20.5,10l11.1-5.3c0,0,12.1,1,16.7,16.9l11.4-5.1c0,0,8.1,3.9,9.4,14.4c0,0,9.2,3.3,10.7,9
			C248,342.8,248,345.4,247.7,347.1z"/>
		<path fill="#FAB29A" d="M176.1,319.4c-1.7,0.2-3.7,0-5.8-1c-6.8-3.2-13.2-15.5-8.1-19.1c0,0,2.7-2.7,9.8,1.5
			c4.2,2.5,6.9,4.9,8.5,7.3c1.1,1.7,1.7,3.3,1.8,5C182.6,315.9,180,318.8,176.1,319.4z"/>
		<path opacity="0.5" fill="#CC8A79" d="M176.1,319.4c1.1-4.4,3.1-8.8,4.4-11.3c1.1,1.7,1.7,3.3,1.8,5
			C182.6,315.9,180,318.8,176.1,319.4z"/>
		<path fill="#FAB29A" d="M187.5,335.7c-6.1-1.3-9.9-7.5-8.4-13.5c0.9-3.9,2.6-9.2,5.7-13.9c6-9.4,23.7-5.4,21.9,10.3l-6.8,15.3
			C199.9,333.8,193.8,337,187.5,335.7z"/>
		<path fill="#FAB29A" d="M228.9,328.8l-8.2,17.1c-0.5,0.2-8.5,3-15.3-1.9c-0.4-0.3-0.9-0.6-1.2-1c-5.3-4.5-4.2-9.2-4.2-9.2
			l6.8-15.3c0,0,4.9-9.3,13.3-7.2c0.2,0,0.4,0.1,0.5,0.1C229.4,314.2,231.1,322.3,228.9,328.8z"/>
		<path fill="#FAB29A" d="M244.1,338c-0.9,4.5-4.6,15.9-4.6,15.9c-1.6,1.5-4.1,3.1-11.1,0.5c-1.4-0.5-2.5-1.1-3.4-1.8
			c-3.8-2.9-4.2-6.8-4.2-6.8l6.7-14c3-2.6,5.9-3.2,8.3-2.7C241,330.2,244.5,336.1,244.1,338z"/>
		<path opacity="0.5" fill="#CC8A79" d="M220.1,311.4c-2.4,1.8-6.9,6-9.9,14.1c-2.3,6-4.4,12.7-6,17.6c-5.3-4.5-4.2-9.2-4.2-9.2
			l6.8-15.3C206.7,318.5,211.6,309.2,220.1,311.4z"/>
		<path opacity="0.5" fill="#CC8A79" d="M235.7,329.2c-1.6,1.4-4,4.3-6.2,10.2c-1.9,5-3.5,9.7-4.6,13.2c-3.8-2.9-4.2-6.8-4.2-6.8
			l6.7-14C230.4,329.3,233.3,328.7,235.7,329.2z"/>
		<path opacity="0.5" fill="#CC8A79" d="M445.8,216.1c-47.1,15.9-101.6,34.6-106.5,37.6c-4.2,2.6-8.5,4-11.8,4.7
			c-5.1-3.2-11.6-7.4-18.7-11.8c11.9-9.4,10.8-24.6,10.8-24.6c-3.7,11.6-9.7,18.1-15.4,21.7c-25.2-15.7-55.4-34-57.6-34.1
			c-3.7-0.1-19.6,5.1-19.6,5.1s-1,16-14,26c-5.5,4.2-10.3,7-14.1,8.8c7.5-0.9,17.5-5.6,27.1-20.8c0.3-0.4,0.6-0.9,1-1.2
			c0.1-0.1,0.3-0.3,0.4-0.4c0,0,0.1-0.1,0.1-0.1c0.1-0.1,0.3-0.2,0.5-0.4c0,0,0,0,0,0c0.2-0.1,0.3-0.2,0.5-0.3c0,0,0.1,0,0.1-0.1
			c0.2-0.1,0.4-0.2,0.5-0.3c0.1-0.1,0.2-0.1,0.3-0.2c0.1-0.1,0.3-0.1,0.4-0.1l0.7-0.2l12.6-4.3c0.1,0,0.3-0.1,0.4-0.1
			c0,0,0.1,0,0.1,0c0.1,0,0.2-0.1,0.3-0.1c1.8-0.4,3.7-0.1,5.4,0.9l43.6,26.1l6.3,3.8l20.6,12.3l0,0l10.9,6.5
			c2.5,1.5,4.8,3.5,6.6,5.8l1.8,2.3c0,0,2.3-1.3,5.6-3.6c4.5-3,10.7-7.9,15.7-13.7l90.1-32.9L445.8,216.1z"/>
		<path opacity="0.5" fill="#CC8A79" d="M386.4,251.8l-26,9.5c-0.2,0.2-0.4,0.4-0.6,0.6L336,182.8l25.9-9.6L386.4,251.8z"/>
		<polygon fill="#FFFFFF" points="429.4,246.7 402.8,255.8 372.7,266.1 342.1,177.4 372.1,166.4 391.7,159.2 		"/>
		<polygon fill="#B3B3B3" points="429.4,246.7 402.8,255.8 372.1,166.4 391.7,159.2 		"/>
		<polygon points="500,107.7 500,246.2 426,280.3 414.3,251.9 410.7,243 405.3,229.9 396.7,209 394.5,203.7 379.4,166.8 
			378.3,164.1 376.7,160.4 434.3,139.2 		"/>
		<polygon fill="#B3B3B3" points="132,182.1 94.3,268.8 66.8,256.3 112.8,172.9 		"/>
		<polygon points="127.6,175.5 125.7,179.1 123,184.1 105.7,216.9 103,221.9 85.9,254.1 81.3,262.9 66.9,290 18.1,261.5 6.6,254.8 
			0,251 0,105 72.4,148.8 		"/>
		<circle fill="#333333" cx="16.3" cy="251.4" r="10.3"/>
	</g>
	<path fill="#FFFFFF" d="M184.6,170.7c-9,1.8-10.4,3.3-12.2,12.2c-1.8-9-3.3-10.4-12.2-12.2c9-1.8,10.4-3.3,12.2-12.2
		C174.1,167.4,175.6,168.9,184.6,170.7z"/>
	<path fill="#FFFFFF" d="M205.7,180.5c-5,1-5.8,1.8-6.7,6.7c-1-5-1.8-5.8-6.7-6.7c5-1,5.8-1.8,6.7-6.7
		C200,178.7,200.8,179.5,205.7,180.5z"/>
	<path fill="#FFFFFF" d="M376.7,295c-5,1-5.8,1.8-6.7,6.7c-1-5-1.8-5.8-6.7-6.7c5-1,5.8-1.8,6.7-6.7C371,293.2,371.8,294,376.7,295z
		"/>
	<path fill="#FFFFFF" d="M341.7,158c-3.9,0.8-4.5,1.4-5.2,5.2c-0.8-3.9-1.4-4.5-5.2-5.2c3.9-0.8,4.5-1.4,5.2-5.2
		C337.3,156.6,337.9,157.2,341.7,158z"/>
	<path fill="#FFFFFF" d="M228.2,390.7c-4.6,0.9-5.3,1.7-6.2,6.2c-0.9-4.6-1.7-5.3-6.2-6.2c4.6-0.9,5.3-1.7,6.2-6.2
		C222.9,389.1,223.7,389.8,228.2,390.7z"/>
	<path fill="#FFFFFF" d="M267.2,393.2c-9,1.8-10.4,3.3-12.2,12.2c-1.8-9-3.3-10.4-12.2-12.2c9-1.8,10.4-3.3,12.2-12.2
		C256.8,390,258.3,391.4,267.2,393.2z"/>
	<path fill="#FFFFFF" d="M146.7,315c-7.2,1.4-8.3,2.6-9.7,9.7c-1.4-7.2-2.6-8.3-9.7-9.7c7.2-1.4,8.3-2.6,9.7-9.7
		C138.4,312.4,139.6,313.6,146.7,315z"/>
	<path fill="#FFFFFF" d="M322.6,166.2c-7.2,1.4-8.3,2.6-9.7,9.7c-1.4-7.2-2.6-8.3-9.7-9.7c7.2-1.4,8.3-2.6,9.7-9.7
		C314.3,163.6,315.4,164.7,322.6,166.2z"/>
	<path fill="#FFFFFF" d="M370.6,323.7c-10.5,2.1-12.2,3.8-14.2,14.2c-2.1-10.5-3.8-12.2-14.2-14.2c10.5-2.1,12.2-3.8,14.2-14.2
		C358.4,319.9,360.1,321.6,370.6,323.7z"/>
	<path fill="#FFFFFF" d="M264.9,146c-11.7,2.3-13.6,4.2-15.9,15.9c-2.3-11.7-4.2-13.6-15.9-15.9c11.7-2.3,13.6-4.2,15.9-15.9
		C251.3,141.8,253.2,143.7,264.9,146z"/>
</g>
</svg>
