<?xml version="1.0" encoding="utf-8"?>
<!-- Generator: Adobe Illustrator 18.0.0, SVG Export Plug-In . SVG Version: 6.00 Build 0)  -->
<!DOCTYPE svg PUBLIC "-//W3C//DTD SVG 1.1//EN" "http://www.w3.org/Graphics/SVG/1.1/DTD/svg11.dtd">
<svg version="1.1" id="Layer_1" xmlns="http://www.w3.org/2000/svg" xmlns:xlink="http://www.w3.org/1999/xlink" x="0px" y="0px"
	 viewBox="187.4 187.4 425.2 425.2" enable-background="new 187.4 187.4 425.2 425.2" xml:space="preserve">
<path fill="#FFFFFF" d="M575.6,247H224.4c-7.9,0-14.4,6.5-14.4,14.4V493c0,7.9,6.5,14.4,14.4,14.4h351.3c7.9,0,14.4-6.5,14.4-14.4
	V261.4C590,253.5,583.5,247,575.6,247z"/>
<path fill="#939393" d="M224.4,507.4h351.3c7.9,0,14.4-6.5,14.4-14.4v-10.6H210V493C210,501,216.5,507.4,224.4,507.4z"/>
<path fill="#31D292" d="M575.6,227.8H224.4c-18.5,0-33.6,15.1-33.6,33.6V493c0,18.5,15.1,33.6,33.6,33.6h351.3
	c18.5,0,33.6-15.1,33.6-33.6V261.4C609.2,242.9,594.1,227.8,575.6,227.8z M590,482.4V493c0,7.9-6.5,14.4-14.4,14.4H224.4
	c-7.9,0-14.4-6.5-14.4-14.4V261.4c0-7.9,6.5-14.4,14.4-14.4h351.3c7.9,0,14.4,6.5,14.4,14.4V482.4z M479.6,572.2H320.4
	c-5.3,0-9.6-4.3-9.6-9.6s4.3-9.6,9.6-9.6h159.2c5.3,0,9.6,4.3,9.6,9.6S484.9,572.2,479.6,572.2z"/>
<path fill="#4B4B4C" d="M215.5,472.3c-1.3,0-2.6-0.5-3.5-1.5c-1.8-2-1.7-5,0.3-6.8l113.4-105.3l50.9,55.7L500.6,275l88.1,94.1
	c1.8,1.9,1.7,5-0.2,6.8c-1.9,1.8-4.9,1.7-6.8-0.2l-80.9-86.5L376.7,428.6l-51.6-56.4L218.7,471C217.8,471.8,216.6,472.3,215.5,472.3
	z"/>
<path fill="#D7E7FF" d="M229.5,414.3c0,21.9,17.7,39.7,39.6,39.7c21.9,0,39.7-17.8,39.7-39.7c0,0,0,0,0,0
	c0-21.9-17.7-39.7-39.6-39.7C247.3,374.6,229.5,392.4,229.5,414.3C229.5,414.3,229.5,414.3,229.5,414.3z"/>
<path fill="#B5CFF4" d="M240.7,414.3c0,15.7,12.7,28.4,28.4,28.4s28.4-12.7,28.4-28.4c0,0,0,0,0,0c0-15.7-12.7-28.4-28.4-28.4
	S240.7,398.6,240.7,414.3L240.7,414.3z"/>
<path fill="#31D292" d="M254.7,414.3c0,8,6.5,14.5,14.5,14.5c8,0,14.5-6.5,14.5-14.5c0,0,0,0,0,0c0-8-6.5-14.5-14.5-14.5
	C261.2,399.8,254.7,406.3,254.7,414.3C254.7,414.3,254.7,414.3,254.7,414.3z"/>
<path fill="#D7E7FF" d="M433,312.7c0,21.9,17.8,39.7,39.7,39.7s39.7-17.8,39.7-39.7S494.6,273,472.7,273S433,290.8,433,312.7z"/>
<path fill="#B5CFF4" d="M444.3,312.7c0,15.7,12.7,28.4,28.4,28.5s28.4-12.7,28.5-28.4c0,0,0,0,0,0c0-15.7-12.7-28.4-28.4-28.5
	C457,284.2,444.3,297,444.3,312.7C444.3,312.7,444.3,312.7,444.3,312.7z"/>
<path fill="#31D292" d="M458.2,312.7c0,8,6.5,14.5,14.5,14.5s14.5-6.5,14.5-14.5s-6.5-14.5-14.5-14.5S458.2,304.7,458.2,312.7z"/>
<path fill="#D7E7FF" d="M499.4,413.2c0,12.3,9.9,22.3,22.2,22.3c12.3,0,22.2-9.9,22.2-22.2c0,0,0,0,0,0c0-12.3-9.9-22.3-22.2-22.3
	C509.3,391,499.4,400.9,499.4,413.2C499.4,413.2,499.4,413.2,499.4,413.2z"/>
<path fill="#B5CFF4" d="M505.7,413.2c0,8.8,7.1,15.9,15.9,15.9c8.8,0,15.9-7.1,15.9-15.9s-7.1-15.9-15.9-15.9
	C512.8,397.3,505.7,404.4,505.7,413.2z"/>
<path fill="#31D292" d="M513.5,413.2c0,4.5,3.6,8.2,8.1,8.2c4.5,0,8.1-3.6,8.1-8.1c0,0,0,0,0,0c0-4.5-3.6-8.2-8.1-8.2
	C517.1,405.1,513.5,408.7,513.5,413.2C513.5,413.2,513.5,413.2,513.5,413.2z"/>
<path fill="#FFFFFF" d="M363.9,499.8h-77.5c-2.4,0-4.3-1.9-4.3-4.3c0-2.4,1.9-4.3,4.3-4.3h77.5c2.4,0,4.3,1.9,4.3,4.3
	C368.3,497.8,366.3,499.8,363.9,499.8L363.9,499.8z M260.3,499.8h-12.7c-2.4,0-4.3-1.9-4.3-4.3c0-2.4,1.9-4.3,4.3-4.3h12.7
	c2.4,0,4.3,1.9,4.3,4.3C264.6,497.8,262.6,499.8,260.3,499.8z"/>
</svg>
