<?xml version="1.0" encoding="utf-8"?>
<!-- Generator: Adobe Illustrator 18.0.0, SVG Export Plug-In . SVG Version: 6.00 Build 0)  -->
<!DOCTYPE svg PUBLIC "-//W3C//DTD SVG 1.1//EN" "http://www.w3.org/Graphics/SVG/1.1/DTD/svg11.dtd">
<svg version="1.1" id="Layer_1" xmlns="http://www.w3.org/2000/svg" xmlns:xlink="http://www.w3.org/1999/xlink" x="0px" y="0px"
	 viewBox="187.4 187.4 425.2 425.2" enable-background="new 187.4 187.4 425.2 425.2" xml:space="preserve">
<path fill="#FFFFFF" d="M269.1,398.7c0,72.4,58.7,131.1,131.1,131.2s131.1-58.7,131.2-131.1c0,0,0-0.1,0-0.1
	c0-72.4-58.7-131.1-131.1-131.1C327.8,267.5,269.1,326.2,269.1,398.7C269.1,398.6,269.1,398.7,269.1,398.7L269.1,398.7z"/>
<path fill="#31D292" d="M401,606c-3.1,0-5.6-2.5-5.6-5.6s2.5-5.6,5.6-5.7c1.8,0,3.7-0.1,5.5-0.1c3.1-0.1,5.7,2.3,5.8,5.5
	c0.1,3.1-2.3,5.7-5.5,5.8C404.9,605.9,403,606,401,606C401,606,401,606,401,606z M378.4,604.9c-0.2,0-0.4,0-0.6-0.1l-5.8-0.7
	c-3.1-0.4-5.3-3.3-4.9-6.3c0.4-3.1,3.3-5.3,6.3-4.9c1.8,0.2,3.6,0.5,5.4,0.6c3.1,0.3,5.4,3.1,5,6.2
	C383.7,602.8,381.3,604.9,378.4,604.9z M429.1,603.9c-2.8,0-5.2-2-5.6-4.9c-0.5-3.1,1.7-5.9,4.8-6.4l5.4-0.8c3.1-0.5,6,1.5,6.6,4.6
	c0.6,3.1-1.5,6-4.6,6.6c-1.9,0.3-3.8,0.6-5.8,0.9C429.7,603.9,429.4,603.9,429.1,603.9L429.1,603.9z M350.7,600
	c-0.5,0-0.9-0.1-1.4-0.2c-1.9-0.5-3.7-1-5.6-1.5c-3-0.8-4.7-4-3.9-6.9c0.8-3,4-4.7,6.9-3.9c1.8,0.5,3.6,1,5.3,1.4
	c3.1,0.7,4.9,3.8,4.1,6.8C355.5,598.3,353.2,600,350.7,600z M456.7,597.9c-2.4,0-4.7-1.6-5.4-4.1c-0.9-3,0.8-6.2,3.8-7
	c1.8-0.5,3.5-1.1,5.3-1.6c3-1,6.2,0.7,7.1,3.6c1,3-0.7,6.2-3.6,7.1c-1.8,0.6-3.7,1.2-5.5,1.7C457.8,597.8,457.2,597.9,456.7,597.9
	L456.7,597.9z M323.8,591.3c-0.7,0-1.4-0.1-2.1-0.4c-1.8-0.7-3.6-1.5-5.4-2.3c-2.9-1.2-4.2-4.6-2.9-7.5c1.2-2.9,4.6-4.2,7.5-2.9
	c1.7,0.7,3.4,1.5,5.1,2.1c2.9,1.2,4.3,4.5,3.1,7.3C328.2,590,326.1,591.3,323.8,591.3L323.8,591.3z M483.2,588.1
	c-2.1,0-4.2-1.2-5.1-3.3c-1.3-2.8-0.1-6.2,2.8-7.5c1.6-0.7,3.3-1.5,5-2.3c2.8-1.4,6.2-0.2,7.6,2.6s0.2,6.2-2.6,7.6
	c-1.8,0.8-3.5,1.7-5.3,2.5C484.7,587.9,483.9,588.1,483.2,588.1L483.2,588.1z M298.4,578.8c-1,0-1.9-0.2-2.8-0.8c-1.6-1-3.3-2-5-3
	c-2.7-1.6-3.5-5.1-1.8-7.8c1.6-2.7,5.1-3.5,7.8-1.8c1.6,1,3.2,1.9,4.7,2.8c2.7,1.6,3.6,5,2,7.7C302.3,577.9,300.4,578.8,298.4,578.8
	L298.4,578.8z M508,574.6c-1.9,0-3.7-0.9-4.8-2.6c-1.7-2.7-0.9-6.1,1.8-7.8c1.5-1,3.1-2,4.6-3c2.6-1.7,6.1-1.1,7.8,1.5c0,0,0,0,0,0
	c1.7,2.6,1.1,6.1-1.5,7.8c0,0,0,0,0,0c-1.6,1.1-3.2,2.1-4.9,3.2C510,574.4,509,574.6,508,574.6L508,574.6z M275.1,563
	c-1.2,0-2.4-0.4-3.5-1.2c-1.5-1.2-3.1-2.4-4.5-3.7c-2.4-2-2.7-5.5-0.7-8c2-2.4,5.5-2.7,8-0.7c1.4,1.2,2.8,2.3,4.3,3.4
	c2.4,1.9,2.9,5.5,1,7.9C278.4,562.3,276.7,563,275.1,563L275.1,563z M530.6,557.9c-1.6,0-3.2-0.7-4.3-2c-2-2.4-1.8-5.9,0.6-8
	c1.4-1.2,2.8-2.4,4.1-3.6c2.3-2.1,5.9-1.9,8,0.4c2.1,2.3,1.9,5.9-0.4,8c-1.4,1.3-2.9,2.6-4.4,3.8
	C533.2,557.5,531.9,557.9,530.6,557.9L530.6,557.9z M254.1,544.1c-1.5,0-2.9-0.6-4.1-1.8c-1.4-1.4-2.7-2.8-4-4.2
	c-2.1-2.3-1.9-5.9,0.4-8c2.3-2.1,5.9-1.9,8,0.4c1.2,1.4,2.5,2.7,3.7,4c2.1,2.3,2.1,5.8-0.2,8C257,543.6,255.6,544.1,254.1,544.1
	L254.1,544.1z M550.8,538.2c-1.4,0-2.7-0.5-3.7-1.4c-2.3-2.1-2.5-5.6-0.5-8c1.2-1.4,2.4-2.8,3.6-4.2c2-2.4,5.6-2.7,8-0.7
	c2.4,2,2.7,5.6,0.7,8c-1.2,1.5-2.5,2.9-3.8,4.4C553.9,537.5,552.4,538.2,550.8,538.2L550.8,538.2z M236.1,522.4
	c-1.8,0-3.4-0.8-4.6-2.3c-1.1-1.6-2.3-3.2-3.3-4.7c-1.8-2.6-1.1-6.1,1.5-7.9c2.6-1.8,6.1-1.1,7.9,1.5c1,1.5,2.1,3,3.2,4.5
	c1.8,2.5,1.2,6-1.2,7.9C238.4,522.1,237.2,522.4,236.1,522.4L236.1,522.4z M568.1,515.8c-1.1,0-2.1-0.3-3.1-1
	c-2.6-1.8-3.3-5.3-1.6-7.9c1-1.5,2-3.1,3-4.6c1.6-2.7,5.1-3.4,7.8-1.8c2.7,1.6,3.4,5.1,1.8,7.8c-1,1.6-2.1,3.3-3.2,4.9
	C571.7,515,569.9,515.8,568.1,515.8L568.1,515.8z M221.1,498.6c-2,0-4-1.1-5-3c-0.9-1.7-1.8-3.4-2.7-5.1c-1.4-2.8-0.2-6.2,2.5-7.6
	c2.8-1.4,6.2-0.2,7.6,2.5c0.8,1.6,1.6,3.3,2.5,4.9c1.5,2.8,0.4,6.2-2.3,7.6C222.9,498.3,222,498.6,221.1,498.6L221.1,498.6z
	 M582,491.3c-0.8,0-1.6-0.2-2.4-0.6c-2.8-1.4-4-4.7-2.7-7.5c0.8-1.6,1.6-3.3,2.3-5c1.3-2.8,4.6-4.1,7.5-2.9c2.8,1.3,4.1,4.6,2.9,7.5
	c-0.8,1.8-1.6,3.6-2.4,5.3C586.2,490.1,584.1,491.3,582,491.3L582,491.3z M209.7,472.7c-2.3,0-4.5-1.4-5.3-3.7
	c-0.7-1.8-1.3-3.7-1.9-5.5c-1-2.9,0.6-6.2,3.6-7.1c2.9-1,6.2,0.6,7.1,3.6c0.6,1.8,1.2,3.5,1.8,5.2c1.1,2.9-0.5,6.2-3.4,7.2
	C211,472.7,210.3,472.7,209.7,472.7L209.7,472.7z M592.4,465c-0.6,0-1.1-0.1-1.7-0.3c-3-1-4.6-4.1-3.7-7.1c0.6-1.8,1.1-3.5,1.6-5.3
	c0.8-3,4-4.7,7-3.9c3,0.8,4.7,4,3.9,7c-0.5,1.9-1.1,3.7-1.7,5.5C597.1,463.5,594.9,465,592.4,465L592.4,465z M201.9,445.6
	c-2.6,0-5-1.8-5.5-4.5c-0.4-1.9-0.8-3.8-1.1-5.7c-0.6-3.1,1.5-6,4.6-6.6c3.1-0.6,6,1.5,6.6,4.6c0.3,1.8,0.7,3.6,1.1,5.4
	c0.6,3.1-1.3,6-4.4,6.7C202.7,445.6,202.3,445.6,201.9,445.6z M599,437.6c-0.3,0-0.6,0-1-0.1c-3.1-0.5-5.1-3.4-4.6-6.5l0.8-5.4
	c0.5-3.1,3.3-5.3,6.4-4.8c3.1,0.5,5.3,3.3,4.8,6.4c-0.3,1.9-0.6,3.8-0.9,5.8C604.2,435.7,601.8,437.6,599,437.6L599,437.6z
	 M198.1,417.6c-2.9,0-5.4-2.3-5.6-5.3c-0.1-1.9-0.2-3.9-0.3-5.8c-0.1-3.1,2.3-5.8,5.4-5.9c3.1-0.1,5.8,2.3,5.9,5.4
	c0.1,1.8,0.2,3.7,0.3,5.5c0.2,3.1-2.1,5.8-5.3,6C198.3,417.6,198.2,417.6,198.1,417.6z M601.8,409.6h-0.2c-3.1-0.1-5.6-2.7-5.5-5.8
	c0.1-1.8,0.1-3.7,0.1-5.5c0-3.1,2.5-5.6,5.6-5.6s5.6,2.5,5.6,5.6c0,1.9,0,3.9-0.1,5.8C607.4,407.1,604.9,409.6,601.8,409.6z
	 M198.2,389.5h-0.4c-3.1-0.2-5.5-2.9-5.3-6c0.1-1.9,0.3-3.8,0.5-5.8c0.3-3.1,3.1-5.4,6.2-5.1c3.1,0.3,5.4,3.1,5.1,6.2
	c-0.2,1.8-0.3,3.7-0.5,5.5C203.6,387.2,201.1,389.5,198.2,389.5L198.2,389.5z M600.7,382.1c-2.8,0-5.3-2.1-5.6-5
	c-0.2-1.8-0.4-3.6-0.7-5.4c-0.4-3.1,1.8-5.9,4.9-6.4c3.1-0.4,5.9,1.8,6.4,4.9c0.3,1.9,0.5,3.8,0.7,5.8c0.3,3.1-1.9,5.9-5,6.2
	L600.7,382.1L600.7,382.1z M202.1,361.5c-0.4,0-0.8-0.1-1.2-0.1c-3.1-0.7-5-3.7-4.4-6.7c0.4-1.9,0.8-3.8,1.3-5.6
	c0.7-3.1,3.8-4.9,6.8-4.2c3.1,0.7,4.9,3.8,4.2,6.8c-0.5,1.8-0.8,3.6-1.2,5.4C207,359.7,204.7,361.5,202.1,361.5z M595.7,354.3
	c-2.5,0-4.8-1.7-5.5-4.3c-0.5-1.8-0.9-3.6-1.4-5.3c-0.8-3,0.9-6.1,3.9-6.9c3-0.8,6.1,0.9,6.9,3.9l1.5,5.6c0.8,3.1-1.1,6.1-4.1,6.8
	C596.7,354.3,596.2,354.3,595.7,354.3z M209.9,334.4c-0.6,0-1.3-0.1-1.9-0.3c-2.9-1.1-4.4-4.3-3.3-7.2c0.7-1.8,1.4-3.6,2.1-5.4
	c1.1-2.9,4.5-4.3,7.3-3.2c2.9,1.1,4.3,4.5,3.2,7.3c-0.7,1.7-1.4,3.4-2,5.1C214.4,333,212.2,334.4,209.9,334.4L209.9,334.4z
	 M587,327.5c-2.2,0-4.4-1.3-5.3-3.5c-0.7-1.7-1.4-3.4-2.1-5c-1.2-2.9,0.1-6.2,2.9-7.5c2.9-1.2,6.2,0.1,7.5,2.9
	c0.8,1.8,1.5,3.6,2.3,5.3c1.2,2.9-0.2,6.2-3.1,7.3C588.4,327.4,587.6,327.5,587,327.5L587,327.5z M221.5,308.6
	c-0.9,0-1.8-0.2-2.7-0.7c-2.8-1.5-3.8-4.9-2.3-7.6c0.9-1.7,1.9-3.4,2.8-5.1c1.5-2.7,5-3.7,7.7-2.1c2.7,1.5,3.7,5,2.1,7.7
	c-0.9,1.6-1.8,3.2-2.7,4.8C225.4,307.5,223.5,308.6,221.5,308.6L221.5,308.6z M574.5,302.2c-1.9,0-3.8-1-4.9-2.8
	c-0.9-1.6-1.9-3.2-2.8-4.7c-1.6-2.7-0.8-6.2,1.8-7.8s6.2-0.8,7.8,1.8c1,1.6,2,3.3,3,5c1.6,2.7,0.7,6.2-2,7.7
	C576.4,302,575.4,302.2,574.5,302.2L574.5,302.2z M236.5,284.7c-1.1,0-2.3-0.3-3.3-1.1c-2.5-1.9-3.1-5.4-1.2-7.9
	c1.1-1.6,2.3-3.1,3.5-4.6c1.9-2.5,5.5-2.9,7.9-1c2.5,1.9,2.9,5.5,1,7.9c-1.1,1.4-2.2,2.9-3.3,4.4C240,283.9,238.3,284.7,236.5,284.7
	z M558.6,278.9c-1.7,0-3.3-0.7-4.5-2.1s-2.3-2.9-3.4-4.2c-2-2.4-1.7-5.9,0.7-8c2.4-2,5.9-1.7,8,0.7c1.2,1.5,2.5,3,3.7,4.5
	c1.9,2.4,1.5,6-1,7.9C561.1,278.5,559.8,278.9,558.6,278.9L558.6,278.9z M254.7,263.1c-1.4,0-2.8-0.5-4-1.6c-2.3-2.1-2.3-5.8-0.1-8
	c1.4-1.4,2.7-2.8,4.1-4.1c2.3-2.2,5.8-2.1,8,0.1c2.2,2.3,2.1,5.8-0.1,8l-3.9,3.9C257.6,262.6,256.2,263.1,254.7,263.1z M539.6,258
	c-1.4,0-2.8-0.5-3.9-1.6c-1.3-1.2-2.7-2.5-4-3.7c-2.3-2.1-2.5-5.6-0.4-8c2.1-2.3,5.6-2.5,8-0.4c1.4,1.3,2.9,2.7,4.2,4
	c2.3,2.1,2.3,5.8,0.2,8C542.6,257.4,541.1,258,539.6,258L539.6,258z M275.7,244.3c-1.7,0-3.3-0.7-4.5-2.2c-1.9-2.5-1.5-6,1-7.9
	c1.5-1.2,3.1-2.4,4.6-3.5c2.5-1.9,6-1.3,7.9,1.2c1.9,2.5,1.3,6-1.2,7.9c-1.5,1.1-2.9,2.2-4.4,3.3
	C278.2,243.9,276.9,244.3,275.7,244.3L275.7,244.3z M518,240c-1.1,0-2.3-0.3-3.3-1.1c-1.5-1.1-3-2.1-4.5-3.2
	c-2.6-1.8-3.2-5.3-1.5-7.9c1.8-2.6,5.3-3.2,7.9-1.5c1.6,1.1,3.2,2.2,4.7,3.3c2.5,1.8,3.1,5.4,1.3,7.9C521.4,239.1,519.7,240,518,240
	L518,240z M299.1,228.6c-2,0-3.8-1-4.9-2.8c-1.6-2.7-0.6-6.2,2.1-7.7c1.7-1,3.4-1.9,5.1-2.8c2.8-1.5,6.2-0.5,7.6,2.3
	c1.5,2.8,0.5,6.2-2.3,7.6c-1.6,0.8-3.2,1.8-4.8,2.7C301,228.3,300.1,228.6,299.1,228.6z M494,225.1c-0.9,0-1.8-0.2-2.7-0.7
	c-1.6-0.8-3.3-1.7-4.9-2.5c-2.8-1.4-4-4.7-2.6-7.6c1.4-2.8,4.7-4,7.6-2.6c1.8,0.8,3.4,1.8,5.2,2.7c2.8,1.5,3.8,4.9,2.4,7.6
	C498,224,496,225.1,494,225.1L494,225.1z M324.5,216.3c-2.3,0-4.4-1.4-5.3-3.6c-1.2-2.9,0.2-6.2,3.2-7.3c1.8-0.7,3.6-1.4,5.4-2.1
	c2.9-1.1,6.2,0.4,7.2,3.3c1.1,2.9-0.4,6.2-3.3,7.2c-1.7,0.6-3.4,1.3-5.1,2C325.9,216.1,325.2,216.3,324.5,216.3z M468.1,213.6
	c-0.6,0-1.3-0.1-1.9-0.3c-1.8-0.6-3.5-1.2-5.2-1.8c-2.9-1-4.6-4.2-3.6-7.1c1-2.9,4.2-4.6,7.1-3.6c1.8,0.6,3.7,1.2,5.5,1.9
	c2.9,1.1,4.5,4.3,3.4,7.2C472.6,212.2,470.5,213.6,468.1,213.6L468.1,213.6z M351.4,207.6c-2.5,0-4.9-1.8-5.5-4.3
	c-0.7-3.1,1.1-6.1,4.1-6.8c1.9-0.5,3.8-0.9,5.6-1.3c3.1-0.7,6,1.3,6.7,4.4c0.7,3.1-1.3,6-4.4,6.7c-1.8,0.4-3.6,0.8-5.4,1.2
	C352.3,207.6,351.8,207.6,351.4,207.6L351.4,207.6z M441,206c-0.4,0-0.8-0.1-1.1-0.1c-1.8-0.4-3.6-0.7-5.4-1
	c-3.1-0.6-5.1-3.5-4.6-6.6c0.6-3.1,3.5-5.1,6.6-4.6c1.9,0.3,3.8,0.7,5.7,1.1c3.1,0.6,5,3.6,4.4,6.7C445.9,204.2,443.6,206,441,206
	L441,206z M379.2,202.9c-2.9,0-5.3-2.1-5.6-5.1c-0.3-3.1,1.9-5.9,5-6.2l5.8-0.5c3.1-0.2,5.8,2.1,6,5.2c0.2,3.1-2.1,5.8-5.2,6
	c-1.8,0.1-3.7,0.3-5.5,0.5C379.5,202.8,379.3,202.9,379.2,202.9z M413,202.2h-0.4c-1.8-0.1-3.7-0.2-5.5-0.3
	c-3.1-0.1-5.5-2.7-5.4-5.9c0.1-3.1,2.7-5.5,5.9-5.4c1.9,0.1,3.9,0.2,5.8,0.3c3.1,0.2,5.5,2.9,5.3,6
	C418.4,199.9,415.9,202.2,413,202.2z"/>
<path fill="#E6E6E6" d="M549.3,250.1c-8.4,0-15.3,6.8-15.3,15.3c0,8.4,6.8,15.3,15.3,15.3c8.4,0,15.3-6.8,15.3-15.3
	C564.5,256.9,557.7,250.1,549.3,250.1z"/>
<path fill="#31D292" d="M549.3,238.8c-14.6,0-26.6,11.9-26.6,26.6c0,14.6,11.9,26.6,26.6,26.6c14.6,0,26.6-11.9,26.6-26.6
	C575.8,250.7,563.9,238.8,549.3,238.8z M534,265.3c0-8.4,6.8-15.3,15.3-15.3c8.4,0,15.3,6.8,15.3,15.3c0,8.4-6.8,15.3-15.3,15.3
	C540.8,280.6,534,273.8,534,265.3z"/>
<path fill="#3D6FB7" d="M518.7,342.2h-238c-1.8,3.7-3.3,7.5-4.7,11.3h247.4C522,349.7,520.5,345.9,518.7,342.2L518.7,342.2z"/>
<path fill="#31D292" d="M508.7,289.3c-29.1-29.1-67.8-45.1-109-45.1s-79.9,16-109,45.1s-45.1,67.8-45.1,109s16,79.9,45.1,109
	c29.1,29.1,67.8,45.1,109,45.1s79.9-16,109-45.1c29.1-29.1,45.1-67.8,45.1-109S537.9,318.4,508.7,289.3z M282.2,457.2h49.2
	c0.6,1.8,1.3,3.6,2,5.4c6.2,16,14.9,31.4,25.6,45.6c5.8,7.6,11.5,14,16.7,19.3C334.8,520,300.4,493.4,282.2,457.2L282.2,457.2z
	 M394.1,529.3c-6.8-5.9-16.6-15.4-26.3-28.2c-8.3-11-17.5-25.8-24.3-44h50.6V529.3z M405.4,529.3v-72.1H456
	c-6.8,18.1-16,32.9-24.3,44C422,514,412.2,523.5,405.4,529.3z M423.8,527.6c5.2-5.3,10.9-11.7,16.7-19.3
	c10.8-14.3,19.5-29.6,25.6-45.6c0.7-1.8,1.4-3.6,2-5.4h49.2C499.1,493.4,464.8,520,423.8,527.6L423.8,527.6z M522.3,445.9h-50.7
	c4.1-15,6.2-30.5,6.2-46.2c0-15.6-2.1-31.1-6.2-46.2h-11.8c4.1,13.9,6.6,29.3,6.6,46.2c0,16.9-2.6,32.4-6.7,46.2h-54.4v-92.4h-11.3
	v92.4h-54.4c-4.1-13.8-6.7-29.2-6.7-46.2c0-16.8,2.6-32.3,6.6-46.2h-11.8c-4.1,15.1-6.2,30.6-6.2,46.2c0,15.8,2.1,31.2,6.2,46.2
	h-50.7c-5.8-14.8-8.9-30.8-8.9-47.6c0-15.7,2.8-30.8,7.9-44.7c1.4-3.8,3-7.6,4.7-11.3c17.9-37.9,53.4-65.9,95.9-73.4
	c-5.4,5.7-11.5,12.7-17.6,21c-10.8,14.7-19.4,30.4-25.6,46.6c-0.7,1.9-1.4,3.9-2.1,5.9h12c6.9-18.6,16.2-34,24.5-45.5
	c9.7-13.2,19.5-23.1,26.3-29.2v74.7h11.3v-74.7c6.8,6.2,16.6,16,26.3,29.2c8.4,11.5,17.7,26.8,24.5,45.5h12c-0.7-2-1.4-3.9-2.1-5.9
	c-6.2-16.3-14.8-31.9-25.6-46.6c-6-8.3-12.1-15.3-17.6-21c42.5,7.6,78,35.6,95.9,73.4c1.8,3.7,3.3,7.5,4.7,11.3
	c5.1,14,7.9,29,7.9,44.7C531.3,415.1,528.1,431.2,522.3,445.9L522.3,445.9z"/>
</svg>
