<?xml version="1.0" encoding="utf-8"?>
<!-- Generator: Adobe Illustrator 18.0.0, SVG Export Plug-In . SVG Version: 6.00 Build 0)  -->
<!DOCTYPE svg PUBLIC "-//W3C//DTD SVG 1.1//EN" "http://www.w3.org/Graphics/SVG/1.1/DTD/svg11.dtd">
<svg version="1.1" id="Layer_1" xmlns="http://www.w3.org/2000/svg" xmlns:xlink="http://www.w3.org/1999/xlink" x="0px" y="0px"
	 viewBox="0 0 51 51" enable-background="new 0 0 51 51" xml:space="preserve">
<g>
	<path fill="#57B78B" d="M3.1,19h7.4c0.2,0,0.4,0.2,0.5,0.4l3.6,12.3c0.2,0.5,0.9,0.5,1,0l3.7-12.4c0.1-0.2,0.3-0.4,0.5-0.4h7.2
		c0.4,0,0.6,0.4,0.5,0.8l-8.7,21.7c-0.1,0.2-0.3,0.3-0.5,0.3h-6.6c-0.2,0-0.4-0.1-0.5-0.3L2.6,19.8C2.5,19.4,2.7,19,3.1,19z"/>
</g>
<g>
	<path fill="#BABABA" d="M18.3,14h9.4c0.2,0,0.4,0.2,0.5,0.4l4.5,15.6c0.2,0.5,0.9,0.5,1,0l4.7-15.6c0.1-0.2,0.3-0.4,0.5-0.4h9
		c0.4,0,0.6,0.4,0.5,0.8L37.6,41.5c-0.1,0.2-0.3,0.3-0.5,0.3h-8.3c-0.2,0-0.4-0.1-0.5-0.3L17.8,14.7C17.6,14.4,17.9,14,18.3,14z"/>
</g>
</svg>
