<svg width="16" height="16" viewBox="0 0 16 16" fill="none" xmlns="http://www.w3.org/2000/svg">
<g id="magnifier" clip-path="url(#clip0_232_1956)">
<g id="Group">
<path id="Vector" fill-rule="evenodd" clip-rule="evenodd" d="M7 1.33337C6.0964 1.33345 5.20591 1.54962 4.40284 1.96384C3.59977 2.37806 2.9074 2.97832 2.38349 3.71454C1.85959 4.45077 1.51934 5.30161 1.39114 6.19607C1.26294 7.09053 1.3505 8.00269 1.64652 8.85643C1.94254 9.71017 2.43843 10.4807 3.09283 11.1039C3.74722 11.727 4.54114 12.1846 5.40834 12.4384C6.27555 12.6923 7.1909 12.7351 8.07801 12.5633C8.96513 12.3915 9.7983 12.01 10.508 11.4507L12.9427 13.8854C13.0684 14.0068 13.2368 14.074 13.4116 14.0725C13.5864 14.071 13.7536 14.0009 13.8772 13.8773C14.0008 13.7536 14.0709 13.5864 14.0725 13.4116C14.074 13.2368 14.0068 13.0684 13.8853 12.9427L11.4507 10.508C12.1093 9.67245 12.5194 8.66831 12.6341 7.61052C12.7487 6.55274 12.5632 5.48405 12.0988 4.52677C11.6344 3.56948 10.9099 2.76228 10.0082 2.19753C9.10648 1.63278 8.06398 1.3333 7 1.33337ZM2.66667 7.00004C2.66667 5.85077 3.12321 4.74857 3.93587 3.93591C4.74853 3.12325 5.85073 2.66671 7 2.66671C8.14927 2.66671 9.25147 3.12325 10.0641 3.93591C10.8768 4.74857 11.3333 5.85077 11.3333 7.00004C11.3333 8.14931 10.8768 9.25151 10.0641 10.0642C9.25147 10.8768 8.14927 11.3334 7 11.3334C5.85073 11.3334 4.74853 10.8768 3.93587 10.0642C3.12321 9.25151 2.66667 8.14931 2.66667 7.00004Z" fill="rgb(148 163 184)"/>
</g>
</g>
<defs>
<clipPath id="clip0_232_1956">
<rect width="16" height="16" fill="white"/>
</clipPath>
</defs>
</svg>
