<?xml version="1.0" encoding="utf-8"?>
<!-- Generator: Adobe Illustrator 18.0.0, SVG Export Plug-In . SVG Version: 6.00 Build 0)  -->
<!DOCTYPE svg PUBLIC "-//W3C//DTD SVG 1.1//EN" "http://www.w3.org/Graphics/SVG/1.1/DTD/svg11.dtd">
<svg version="1.1" id="_x2018_ëîé_x5F_1" xmlns="http://www.w3.org/2000/svg" xmlns:xlink="http://www.w3.org/1999/xlink"
	 x="0px" y="0px" viewBox="39.7 165.8 515.9 510.2" enable-background="new 39.7 165.8 515.9 510.2" xml:space="preserve">
<g>
	<path fill="#E9E9E9" d="M232.8,299.1l10.6-1.2c0.9-0.1,1.7,0.3,2.2,1.1c0.6,0.9,1.3,1.9,2,2.8c1.3,1.7,2.7,3.3,4.2,4.7
		c0.7,0.7,0.9,1.7,0.6,2.6l-4.1,10.4c-0.4,1.1,0,2.4,1.1,2.9l9.1,4.5c1,0.5,2.3,0.2,2.9-0.8l5.5-8.7c0.5-0.9,1.6-1.2,2.6-1
		c4.2,1.1,8.6,1.5,12.9,1.3c1.1,0,2,0.6,2.3,1.6l1.9,6c0.4,1.1,1.5,1.8,2.7,1.6l9.9-2c0.2,0,0.4-0.1,0.6-0.2
		c0.9-0.4,1.4-1.4,1.3-2.3l-0.9-7.9l-0.2-1.9c1.7-0.9,3.3-2,4.8-3.2c2.1-1.6,4-3.4,5.7-5.2c0.6-0.7,1.7-1,2.6-0.6l8.4,3.3
		c1.1,0.4,2.4,0,3-1.1l3.4-7l1-2c0.6-1.1,0.2-2.4-0.9-3.1l-7.2-4.6c-0.9-0.5-1.3-1.5-1-2.5c0.7-2.8,1.1-5.8,1.1-8.7
		c0-0.3,0-0.5,0-0.7c0-0.1,0-0.2,0-0.3c0.1-0.9,0.7-1.7,1.7-2l9.7-3.1c0.1,0,0.2-0.1,0.3-0.1c0.9-0.5,1.5-1.5,1.3-2.6l-2-9.9
		c-0.3-1.2-1.4-2-2.6-1.9l-11.1,1.2c-0.9,0.1-1.8-0.4-2.3-1.2c-1-1.8-2.2-3.6-3.4-5.3c-0.7-0.9-1.4-1.8-2.2-2.6
		c-0.6-0.7-0.8-1.7-0.5-2.5l3.9-10c0.4-1.1,0-2.3-1.1-2.9l-9.1-4.5c-1.1-0.6-2.4-0.2-3.1,0.9l-4.3,6.9c-0.6,0.9-1.7,1.3-2.7,1
		c-4-1.4-8.2-2.1-12.5-2.3c-1,0-1.9-0.7-2.2-1.7l-2.8-8.7c-0.4-1.2-1.6-1.9-2.8-1.6l-9.9,2c-1.2,0.3-2,1.4-1.8,2.6l0,0.5l1,9.2
		c0.1,1-0.4,1.9-1.3,2.4l0,0c-2.1,1.1-4.2,2.4-6.1,3.9c-1.1,0.8-2,1.7-3,2.5c-0.6,0.6-1.6,0.8-2.4,0.5l-8.5-3.3
		c-1.1-0.5-2.5,0-3,1.1l-4.5,9c-0.1,0.3-0.2,0.5-0.2,0.8c-0.1,0.9,0.3,1.7,1.1,2.3l5.8,3.7c0.7,0.5,1.1,1.3,1.1,2.1
		c0,0.2,0,0.4-0.1,0.6c-1.7,5.2-2.5,10.6-2.1,16.1c0.1,0.9-0.4,1.8-1.2,2.2c-0.1,0-0.3,0.1-0.4,0.2l-7.8,2.5
		c-1.1,0.3-1.8,1.5-1.6,2.7l0,0.2l1.9,9.7C230.5,298.4,231.6,299.2,232.8,299.1z M300.7,268.9c0.6,1.5,1.1,3.1,1.4,4.9
		c0.6,3.3,0,8.6-1.5,11.7c-0.2,0.3-0.3,0.6-0.5,1c-10.4,19.3-37.6,15.4-42.1-6.3c-0.6-2.8-0.2-7,0.8-10.2c0.3-0.7,0.5-1.4,0.8-2
		c1.4-2.8,3.1-5.1,5.1-7C275.9,250.3,294.6,253.8,300.7,268.9z"/>
	<path fill="#B8C0C7" d="M514.8,569c0,4.7-3.4,8.5-7.6,8.5H120.4c-4.2,0-7.6-3.8-7.6-8.5V300.8c0-4.7,3.4-8.5,7.6-8.5h386.9
		c4.2,0,7.6,3.8,7.6,8.5"/>
	<g>
		<path fill="#43A1F6" d="M495.7,285.5v21.7H64v-21.7c0-4.5,3.7-8.1,8.1-8.1h415.5C492,277.4,495.7,281,495.7,285.5z"/>
		<g>
			<circle fill="#E9E9E9" cx="80.9" cy="292.3" r="3.8"/>
			<circle fill="#E9E9E9" cx="95.8" cy="292.3" r="3.8"/>
			<circle fill="#E9E9E9" cx="111.1" cy="292.3" r="3.8"/>
		</g>
	</g>
	<path fill="#E9E9E9" d="M343.6,254l5.2-0.6c0.4,0,0.9,0.2,1.1,0.5c0.3,0.5,0.6,0.9,1,1.4c0.6,0.8,1.3,1.6,2,2.3
		c0.3,0.3,0.5,0.8,0.3,1.2l-2,5.1c-0.2,0.6,0,1.1,0.6,1.4l4.5,2.2c0.5,0.3,1.1,0.1,1.4-0.4l2.7-4.2c0.3-0.4,0.8-0.6,1.2-0.5
		c2,0.6,4.2,0.8,6.3,0.6c0.5,0,1,0.3,1.1,0.8l0.9,2.9c0.2,0.6,0.7,0.9,1.3,0.8l4.8-1c0.1,0,0.2,0,0.3-0.1c0.4-0.2,0.7-0.6,0.6-1.1
		l-0.4-3.9l-0.1-0.9c0.8-0.5,1.6-1,2.3-1.5c1-0.8,2-1.6,2.8-2.6c0.3-0.3,0.8-0.5,1.2-0.3l4.1,1.6c0.6,0.2,1.2,0,1.4-0.6l1.7-3.4
		l0.5-1c0.3-0.6,0.1-1.2-0.4-1.5l-3.5-2.3c-0.4-0.3-0.6-0.8-0.5-1.2c0.3-1.4,0.5-2.8,0.6-4.3c0-0.1,0-0.3,0-0.3c0,0,0-0.1,0-0.1
		c0-0.5,0.3-0.9,0.8-1l4.7-1.5c0,0,0.1,0,0.2,0c0.5-0.2,0.7-0.7,0.6-1.2l-1-4.8c-0.1-0.6-0.6-1-1.2-0.9l-5.4,0.6
		c-0.5,0-0.9-0.2-1.1-0.6c-0.5-0.9-1.1-1.7-1.7-2.6c-0.3-0.4-0.7-0.9-1.1-1.3c-0.3-0.3-0.4-0.8-0.2-1.2l1.9-4.8
		c0.2-0.6,0-1.1-0.6-1.4l-4.4-2.2c-0.6-0.3-1.2-0.1-1.5,0.4l-2.1,3.3c-0.3,0.5-0.9,0.6-1.3,0.5c-2-0.7-4-1.1-6.1-1.1
		c-0.5,0-0.9-0.3-1.1-0.8l-1.4-4.3c-0.2-0.6-0.8-0.9-1.4-0.8l-4.8,1c-0.6,0.1-1,0.6-0.9,1.2l0,0.2l0.5,4.5c0,0.5-0.2,0.9-0.6,1.1
		l0,0c-1,0.6-2,1.1-3,1.9c-0.5,0.4-1,0.8-1.4,1.2c-0.3,0.3-0.8,0.4-1.2,0.2l-4.1-1.6c-0.6-0.2-1.2,0-1.5,0.6l-2.2,4.4
		c0,0.1-0.1,0.3-0.1,0.4c0,0.4,0.2,0.9,0.5,1.1l2.8,1.8c0.3,0.2,0.6,0.6,0.5,1c0,0.1,0,0.2,0,0.3c-0.9,2.5-1.2,5.2-1,7.8
		c0,0.5-0.2,0.9-0.6,1.1c0,0-0.1,0-0.2,0.1l-3.8,1.2c-0.6,0.2-0.9,0.7-0.8,1.3l0,0.1l0.9,4.7C342.5,253.6,343.1,254,343.6,254z
		 M376.7,239.3c0.3,0.7,0.6,1.5,0.7,2.4c0.3,1.6,0,4.2-0.8,5.7c-0.1,0.2-0.2,0.3-0.3,0.5c-5.1,9.4-18.3,7.5-20.5-3.1
		c-0.3-1.4-0.1-3.4,0.4-4.9c0.1-0.3,0.3-0.7,0.4-1c0.7-1.4,1.5-2.5,2.5-3.4C364.6,230.2,373.7,231.9,376.7,239.3z"/>
	<g>
		<path fill="#EE805F" d="M166,315.1c-0.5,0.6-0.5,1.1-0.3,1.7l0,0c0.4,1.2,1.8,2.5,3.4,3.8c0.2,0.2,0.4,0.3,0.6,0.5
			c0,0,0.1,0.1,0.1,0.1c0,0,0.1,0,0.1,0.1c1.5,1.4,0.9,1.7,3.7,4.5c3.1,3.2,5.3,3.3,5.9,3c0.5-0.3-0.6-2-1.7-3.9
			c0-0.1-0.1-0.2-0.2-0.3c-0.2-0.3-0.3-0.5-0.5-0.8c-1.4-2.3-1-3.4-0.7-6.9c0.3-2.8,4.4-15.7,4.4-15.7l-6-1c0,0-1.8,10.2-3.8,11.8
			c-1.1,0.9-2.3,0.9-3.3,1.5c-0.1,0-0.1,0.1-0.2,0.1C167,314.2,166.4,314.6,166,315.1z"/>
		<path fill="#151F2C" d="M166,315.1c-0.5,0.6-0.5,1.1-0.3,1.7l0,0c0.5,1.2,1.9,2.5,3.4,3.8c0.2,0.2,0.4,0.3,0.6,0.5
			c0,0,0.1,0.1,0.1,0.1c0,0,0.1,0,0.1,0.1c1.5,1.4,0.9,1.7,3.7,4.5c3.1,3.2,5.3,3.3,5.9,3c0.5-0.3-0.6-2-1.7-3.9
			c-0.6-0.2-3.4-1.4-5.5-4.1c-1.9-2.4-3.1-5.4-4.4-7.2c-0.1,0-0.1,0.1-0.2,0.1C167,314.2,166.4,314.6,166,315.1z"/>
		<path fill="#EE805F" d="M214,311.4c0.4,1.8,3,1.5,5.9,0.8s2.3,0.1,6.4-0.3c4.2-0.5,5.4-2,5.6-2.6c0.1-0.6-2-0.8-4.2-1
			c-0.3,0-0.6-0.1-0.9-0.1c-2.5-0.3-4.3-1.9-6.6-3.2c-2.2-1.2-5.4-6.4-5.4-6.4l-5.7,0.5c0,0,3,4.5,4.2,6.5c0.7,1.1,0.6,2.7,0.6,3.9
			C214,310.1,213.9,310.8,214,311.4z"/>
		<path fill="#151F2C" d="M220,312.2c2.9-0.7,2.3,0.1,6.4-0.3c4.2-0.5,5.4-2,5.6-2.6c0.1-0.6-2-0.8-4.2-1v0c0,0-2.5,1.8-6,1.9
			c-2.8,0.1-5.8-0.7-7.8-0.7c0,0.6-0.1,1.3,0,2C214.4,313.2,217,312.9,220,312.2z"/>
		<path fill="#151F2C" d="M192.1,274.8l-5.4,14.4l-7,18.8c0,0-1.9,0.2-3.7-0.3c-1.7-0.5-3.6-1.7-3.6-1.7s2-20.2,5.6-31.8
			c0.9-3,2-5.4,3.1-6.7C186.8,260.8,192.1,274.8,192.1,274.8z"/>
		<path fill="#384152" d="M186.7,252c-3.5-1.1-13.5,0.3-23.5,2.3l-2.1-3.5l-21.7-1.7c0,0-7.1,15.9-3.2,26c0.6,1.5,1.7,2.4,3.7,2.5
			h0.3c0,0,12.9,0,17.1,0c10.8,0,22.8-7.4,24.4-7.7c2.6-0.5,3.6,4.6,6.1,9.9c2.6,5.4,23.9,23.7,23.9,23.7s3.3,0,4.6-0.5
			c1.4-0.6,2-1.3,2-1.3S194.6,254.5,186.7,252z"/>
		<path fill="#151F2C" d="M153.9,184.8c-3-0.8-7.2,0-7.9,0.1c-8.2,0.8-11,10-9.8,17.1c1.1,6.6-2.2,8.4-6.1,13.6
			c-7.8,10.4-2.7,19.2,3.4,21.5c3.7,1.4,8.8-2.1,8.8-2.1c0.1,0,16-10.5,22.6-16.4C175.8,214.4,161.6,186.8,153.9,184.8z"/>
		<path fill="#EE805F" d="M155.1,215c0.2,0.8-3.4,2.2-6.2,1.7c-2.6-0.5-5.5-3.5-4.9-3.8c1-0.5,1.7-1.7,1.1-8l0.5,0l8.3,0.9
			c0,0,0,2.6,0.2,5C154.3,212.9,154.7,213.7,155.1,215z"/>
		<path fill="#DE6B4D" d="M154,205.8c0,0,0,2.6,0.2,5c-4.6,0.3-7.3-3.7-8.5-6L154,205.8z"/>
		<path fill="#EE805F" d="M155.7,208c0,0-10.8,1.1-11.4-5.7c-0.6-6.7-2.3-11.1,4.5-12.1c6.8-1,8.4,1.5,9.1,3.7
			C158.7,196.1,158.5,207.6,155.7,208z"/>
		<path fill="#151F2C" d="M154.5,189.2c0,0-1.4,8.2-7.5,10.2c-4.5,1.4-6.5,0.5-6.5,0.5s2.2-2.8,2.9-6.8c0.2-1.2,1.1-2.1,2.2-2.5
			C148.8,189.5,152.6,186.6,154.5,189.2z"/>
		<path fill="#151F2C" d="M152.5,191c0,0,2,0.5,3.8,3.1c1,1.4,2.1,5.1,1.9,6.6c0,0,1.9-7.6-0.9-10.4
			C154.4,187.3,152.5,191,152.5,191z"/>
		<path fill="#43A1F6" d="M135.7,237.1c0.2,0.8,0.3,1.6,0.5,2.3c0.2,1.1,0.4,2.1,0.5,2.9c0.3,2.6,0.2,4.2,0.5,6c0.1,1,0.3,2,0.8,3.2
			c0.4,1.2,12.2,2.3,18.8,1.9c2.1-0.1,3.7-0.4,4.3-0.9c2.4-2.1,2.1,2.5,2.5-19.3c0.2-10.6-9-20.1-9-20.1s-0.7,4.5-9.8-0.9
			c-0.3-0.2-3.9,5.1-7.4,11.7C133.6,231.1,134.6,232.6,135.7,237.1z"/>
		<path fill="#384152" d="M186.8,289.2l-7,18.8c0,0-1.9,0.2-3.7-0.3c-1.7-0.5-3.6-1.7-3.6-1.7s2-20.2,5.6-31.8L186.8,289.2z"/>
		<path fill="#43A1F6" d="M154.5,213.1c0,0,9.4,1.6,10.5,5.6c1.1,4,8.7,26.5,8.7,26.5s-5.9,2-8.1-0.2c-2.2-2.2-7.7-20.4-7.7-20.4
			L154.5,213.1z"/>
		<path fill="#FFFFFF" d="M153.2,204.1c0,0,0.5,1.1,1.7,1.1c1.2,0,1.5-0.2,1.7-0.4c0.2-0.3,0.5-0.7,0.5-0.7S155,203.6,153.2,204.1z"
			/>
		<path fill="#2B6EB2" d="M136.6,242.3c0.3,2.6,0.2,4.2,0.5,6c8.5,0,19.8-6.5,19.8-6.5L136.6,242.3z"/>
		<path fill="#2B6EB2" d="M156.9,236.1c0,0-13.2-0.4-15.4-7.9c-2.5-8.2-5.2,3.4-5.2,3.4l1.4,7.4h14.5L156.9,236.1z"/>
		<g>
			<path fill="#B8C0C7" d="M179.9,215.7l-0.7-1.8c-0.8-1.9-2.6-3.1-4.6-3.1h-13.2v8.4v35.7h54.5v-35.7h-30.8
				C182.8,219.2,180.8,217.8,179.9,215.7z"/>
			<g>
				<path fill="#FFFFFF" d="M169.7,237.6v-3.2l11.1-4.9v3.2l-7.8,3.2l7.8,3.2v3.3L169.7,237.6z"/>
				<path fill="#FFFFFF" d="M192.4,225.7h3L185.1,247h-3L192.4,225.7z"/>
				<path fill="#FFFFFF" d="M207.7,234.4v3.2l-11.1,4.9v-3.2l7.8-3.2l-7.8-3.2v-3.3L207.7,234.4z"/>
			</g>
		</g>
		<path fill="#EE805F" d="M156.9,237.9l0.9-1.5c0,0,0.8-0.3,1.8-1c1.3-0.9,1.1-2.2,1.7-2.1v2.9h-0.1c2.7,0.7,5.9,0,6,0.6
			c0.2,1.9-1.3,2.7-2.5,3.3c-0.9,0.4-2,1.1-3.6,0.6c-1.2-0.4-3.1-0.8-3.1-0.8L156.9,237.9z"/>
		<path fill="#43A1F6" d="M144.7,212.2c0,0-8.6,0.6-10.7,3.9c-2.1,3.4-4.8,20.3-3.7,26.2c1.1,5.8,28.6-1.1,28.6-1.1l-0.9-5.1
			c0,0-15.9,0.1-16.8-2C140,231.4,144.7,212.2,144.7,212.2z"/>
		<path fill="#EE805F" d="M186.1,219.1c-0.1,0.2,1.3,2.5,3.2,2.1c1.2-0.3,2.8-2.8,1.4-3.4C188.4,216.8,186.3,218.5,186.1,219.1z"/>
	</g>
	<g>
		<g>
			
				<rect x="285.6" y="273.4" transform="matrix(-0.8822 -0.4709 0.4709 -0.8822 393.2039 712.8589)" fill="#151F2C" width="0.3" height="67.7"/>
		</g>
		<g>
			
				<rect x="374.2" y="296.5" transform="matrix(-0.6798 -0.7334 0.7334 -0.6798 455.1556 792.0972)" fill="#151F2C" width="52.7" height="0.3"/>
		</g>
		<g>
			<path fill="#E9E9E9" d="M440.7,327.3c0.6,3.9-0.5,7.6-2.7,10.5c-2.1,2.9-5.4,4.9-9.1,5.5l-160.2,22c-8.2,1.1-15.7-4.3-16.8-12
				c-0.6-3.9,0.6-7.6,3-10.5c2.3-2.9,5.8-5,9.9-5.6l160.2-22C432.6,314.1,439.6,319.6,440.7,327.3z"/>
			<path fill="#43A1F6" d="M440.7,327.3c0.6,3.9-0.5,7.6-2.7,10.5c-2.1,2.9-5.4,4.9-9.1,5.5l-29,4l-3.9-28.1l29-4
				C432.6,314.1,439.6,319.6,440.7,327.3z"/>
			<g>
				<g>
					<path fill="#FFFFFF" d="M423,335c-0.3,0-0.7,0.1-1.1,0.1c-1.9,0-3.7-0.8-5.1-2.2c-2.8-2.8-2.7-7.4,0.1-10.2l0,0
						c2.8-2.8,7.4-2.7,10.2,0.1c2.8,2.8,2.7,7.4-0.1,10.2C426,334,424.6,334.8,423,335z M417.8,323.4c-2.4,2.3-2.4,6.2-0.1,8.5
						c1.1,1.1,2.6,1.8,4.3,1.8c1.6,0,3.1-0.6,4.3-1.7c2.4-2.3,2.4-6.2,0.1-8.5C424,321.2,420.2,321.1,417.8,323.4L417.8,323.4z"/>
				</g>
				
					<rect x="413.1" y="330.9" transform="matrix(-0.6989 -0.7152 0.7152 -0.6989 462.707 866.4781)" fill="#FFFFFF" width="1.2" height="9.9"/>
				<path fill="#FFFFFF" d="M407.8,341.7L407.8,341.7c-0.4-0.4-0.4-1.1,0-1.5l4.2-4.1c0.4-0.4,1.1-0.4,1.5,0l0,0
					c0.4,0.4,0.4,1.1,0,1.5l-4.2,4.1C408.8,342.2,408.1,342.2,407.8,341.7z"/>
			</g>
		</g>
	</g>
	<g>
		<path fill="#43A1F6" d="M171.7,480.3h-33.5c-0.7,0-1.3-0.6-1.3-1.3v-0.5c0-0.7,0.6-1.3,1.3-1.3h33.5c0.7,0,1.3,0.6,1.3,1.3v0.5
			C173,479.7,172.4,480.3,171.7,480.3z"/>
		<g>
			<path fill="#151F2C" d="M154.5,490.8H138c-0.6,0-1.1-0.5-1.1-1.1l0,0c0-0.6,0.5-1.1,1.1-1.1h16.5c0.6,0,1.1,0.5,1.1,1.1l0,0
				C155.6,490.3,155.1,490.8,154.5,490.8z"/>
			<g>
				<path fill="#151F2C" d="M167.2,486.4H138c-0.6,0-1-0.4-1-1v-0.1c0-0.6,0.4-1,1-1h29.2c0.6,0,1,0.4,1,1v0.1
					C168.2,486,167.7,486.4,167.2,486.4z"/>
				<path fill="#151F2C" d="M199.2,486.4H172c-0.5,0-0.9-0.4-0.9-0.9v-0.2c0-0.5,0.4-0.9,0.9-0.9h27.2c0.5,0,0.9,0.4,0.9,0.9v0.2
					C200.1,486,199.7,486.4,199.2,486.4z"/>
				<path fill="#151F2C" d="M175.1,490.8h-16.5c-0.6,0-1-0.5-1-1.1l0,0c0-0.6,0.5-1.1,1-1.1h16.5c0.6,0,1.1,0.5,1.1,1.1l0,0
					C176.2,490.3,175.7,490.8,175.1,490.8z"/>
			</g>
		</g>
		<path fill="#43A1F6" d="M212.5,480.3H179c-0.7,0-1.3-0.6-1.3-1.3v-0.5c0-0.7,0.6-1.3,1.3-1.3h33.5c0.7,0,1.3,0.6,1.3,1.3v0.5
			C213.7,479.7,213.2,480.3,212.5,480.3z"/>
	</g>
	<g>
		<path fill="#43A1F6" d="M171.7,503.3h-33.5c-0.7,0-1.3-0.6-1.3-1.3v-0.5c0-0.7,0.6-1.3,1.3-1.3h33.5c0.7,0,1.3,0.6,1.3,1.3v0.5
			C173,502.7,172.4,503.3,171.7,503.3z"/>
		<g>
			<path fill="#151F2C" d="M154.5,513.8H138c-0.6,0-1.1-0.5-1.1-1.1l0,0c0-0.6,0.5-1.1,1.1-1.1h16.5c0.6,0,1.1,0.5,1.1,1.1l0,0
				C155.6,513.3,155.1,513.8,154.5,513.8z"/>
			<g>
				<path fill="#151F2C" d="M167.2,509.4H138c-0.6,0-1-0.4-1-1v-0.1c0-0.6,0.4-1,1-1h29.2c0.6,0,1,0.4,1,1v0.1
					C168.2,509,167.7,509.4,167.2,509.4z"/>
				<path fill="#151F2C" d="M199.2,509.4H172c-0.5,0-0.9-0.4-0.9-0.9v-0.2c0-0.5,0.4-0.9,0.9-0.9h27.2c0.5,0,0.9,0.4,0.9,0.9v0.2
					C200.1,509,199.7,509.4,199.2,509.4z"/>
				<path fill="#151F2C" d="M175.1,513.8h-16.5c-0.6,0-1-0.5-1-1.1l0,0c0-0.6,0.5-1.1,1-1.1h16.5c0.6,0,1.1,0.5,1.1,1.1l0,0
					C176.2,513.3,175.7,513.8,175.1,513.8z"/>
			</g>
		</g>
		<path fill="#43A1F6" d="M212.5,503.3H179c-0.7,0-1.3-0.6-1.3-1.3v-0.5c0-0.7,0.6-1.3,1.3-1.3h33.5c0.7,0,1.3,0.6,1.3,1.3v0.5
			C213.7,502.7,213.2,503.3,212.5,503.3z"/>
	</g>
	<g>
		<polygon fill="#384152" points="345.6,363.5 326.5,368 317.1,385.2 309.8,346 		"/>
		
			<rect x="328.4" y="363.2" transform="matrix(-0.797 0.604 -0.604 -0.797 818.8286 471.4587)" fill="#384152" width="3.5" height="20.2"/>
	</g>
	<g>
		<path fill="#E9E9E9" d="M333.1,444.5h-47c-1.9,0-3.4-1.5-3.4-3.4v-47c0-1.9,1.5-3.4,3.4-3.4h47c1.9,0,3.4,1.5,3.4,3.4v47
			C336.5,443,335,444.5,333.1,444.5z"/>
		<g>
			<path fill="#2B6EB2" d="M289.6,433.3l10.5-18.9c1.2-2.2,4.3-2.4,5.8-0.4l6,8.2c1.3,1.7,3.9,1.9,5.3,0.3l0,0
				c1.5-1.7,4.2-1.4,5.4,0.5l6.5,10.1c1.5,2.3-0.2,5.3-2.9,5.3h-33.7C289.9,438.4,288.3,435.6,289.6,433.3z"/>
			<circle fill="#2B6EB2" cx="314.4" cy="405.6" r="4.1"/>
		</g>
	</g>
	<g>
		<path fill="#E9E9E9" d="M402.1,446l-46.6,6.3c-1.9,0.3-3.6-1.1-3.9-2.9l-6.4-46.6c-0.3-1.9,1.1-3.6,2.9-3.9l46.6-6.3
			c1.9-0.3,3.6,1.1,3.9,2.9l6.3,46.6C405.3,444,403.9,445.7,402.1,446z"/>
		<g>
			<path fill="#2B6EB2" d="M357.4,440.7l7.8-20.1c0.9-2.3,4-2.9,5.7-1.1l7.1,7.4c1.5,1.6,4.1,1.4,5.3-0.4l0,0c1.3-1.9,4-2,5.4-0.3
				l7.8,9.1c1.8,2.1,0.6,5.3-2.1,5.7l-33.3,4.5C358.4,445.7,356.4,443.2,357.4,440.7z"/>
			<circle fill="#2B6EB2" cx="378.2" cy="409.9" r="4.1"/>
		</g>
	</g>
	<g>
		<rect x="238" y="612.5" fill="#43A1F6" width="27.2" height="23.3"/>
		<rect x="236.9" y="611.5" fill="#384152" width="29.2" height="1.8"/>
		<rect x="238" y="618.7" fill="#384152" width="27.2" height="7.4"/>
	</g>
	<path fill="#43A1F6" d="M298.2,635.8h-25.6c-0.9,0-1.7-0.8-1.7-1.7v-2.8c0-1,0.9-1.8,1.9-1.7l25.6,2.8c0.9,0.1,1.5,0.8,1.5,1.7l0,0
		C299.9,635,299.1,635.8,298.2,635.8z"/>
	<g>
		<path fill="#151F2C" d="M253.4,446.7h-2.9c-0.3,0-0.5-0.2-0.5-0.5c0-0.3,0.2-0.5,0.5-0.5h2.9c0.3,0,0.5,0.2,0.5,0.5
			C253.9,446.5,253.7,446.7,253.4,446.7z M247.5,446.7h-2.9c-0.3,0-0.5-0.2-0.5-0.5c0-0.3,0.2-0.5,0.5-0.5h2.9
			c0.3,0,0.5,0.2,0.5,0.5C248,446.5,247.8,446.7,247.5,446.7z M241.6,446.7h-2.9c-0.3,0-0.5-0.2-0.5-0.5c0-0.3,0.2-0.5,0.5-0.5h2.9
			c0.3,0,0.5,0.2,0.5,0.5C242.1,446.5,241.9,446.7,241.6,446.7z M235.8,446.7h-2.9c-0.3,0-0.5-0.2-0.5-0.5c0-0.3,0.2-0.5,0.5-0.5
			h2.9c0.3,0,0.5,0.2,0.5,0.5C236.2,446.5,236,446.7,235.8,446.7z M229.9,446.7H227c-0.3,0-0.5-0.2-0.5-0.5c0-0.3,0.2-0.5,0.5-0.5
			h2.9c0.3,0,0.5,0.2,0.5,0.5C230.4,446.5,230.2,446.7,229.9,446.7z M224,446.7h-2.9c-0.3,0-0.5-0.2-0.5-0.5c0-0.3,0.2-0.5,0.5-0.5
			h2.9c0.3,0,0.5,0.2,0.5,0.5C224.5,446.5,224.3,446.7,224,446.7z M218.2,446.7h-2.9c-0.3,0-0.5-0.2-0.5-0.5c0-0.3,0.2-0.5,0.5-0.5
			h2.9c0.3,0,0.5,0.2,0.5,0.5C218.6,446.5,218.4,446.7,218.2,446.7z M212.3,446.7h-2.9c-0.3,0-0.5-0.2-0.5-0.5
			c0-0.3,0.2-0.5,0.5-0.5h2.9c0.3,0,0.5,0.2,0.5,0.5C212.8,446.5,212.6,446.7,212.3,446.7z M206.4,446.7h-2.9
			c-0.3,0-0.5-0.2-0.5-0.5c0-0.3,0.2-0.5,0.5-0.5h2.9c0.3,0,0.5,0.2,0.5,0.5C206.9,446.5,206.7,446.7,206.4,446.7z M200.6,446.7
			h-2.9c-0.3,0-0.5-0.2-0.5-0.5c0-0.3,0.2-0.5,0.5-0.5h2.9c0.3,0,0.5,0.2,0.5,0.5C201,446.5,200.8,446.7,200.6,446.7z M194.7,446.7
			h-2.9c-0.3,0-0.5-0.2-0.5-0.5c0-0.3,0.2-0.5,0.5-0.5h2.9c0.3,0,0.5,0.2,0.5,0.5C195.2,446.5,195,446.7,194.7,446.7z M188.8,446.7
			h-2.9c-0.3,0-0.5-0.2-0.5-0.5c0-0.3,0.2-0.5,0.5-0.5h2.9c0.3,0,0.5,0.2,0.5,0.5C189.3,446.5,189.1,446.7,188.8,446.7z
			 M182.9,446.7H180c-0.3,0-0.5-0.2-0.5-0.5c0-0.3,0.2-0.5,0.5-0.5h2.9c0.3,0,0.5,0.2,0.5,0.5C183.4,446.5,183.2,446.7,182.9,446.7z
			 M177.1,446.7h-2.9c-0.3,0-0.5-0.2-0.5-0.5c0-0.3,0.2-0.5,0.5-0.5h2.9c0.3,0,0.5,0.2,0.5,0.5C177.6,446.5,177.4,446.7,177.1,446.7
			z M171.2,446.7h-2.9c-0.3,0-0.5-0.2-0.5-0.5c0-0.3,0.2-0.5,0.5-0.5h2.9c0.3,0,0.5,0.2,0.5,0.5
			C171.7,446.5,171.5,446.7,171.2,446.7z M165.3,446.7h-2.9c-0.3,0-0.5-0.2-0.5-0.5c0-0.3,0.2-0.5,0.5-0.5h2.9
			c0.3,0,0.5,0.2,0.5,0.5C165.8,446.5,165.6,446.7,165.3,446.7z M159.5,446.7h-2.9c-0.3,0-0.5-0.2-0.5-0.5c0-0.3,0.2-0.5,0.5-0.5
			h2.9c0.3,0,0.5,0.2,0.5,0.5C160,446.5,159.7,446.7,159.5,446.7z M153.6,446.7h-2.6c-0.1,0-0.2,0-0.3,0c-0.3,0-0.5-0.3-0.5-0.5
			s0.3-0.5,0.5-0.5c0.1,0,0.2,0,0.3,0h2.6c0.3,0,0.5,0.2,0.5,0.5C154.1,446.5,153.9,446.7,153.6,446.7z M256.1,445.8
			c-0.2,0-0.3-0.1-0.4-0.2c-0.2-0.2-0.1-0.5,0.1-0.7c0.7-0.5,1.3-1.2,1.7-2c0.1-0.3,0.4-0.4,0.6-0.3c0.3,0.1,0.4,0.4,0.3,0.6
			c-0.4,1-1.1,1.9-2,2.5C256.4,445.8,256.3,445.8,256.1,445.8z M148,445.6c-0.1,0-0.2,0-0.3-0.1c-0.9-0.7-1.5-1.6-1.8-2.6
			c-0.1-0.3,0-0.5,0.3-0.6s0.5,0,0.6,0.3c0.3,0.9,0.8,1.6,1.5,2.1c0.2,0.2,0.3,0.5,0.1,0.7C148.2,445.6,148.1,445.6,148,445.6z
			 M258.3,440.7c-0.3,0-0.5-0.2-0.5-0.5v-2.9c0-0.3,0.2-0.5,0.5-0.5c0.3,0,0.5,0.2,0.5,0.5v2.9C258.8,440.5,258.6,440.7,258.3,440.7
			z M146,440.4c-0.3,0-0.5-0.2-0.5-0.5V437c0-0.3,0.2-0.5,0.5-0.5c0.3,0,0.5,0.2,0.5,0.5v2.9C146.5,440.2,146.3,440.4,146,440.4z
			 M258.3,434.8c-0.3,0-0.5-0.2-0.5-0.5v-2.9c0-0.3,0.2-0.5,0.5-0.5c0.3,0,0.5,0.2,0.5,0.5v2.9C258.8,434.6,258.6,434.8,258.3,434.8
			z M146,434.5c-0.3,0-0.5-0.2-0.5-0.5v-2.9c0-0.3,0.2-0.5,0.5-0.5c0.3,0,0.5,0.2,0.5,0.5v2.9C146.5,434.3,146.3,434.5,146,434.5z
			 M258.3,428.9c-0.3,0-0.5-0.2-0.5-0.5v-2.9c0-0.3,0.2-0.5,0.5-0.5c0.3,0,0.5,0.2,0.5,0.5v2.9C258.8,428.7,258.6,428.9,258.3,428.9
			z M146,428.6c-0.3,0-0.5-0.2-0.5-0.5v-2.9c0-0.3,0.2-0.5,0.5-0.5c0.3,0,0.5,0.2,0.5,0.5v2.9C146.5,428.4,146.3,428.6,146,428.6z
			 M258.3,423.1c-0.3,0-0.5-0.2-0.5-0.5v-2.9c0-0.3,0.2-0.5,0.5-0.5c0.3,0,0.5,0.2,0.5,0.5v2.9C258.8,422.9,258.6,423.1,258.3,423.1
			z M146,422.8c-0.3,0-0.5-0.2-0.5-0.5v-2.9c0-0.3,0.2-0.5,0.5-0.5c0.3,0,0.5,0.2,0.5,0.5v2.9C146.5,422.6,146.3,422.8,146,422.8z
			 M258.3,417.2c-0.3,0-0.5-0.2-0.5-0.5v-2.9c0-0.3,0.2-0.5,0.5-0.5c0.3,0,0.5,0.2,0.5,0.5v2.9C258.8,417,258.6,417.2,258.3,417.2z
			 M146,416.9c-0.3,0-0.5-0.2-0.5-0.5v-2.9c0-0.3,0.2-0.5,0.5-0.5c0.3,0,0.5,0.2,0.5,0.5v2.9C146.5,416.7,146.3,416.9,146,416.9z
			 M258.3,411.3c-0.3,0-0.5-0.2-0.5-0.5v-2.9c0-0.3,0.2-0.5,0.5-0.5c0.3,0,0.5,0.2,0.5,0.5v2.9C258.8,411.1,258.6,411.3,258.3,411.3
			z M146,411c-0.3,0-0.5-0.2-0.5-0.5v-2.9c0-0.3,0.2-0.5,0.5-0.5c0.3,0,0.5,0.2,0.5,0.5v2.9C146.5,410.8,146.3,411,146,411z
			 M258.3,405.5c-0.3,0-0.5-0.2-0.5-0.5v-2.9c0-0.3,0.2-0.5,0.5-0.5c0.3,0,0.5,0.2,0.5,0.5v2.9C258.8,405.3,258.6,405.5,258.3,405.5
			z M146,405.2c-0.3,0-0.5-0.2-0.5-0.5v-2.9c0-0.3,0.2-0.5,0.5-0.5c0.3,0,0.5,0.2,0.5,0.5v2.9C146.5,405,146.3,405.2,146,405.2z
			 M258.3,399.6c-0.3,0-0.5-0.2-0.5-0.5v-2.9c0-0.3,0.2-0.5,0.5-0.5c0.3,0,0.5,0.2,0.5,0.5v2.9C258.8,399.4,258.6,399.6,258.3,399.6
			z M146,399.3c-0.3,0-0.5-0.2-0.5-0.5v-3c0-0.3,0.2-0.5,0.5-0.5c0.3,0,0.5,0.2,0.5,0.5v2.9C146.5,399.1,146.3,399.3,146,399.3z
			 M258.3,393.7c-0.3,0-0.5-0.2-0.5-0.5v-2.9c0-0.3,0.2-0.5,0.5-0.5c0.3,0,0.5,0.2,0.5,0.5v2.9C258.8,393.5,258.6,393.7,258.3,393.7
			z M146,393.4c-0.3,0-0.5-0.2-0.5-0.5V390c0-0.3,0.2-0.5,0.5-0.5c0.3,0,0.5,0.2,0.5,0.5v2.9C146.5,393.2,146.3,393.4,146,393.4z
			 M258.3,387.9c-0.3,0-0.5-0.2-0.5-0.5v-1.3c0-0.5-0.1-1-0.2-1.4c-0.1-0.3,0-0.5,0.3-0.6c0.3-0.1,0.5,0,0.6,0.3
			c0.2,0.6,0.3,1.1,0.3,1.7v1.3C258.8,387.7,258.6,387.9,258.3,387.9z M146,387.6c-0.3,0-0.5-0.2-0.5-0.5v-1c0-0.7,0.1-1.4,0.4-2
			c0.1-0.3,0.4-0.4,0.6-0.3c0.3,0.1,0.4,0.4,0.3,0.6c-0.2,0.6-0.3,1.1-0.3,1.7v1C146.5,387.4,146.3,387.6,146,387.6z M256.4,382.6
			c-0.1,0-0.2,0-0.3-0.1c-0.7-0.6-1.5-0.9-2.4-0.9c-0.3,0-0.5-0.3-0.5-0.5s0.3-0.5,0.5-0.5c1.1,0.1,2.1,0.5,3,1.1
			c0.2,0.2,0.3,0.5,0.1,0.7C256.7,382.5,256.5,382.6,256.4,382.6z M148.2,382.4c-0.2,0-0.3-0.1-0.4-0.2c-0.2-0.2-0.1-0.5,0.1-0.7
			c0.9-0.6,2-0.9,3-0.9l0,0c0.3,0,0.5,0.2,0.5,0.5c0,0.3-0.2,0.5-0.5,0.5c-0.9,0-1.7,0.3-2.5,0.8
			C148.4,382.4,148.3,382.4,148.2,382.4z M250.7,381.6h-2.9c-0.3,0-0.5-0.2-0.5-0.5s0.2-0.5,0.5-0.5h2.9c0.3,0,0.5,0.2,0.5,0.5
			S251,381.6,250.7,381.6z M244.9,381.6h-2.9c-0.3,0-0.5-0.2-0.5-0.5s0.2-0.5,0.5-0.5h2.9c0.3,0,0.5,0.2,0.5,0.5
			S245.1,381.6,244.9,381.6z M239,381.6h-2.9c-0.3,0-0.5-0.2-0.5-0.5s0.2-0.5,0.5-0.5h2.9c0.3,0,0.5,0.2,0.5,0.5
			S239.3,381.6,239,381.6z M233.1,381.6h-2.9c-0.3,0-0.5-0.2-0.5-0.5s0.2-0.5,0.5-0.5h2.9c0.3,0,0.5,0.2,0.5,0.5
			S233.4,381.6,233.1,381.6z M227.3,381.6h-2.9c-0.3,0-0.5-0.2-0.5-0.5s0.2-0.5,0.5-0.5h2.9c0.3,0,0.5,0.2,0.5,0.5
			S227.5,381.6,227.3,381.6z M221.4,381.6h-2.9c-0.3,0-0.5-0.2-0.5-0.5s0.2-0.5,0.5-0.5h2.9c0.3,0,0.5,0.2,0.5,0.5
			S221.7,381.6,221.4,381.6z M215.5,381.6h-2.9c-0.3,0-0.5-0.2-0.5-0.5s0.2-0.5,0.5-0.5h2.9c0.3,0,0.5,0.2,0.5,0.5
			S215.8,381.6,215.5,381.6z M209.7,381.6h-2.9c-0.3,0-0.5-0.2-0.5-0.5s0.2-0.5,0.5-0.5h2.9c0.3,0,0.5,0.2,0.5,0.5
			S209.9,381.6,209.7,381.6z M203.8,381.6h-2.9c-0.3,0-0.5-0.2-0.5-0.5s0.2-0.5,0.5-0.5h2.9c0.3,0,0.5,0.2,0.5,0.5
			S204.1,381.6,203.8,381.6z M197.9,381.6H195c-0.3,0-0.5-0.2-0.5-0.5s0.2-0.5,0.5-0.5h2.9c0.3,0,0.5,0.2,0.5,0.5
			S198.2,381.6,197.9,381.6z M192.1,381.6h-2.9c-0.3,0-0.5-0.2-0.5-0.5s0.2-0.5,0.5-0.5h2.9c0.3,0,0.5,0.2,0.5,0.5
			S192.3,381.6,192.1,381.6z M186.2,381.6h-2.9c-0.3,0-0.5-0.2-0.5-0.5s0.2-0.5,0.5-0.5h2.9c0.3,0,0.5,0.2,0.5,0.5
			S186.5,381.6,186.2,381.6z M180.3,381.6h-2.9c-0.3,0-0.5-0.2-0.5-0.5s0.2-0.5,0.5-0.5h2.9c0.3,0,0.5,0.2,0.5,0.5
			S180.6,381.6,180.3,381.6z M174.5,381.6h-2.9c-0.3,0-0.5-0.2-0.5-0.5s0.2-0.5,0.5-0.5h2.9c0.3,0,0.5,0.2,0.5,0.5
			S174.7,381.6,174.5,381.6z M168.6,381.6h-2.9c-0.3,0-0.5-0.2-0.5-0.5s0.2-0.5,0.5-0.5h2.9c0.3,0,0.5,0.2,0.5,0.5
			S168.8,381.6,168.6,381.6z M162.7,381.6h-2.9c-0.3,0-0.5-0.2-0.5-0.5s0.2-0.5,0.5-0.5h2.9c0.3,0,0.5,0.2,0.5,0.5
			S163,381.6,162.7,381.6z M156.9,381.6h-2.9c-0.3,0-0.5-0.2-0.5-0.5s0.2-0.5,0.5-0.5h2.9c0.3,0,0.5,0.2,0.5,0.5
			S157.1,381.6,156.9,381.6z"/>
	</g>
	<g>
		<path fill="#151F2C" d="M420.2,528.1h-2.6c-0.3,0-0.4-0.2-0.4-0.4c0-0.3,0.2-0.4,0.4-0.4h2.6c0.3,0,0.4,0.2,0.4,0.4
			C420.7,527.9,420.4,528.1,420.2,528.1z M415,528.1h-2.6c-0.3,0-0.4-0.2-0.4-0.4c0-0.3,0.2-0.4,0.4-0.4h2.6c0.3,0,0.4,0.2,0.4,0.4
			S415.3,528.1,415,528.1z M409.8,528.1h-2.6c-0.3,0-0.4-0.2-0.4-0.4c0-0.3,0.2-0.4,0.4-0.4h2.6c0.3,0,0.4,0.2,0.4,0.4
			S410,528.1,409.8,528.1z M404.6,528.1H402c-0.3,0-0.4-0.2-0.4-0.4c0-0.3,0.2-0.4,0.4-0.4h2.6c0.3,0,0.4,0.2,0.4,0.4
			S404.8,528.1,404.6,528.1z M399.4,528.1h-2.6c-0.3,0-0.4-0.2-0.4-0.4c0-0.3,0.2-0.4,0.4-0.4h2.6c0.3,0,0.4,0.2,0.4,0.4
			S399.6,528.1,399.4,528.1z M394.2,528.1h-2.6c-0.3,0-0.4-0.2-0.4-0.4c0-0.3,0.2-0.4,0.4-0.4h2.6c0.3,0,0.4,0.2,0.4,0.4
			S394.5,528.1,394.2,528.1z M389,528.1h-2.6c-0.3,0-0.4-0.2-0.4-0.4c0-0.3,0.2-0.4,0.4-0.4h2.6c0.3,0,0.4,0.2,0.4,0.4
			S389.2,528.1,389,528.1z M383.8,528.1h-2.6c-0.3,0-0.4-0.2-0.4-0.4c0-0.3,0.2-0.4,0.4-0.4h2.6c0.3,0,0.4,0.2,0.4,0.4
			C384.3,527.9,384,528.1,383.8,528.1z M378.6,528.1H376c-0.3,0-0.4-0.2-0.4-0.4c0-0.3,0.2-0.4,0.4-0.4h2.6c0.3,0,0.4,0.2,0.4,0.4
			S378.9,528.1,378.6,528.1z M373.4,528.1h-2.5c0,0-0.1,0-0.1,0c-0.3,0-0.4-0.2-0.4-0.5c0-0.3,0.2-0.4,0.5-0.4c0,0,0,0,0.1,0h2.5
			c0.3,0,0.4,0.2,0.4,0.4C373.8,527.9,373.6,528.1,373.4,528.1z M421.9,526.5L421.9,526.5c-0.3,0-0.4-0.2-0.4-0.4v0v-2.6
			c0-0.3,0.2-0.4,0.4-0.4c0.2,0,0.4,0.2,0.4,0.4v2.6C422.3,526.3,422.1,526.5,421.9,526.5z M369.2,526.4c-0.3,0-0.4-0.2-0.4-0.4
			v-2.6c0-0.3,0.2-0.4,0.4-0.4c0.3,0,0.4,0.2,0.4,0.4v2.6C369.6,526.2,369.4,526.4,369.2,526.4z M421.9,521.3
			c-0.3,0-0.4-0.2-0.4-0.4v-2.6c0-0.3,0.2-0.4,0.4-0.4c0.2,0,0.4,0.2,0.4,0.4v2.6C422.4,521.1,422.1,521.3,421.9,521.3z
			 M369.2,521.2c-0.3,0-0.4-0.2-0.4-0.4v-2.6c0-0.3,0.2-0.4,0.4-0.4c0.3,0,0.4,0.2,0.4,0.4v2.6C369.6,521,369.4,521.2,369.2,521.2z
			 M421.9,516.1c-0.3,0-0.4-0.2-0.4-0.4V513c0-0.3,0.2-0.4,0.4-0.4c0.2,0,0.4,0.2,0.4,0.4v2.6C422.4,515.9,422.1,516.1,421.9,516.1z
			 M369.2,516c-0.3,0-0.4-0.2-0.4-0.4V513c0,0,0,0,0-0.1c0-0.3,0.2-0.4,0.5-0.4c0.3,0,0.4,0.2,0.4,0.5v0v2.6
			C369.6,515.8,369.4,516,369.2,516z M420.3,511.8L420.3,511.8L420.3,511.8h-2.6c-0.3,0-0.4-0.2-0.4-0.4c0-0.3,0.2-0.4,0.4-0.4h2.5
			c0,0,0.1,0,0.1,0c0.3,0,0.4,0.2,0.4,0.5C420.7,511.6,420.5,511.8,420.3,511.8z M415.1,511.8h-2.6c-0.3,0-0.4-0.2-0.4-0.4
			c0-0.3,0.2-0.4,0.4-0.4h2.6c0.3,0,0.4,0.2,0.4,0.4C415.5,511.6,415.3,511.8,415.1,511.8z M409.9,511.8h-2.6
			c-0.3,0-0.4-0.2-0.4-0.4c0-0.3,0.2-0.4,0.4-0.4h2.6c0.3,0,0.4,0.2,0.4,0.4C410.3,511.6,410.1,511.8,409.9,511.8z M404.7,511.8
			h-2.6c-0.3,0-0.4-0.2-0.4-0.4c0-0.3,0.2-0.4,0.4-0.4h2.6c0.3,0,0.4,0.2,0.4,0.4C405.1,511.6,404.9,511.8,404.7,511.8z
			 M399.5,511.8h-2.6c-0.3,0-0.4-0.2-0.4-0.4c0-0.3,0.2-0.4,0.4-0.4h2.6c0.3,0,0.4,0.2,0.4,0.4C399.9,511.6,399.7,511.8,399.5,511.8
			z M394.3,511.8h-2.6c-0.3,0-0.4-0.2-0.4-0.4c0-0.3,0.2-0.4,0.4-0.4h2.6c0.3,0,0.4,0.2,0.4,0.4
			C394.7,511.6,394.5,511.8,394.3,511.8z M389.1,511.8h-2.6c-0.3,0-0.4-0.2-0.4-0.4c0-0.3,0.2-0.4,0.4-0.4h2.6
			c0.3,0,0.4,0.2,0.4,0.4C389.5,511.6,389.3,511.8,389.1,511.8z M383.9,511.8h-2.6c-0.3,0-0.4-0.2-0.4-0.4c0-0.3,0.2-0.4,0.4-0.4
			h2.6c0.3,0,0.4,0.2,0.4,0.4C384.3,511.6,384.1,511.8,383.9,511.8z M378.7,511.8h-2.6c-0.3,0-0.4-0.2-0.4-0.4
			c0-0.3,0.2-0.4,0.4-0.4h2.6c0.3,0,0.4,0.2,0.4,0.4C379.1,511.6,378.9,511.8,378.7,511.8z M373.5,511.8h-2.6
			c-0.3,0-0.4-0.2-0.4-0.4c0-0.3,0.2-0.4,0.4-0.4h2.6c0.3,0,0.4,0.2,0.4,0.4C373.9,511.6,373.7,511.8,373.5,511.8z"/>
	</g>
	<g>
		<path fill="#151F2C" d="M234.5,373h-2.9c-0.3,0-0.5-0.2-0.5-0.5s0.2-0.5,0.5-0.5h2.9c0.3,0,0.5,0.2,0.5,0.5
			C235,372.8,234.8,373,234.5,373z M228.8,373h-2.9c-0.3,0-0.5-0.2-0.5-0.5s0.2-0.5,0.5-0.5h2.9c0.3,0,0.5,0.2,0.5,0.5
			S229,373,228.8,373z M223,373h-2.9c-0.3,0-0.5-0.2-0.5-0.5s0.2-0.5,0.5-0.5h2.9c0.3,0,0.5,0.2,0.5,0.5S223.3,373,223,373z
			 M217.2,373h-2.9c-0.3,0-0.5-0.2-0.5-0.5s0.2-0.5,0.5-0.5h2.9c0.3,0,0.5,0.2,0.5,0.5C217.7,372.8,217.5,373,217.2,373z M211.5,373
			h-2.9c-0.3,0-0.5-0.2-0.5-0.5s0.2-0.5,0.5-0.5h2.9c0.3,0,0.5,0.2,0.5,0.5S211.7,373,211.5,373z M205.8,373h-2.9
			c-0.3,0-0.5-0.2-0.5-0.5s0.2-0.5,0.5-0.5h2.9c0.3,0,0.5,0.2,0.5,0.5S206,373,205.8,373z M200,373h-2.9c-0.3,0-0.5-0.2-0.5-0.5
			s0.2-0.5,0.5-0.5h2.9c0.3,0,0.5,0.2,0.5,0.5C200.5,372.8,200.3,373,200,373z M194.3,372.6c-0.1,0-0.2,0-0.3,0
			c-0.9-0.5-1.4-1.5-1.4-2.5v-0.3c0-0.3,0.2-0.5,0.5-0.5c0.3,0,0.5,0.2,0.5,0.5v0.3c0,0.7,0.4,1.3,1,1.7c0.2,0.1,0.3,0.4,0.2,0.7
			C194.6,372.6,194.4,372.6,194.3,372.6z M236.8,371.4c0,0-0.1,0-0.2,0c-0.3-0.1-0.4-0.4-0.3-0.6c0.1-0.2,0.1-0.4,0.1-0.7v-2
			c0-0.3,0.2-0.5,0.5-0.5s0.5,0.2,0.5,0.5v2c0,0.3,0,0.7-0.2,1C237.1,371.3,236.9,371.4,236.8,371.4z M193.1,367.4
			c-0.3,0-0.5-0.2-0.5-0.5V364c0-0.3,0.2-0.5,0.5-0.5s0.5,0.2,0.5,0.5v2.9C193.6,367.1,193.3,367.4,193.1,367.4z M236.9,365.7
			c-0.3,0-0.5-0.2-0.5-0.5v-2.9c0-0.3,0.2-0.5,0.5-0.5s0.5,0.2,0.5,0.5v2.9C237.4,365.5,237.2,365.7,236.9,365.7z M193.1,361.6
			c-0.3,0-0.5-0.2-0.5-0.5v-2.9c0-0.3,0.2-0.5,0.5-0.5s0.5,0.2,0.5,0.5v2.9C193.6,361.4,193.3,361.6,193.1,361.6z M236.9,359.9
			c-0.3,0-0.5-0.2-0.5-0.5v-2.9c0-0.3,0.2-0.5,0.5-0.5s0.5,0.2,0.5,0.5v2.9C237.4,359.7,237.2,359.9,236.9,359.9z M193.1,355.8
			c-0.3,0-0.5-0.2-0.5-0.5v-2.9c0-0.3,0.2-0.5,0.5-0.5s0.5,0.2,0.5,0.5v2.9C193.6,355.6,193.3,355.8,193.1,355.8z M236.9,354.2
			c-0.3,0-0.5-0.2-0.5-0.5v-2.9c0-0.3,0.2-0.5,0.5-0.5s0.5,0.2,0.5,0.5v2.9C237.4,354,237.2,354.2,236.9,354.2z M193.1,350.1
			c-0.3,0-0.5-0.2-0.5-0.5v-2.9c0-0.3,0.2-0.5,0.5-0.5s0.5,0.2,0.5,0.5v2.9C193.6,349.9,193.3,350.1,193.1,350.1z M236.9,348.4
			c-0.3,0-0.5-0.2-0.5-0.5v-2.9c0-0.3,0.2-0.5,0.5-0.5s0.5,0.2,0.5,0.5v2.9C237.4,348.2,237.2,348.4,236.9,348.4z M193.1,344.3
			c-0.3,0-0.5-0.2-0.5-0.5V341c0-0.3,0.2-0.5,0.5-0.5s0.5,0.2,0.5,0.5v2.9C193.6,344.1,193.3,344.3,193.1,344.3z M236.9,342.7
			c-0.3,0-0.5-0.2-0.5-0.5v-2.9c0-0.3,0.2-0.5,0.5-0.5s0.5,0.2,0.5,0.5v2.9C237.4,342.5,237.2,342.7,236.9,342.7z M193.1,338.6
			c-0.3,0-0.5-0.2-0.5-0.5v-2c0-0.3,0-0.7,0.2-1c0.1-0.3,0.4-0.4,0.6-0.3c0.3,0.1,0.4,0.4,0.3,0.6c-0.1,0.2-0.1,0.4-0.1,0.7v2
			C193.6,338.4,193.3,338.6,193.1,338.6z M236.9,336.9c-0.3,0-0.5-0.2-0.5-0.5v-0.3c0-0.7-0.4-1.3-1-1.7c-0.2-0.1-0.3-0.4-0.2-0.7
			c0.1-0.2,0.4-0.3,0.7-0.2c0.9,0.5,1.5,1.5,1.5,2.5v0.3C237.4,336.7,237.2,336.9,236.9,336.9z M232.8,334.2h-2.9
			c-0.3,0-0.5-0.2-0.5-0.5s0.2-0.5,0.5-0.5h2.9c0.3,0,0.5,0.2,0.5,0.5S233.1,334.2,232.8,334.2z M227.1,334.2h-2.9
			c-0.3,0-0.5-0.2-0.5-0.5s0.2-0.5,0.5-0.5h2.9c0.3,0,0.5,0.2,0.5,0.5S227.4,334.2,227.1,334.2z M221.4,334.2h-2.9
			c-0.3,0-0.5-0.2-0.5-0.5s0.2-0.5,0.5-0.5h2.9c0.3,0,0.5,0.2,0.5,0.5S221.6,334.2,221.4,334.2z M215.6,334.2h-2.9
			c-0.3,0-0.5-0.2-0.5-0.5s0.2-0.5,0.5-0.5h2.9c0.3,0,0.5,0.2,0.5,0.5S215.9,334.2,215.6,334.2z M209.8,334.2h-2.9
			c-0.3,0-0.5-0.2-0.5-0.5s0.2-0.5,0.5-0.5h2.9c0.3,0,0.5,0.2,0.5,0.5S210.1,334.2,209.8,334.2z M204.1,334.2h-2.9
			c-0.3,0-0.5-0.2-0.5-0.5s0.2-0.5,0.5-0.5h2.9c0.3,0,0.5,0.2,0.5,0.5S204.4,334.2,204.1,334.2z M198.3,334.2h-2.8
			c-0.3,0-0.5-0.2-0.5-0.5s0.2-0.5,0.5-0.5h2.9c0.3,0,0.5,0.2,0.5,0.5S198.6,334.2,198.3,334.2z"/>
	</g>
	<g>
		<path fill="#151F2C" d="M420.2,552.1h-2.6c-0.3,0-0.4-0.2-0.4-0.4c0-0.3,0.2-0.4,0.4-0.4h2.6c0.3,0,0.4,0.2,0.4,0.4
			C420.7,551.9,420.4,552.1,420.2,552.1z M415,552.1h-2.6c-0.3,0-0.4-0.2-0.4-0.4c0-0.3,0.2-0.4,0.4-0.4h2.6c0.3,0,0.4,0.2,0.4,0.4
			C415.4,551.9,415.3,552.1,415,552.1z M409.8,552.1h-2.6c-0.3,0-0.4-0.2-0.4-0.4c0-0.3,0.2-0.4,0.4-0.4h2.6c0.3,0,0.4,0.2,0.4,0.4
			C410.2,551.9,410,552.1,409.8,552.1z M404.6,552.1H402c-0.3,0-0.4-0.2-0.4-0.4c0-0.3,0.2-0.4,0.4-0.4h2.6c0.3,0,0.4,0.2,0.4,0.4
			C405,551.9,404.8,552.1,404.6,552.1z M399.4,552.1h-2.6c-0.3,0-0.4-0.2-0.4-0.4c0-0.3,0.2-0.4,0.4-0.4h2.6c0.3,0,0.4,0.2,0.4,0.4
			C399.8,551.9,399.6,552.1,399.4,552.1z M394.2,552.1h-2.6c-0.3,0-0.4-0.2-0.4-0.4c0-0.3,0.2-0.4,0.4-0.4h2.6
			c0.3,0,0.4,0.2,0.4,0.4C394.6,551.9,394.5,552.1,394.2,552.1z M389,552.1h-2.6c-0.3,0-0.4-0.2-0.4-0.4c0-0.3,0.2-0.4,0.4-0.4h2.6
			c0.3,0,0.4,0.2,0.4,0.4C389.4,551.9,389.2,552.1,389,552.1z M383.8,552.1h-2.6c-0.3,0-0.4-0.2-0.4-0.4c0-0.3,0.2-0.4,0.4-0.4h2.6
			c0.3,0,0.4,0.2,0.4,0.4C384.3,551.9,384,552.1,383.8,552.1z M378.6,552.1H376c-0.3,0-0.4-0.2-0.4-0.4c0-0.3,0.2-0.4,0.4-0.4h2.6
			c0.3,0,0.4,0.2,0.4,0.4C379,551.9,378.9,552.1,378.6,552.1z M373.4,552.1h-2.5c0,0-0.1,0-0.1,0c-0.3,0-0.4-0.2-0.4-0.5
			s0.2-0.4,0.5-0.4c0,0,0,0,0.1,0h2.5c0.3,0,0.4,0.2,0.4,0.4C373.8,551.9,373.6,552.1,373.4,552.1z M421.9,550.5L421.9,550.5
			c-0.3,0-0.4-0.2-0.4-0.4v0v-2.6c0-0.3,0.2-0.4,0.4-0.4c0.2,0,0.4,0.2,0.4,0.4v2.6C422.3,550.3,422.1,550.5,421.9,550.5z
			 M369.2,550.4c-0.3,0-0.4-0.2-0.4-0.4v-2.6c0-0.3,0.2-0.4,0.4-0.4c0.3,0,0.4,0.2,0.4,0.4v2.6C369.6,550.2,369.4,550.4,369.2,550.4
			z M421.9,545.3c-0.3,0-0.4-0.2-0.4-0.4v-2.6c0-0.3,0.2-0.4,0.4-0.4c0.2,0,0.4,0.2,0.4,0.4v2.6
			C422.4,545.1,422.1,545.3,421.9,545.3z M369.2,545.2c-0.3,0-0.4-0.2-0.4-0.4v-2.6c0-0.3,0.2-0.4,0.4-0.4c0.3,0,0.4,0.2,0.4,0.4
			v2.6C369.6,545,369.4,545.2,369.2,545.2z M421.9,540.1c-0.3,0-0.4-0.2-0.4-0.4V537c0-0.3,0.2-0.4,0.4-0.4c0.2,0,0.4,0.2,0.4,0.4
			v2.6C422.4,539.9,422.1,540.1,421.9,540.1z M369.2,540c-0.3,0-0.4-0.2-0.4-0.4V537c0,0,0,0,0-0.1c0-0.3,0.2-0.4,0.5-0.4
			c0.3,0,0.4,0.2,0.4,0.5v0v2.6C369.6,539.8,369.4,540,369.2,540z M420.3,535.7L420.3,535.7L420.3,535.7h-2.6
			c-0.3,0-0.4-0.2-0.4-0.4c0-0.3,0.2-0.4,0.4-0.4h2.5c0,0,0.1,0,0.1,0c0.3,0,0.4,0.2,0.4,0.5C420.7,535.6,420.5,535.7,420.3,535.7z
			 M415.1,535.7h-2.6c-0.3,0-0.4-0.2-0.4-0.4c0-0.3,0.2-0.4,0.4-0.4h2.6c0.3,0,0.4,0.2,0.4,0.4C415.5,535.6,415.3,535.7,415.1,535.7
			z M409.9,535.7h-2.6c-0.3,0-0.4-0.2-0.4-0.4c0-0.3,0.2-0.4,0.4-0.4h2.6c0.3,0,0.4,0.2,0.4,0.4
			C410.3,535.6,410.1,535.7,409.9,535.7z M404.7,535.7h-2.6c-0.3,0-0.4-0.2-0.4-0.4c0-0.3,0.2-0.4,0.4-0.4h2.6
			c0.3,0,0.4,0.2,0.4,0.4C405.1,535.6,404.9,535.7,404.7,535.7z M399.5,535.7h-2.6c-0.3,0-0.4-0.2-0.4-0.4c0-0.3,0.2-0.4,0.4-0.4
			h2.6c0.3,0,0.4,0.2,0.4,0.4C399.9,535.6,399.7,535.7,399.5,535.7z M394.3,535.7h-2.6c-0.3,0-0.4-0.2-0.4-0.4
			c0-0.3,0.2-0.4,0.4-0.4h2.6c0.3,0,0.4,0.2,0.4,0.4C394.7,535.6,394.5,535.7,394.3,535.7z M389.1,535.7h-2.6
			c-0.3,0-0.4-0.2-0.4-0.4c0-0.3,0.2-0.4,0.4-0.4h2.6c0.3,0,0.4,0.2,0.4,0.4C389.5,535.6,389.3,535.7,389.1,535.7z M383.9,535.7
			h-2.6c-0.3,0-0.4-0.2-0.4-0.4c0-0.3,0.2-0.4,0.4-0.4h2.6c0.3,0,0.4,0.2,0.4,0.4C384.3,535.6,384.1,535.7,383.9,535.7z
			 M378.7,535.7h-2.6c-0.3,0-0.4-0.2-0.4-0.4c0-0.3,0.2-0.4,0.4-0.4h2.6c0.3,0,0.4,0.2,0.4,0.4C379.1,535.6,378.9,535.7,378.7,535.7
			z M373.5,535.7h-2.6c-0.3,0-0.4-0.2-0.4-0.4c0-0.3,0.2-0.4,0.4-0.4h2.6c0.3,0,0.4,0.2,0.4,0.4
			C373.9,535.6,373.7,535.7,373.5,535.7z"/>
	</g>
	<g>
		<path fill="#151F2C" d="M215.1,534h-2.6c-0.3,0-0.4-0.2-0.4-0.4c0-0.2,0.2-0.4,0.4-0.4h2.6c0.3,0,0.4,0.2,0.4,0.4
			C215.5,533.8,215.3,534,215.1,534z M209.9,534h-2.6c-0.3,0-0.4-0.2-0.4-0.4c0-0.2,0.2-0.4,0.4-0.4h2.6c0.3,0,0.4,0.2,0.4,0.4
			C210.3,533.8,210.1,534,209.9,534z M204.7,534h-2.6c-0.3,0-0.4-0.2-0.4-0.4c0-0.2,0.2-0.4,0.4-0.4h2.6c0.3,0,0.4,0.2,0.4,0.4
			C205.2,533.8,204.9,534,204.7,534z M199.6,534H197c-0.3,0-0.4-0.2-0.4-0.4c0-0.2,0.2-0.4,0.4-0.4h2.6c0.3,0,0.4,0.2,0.4,0.4
			C200,533.8,199.8,534,199.6,534z M194.4,534h-2.6c-0.3,0-0.4-0.2-0.4-0.4c0-0.2,0.2-0.4,0.4-0.4h2.6c0.3,0,0.4,0.2,0.4,0.4
			C194.8,533.8,194.7,534,194.4,534z M189.3,534h-2.6c-0.3,0-0.4-0.2-0.4-0.4c0-0.2,0.2-0.4,0.4-0.4h2.6c0.3,0,0.4,0.2,0.4,0.4
			C189.7,533.8,189.5,534,189.3,534z M184.1,534h-2.6c-0.3,0-0.4-0.2-0.4-0.4c0-0.2,0.2-0.4,0.4-0.4h2.6c0.3,0,0.4,0.2,0.4,0.4
			C184.5,533.8,184.4,534,184.1,534z M179,534h-2.6c-0.3,0-0.4-0.2-0.4-0.4c0-0.2,0.2-0.4,0.4-0.4h2.6c0.3,0,0.4,0.2,0.4,0.4
			C179.4,533.8,179.2,534,179,534z M173.8,534h-2.6c-0.3,0-0.4-0.2-0.4-0.4c0-0.2,0.2-0.4,0.4-0.4h2.6c0.3,0,0.4,0.2,0.4,0.4
			C174.2,533.8,174,534,173.8,534z M168.6,534H166c-0.3,0-0.4-0.2-0.4-0.4c0-0.2,0.2-0.4,0.4-0.4h2.6c0.3,0,0.4,0.2,0.4,0.4
			C169.1,533.8,168.9,534,168.6,534z M163.5,534h-2.6c-0.3,0-0.4-0.2-0.4-0.4c0-0.2,0.2-0.4,0.4-0.4h2.6c0.3,0,0.4,0.2,0.4,0.4
			C163.9,533.8,163.7,534,163.5,534z M158.3,534h-2.6c-0.3,0-0.4-0.2-0.4-0.4c0-0.2,0.2-0.4,0.4-0.4h2.6c0.3,0,0.4,0.2,0.4,0.4
			C158.8,533.8,158.6,534,158.3,534z M153.2,534h-2.6c-0.3,0-0.4-0.2-0.4-0.4c0-0.2,0.2-0.4,0.4-0.4h2.6c0.3,0,0.4,0.2,0.4,0.4
			C153.6,533.8,153.4,534,153.2,534z M148,534h-2.6c-0.3,0-0.4-0.2-0.4-0.4c0-0.2,0.2-0.4,0.4-0.4h2.6c0.3,0,0.4,0.2,0.4,0.4
			C148.4,533.8,148.3,534,148,534z M142.9,534h-2.6c-0.3,0-0.4-0.2-0.4-0.4c0-0.2,0.2-0.4,0.4-0.4h2.6c0.3,0,0.4,0.2,0.4,0.4
			C143.3,533.8,143.1,534,142.9,534z M137.7,534h-2.1c-0.2,0-0.4,0-0.6,0c-0.3,0-0.4-0.3-0.4-0.5c0-0.3,0.3-0.4,0.5-0.4
			c0.2,0,0.3,0,0.5,0h2c0.3,0,0.4,0.2,0.4,0.4C138.1,533.8,137.9,534,137.7,534z M217.5,533.3c-0.1,0-0.3-0.1-0.3-0.2
			c-0.1-0.2-0.1-0.5,0.1-0.6c0.6-0.4,1.1-1.1,1.4-1.8c0.1-0.2,0.3-0.3,0.6-0.2c0.2,0.1,0.3,0.3,0.2,0.6c-0.4,0.9-1,1.6-1.8,2.2
			C217.7,533.3,217.6,533.3,217.5,533.3z M132.8,533c-0.1,0-0.2,0-0.3-0.1c-0.7-0.6-1.2-1.4-1.5-2.3c-0.1-0.2,0.1-0.5,0.3-0.6
			c0.2-0.1,0.5,0.1,0.6,0.3c0.2,0.8,0.6,1.4,1.2,1.9c0.2,0.2,0.2,0.4,0,0.6C133,532.9,132.9,533,132.8,533z M219.4,528.8
			c-0.3,0-0.4-0.2-0.4-0.4v-2.6c0-0.3,0.2-0.4,0.4-0.4c0.3,0,0.4,0.2,0.4,0.4v2.6C219.9,528.6,219.7,528.8,219.4,528.8z
			 M131.3,528.3c-0.3,0-0.4-0.2-0.4-0.4v-2.6c0-0.3,0.2-0.4,0.4-0.4c0.3,0,0.4,0.2,0.4,0.4v2.6C131.7,528.1,131.5,528.3,131.3,528.3
			z M219.4,523.6c-0.3,0-0.4-0.2-0.4-0.4v-2.6c0-0.3,0.2-0.4,0.4-0.4c0.3,0,0.4,0.2,0.4,0.4v2.6
			C219.9,523.5,219.7,523.6,219.4,523.6z M131.3,523.1c-0.3,0-0.4-0.2-0.4-0.4v-2.6c0-0.3,0.2-0.4,0.4-0.4c0.3,0,0.4,0.2,0.4,0.4
			v2.6C131.7,523,131.5,523.1,131.3,523.1z M219.4,518.5c-0.3,0-0.4-0.2-0.4-0.4v-2.6c0-0.3,0.2-0.4,0.4-0.4c0.3,0,0.4,0.2,0.4,0.4
			v2.6C219.9,518.3,219.7,518.5,219.4,518.5z M131.3,518c-0.3,0-0.4-0.2-0.4-0.4V515c0-0.3,0.2-0.4,0.4-0.4c0.3,0,0.4,0.2,0.4,0.4
			v2.6C131.7,517.8,131.5,518,131.3,518z M219.4,513.3c-0.3,0-0.4-0.2-0.4-0.4v-2.6c0-0.3,0.2-0.4,0.4-0.4c0.3,0,0.4,0.2,0.4,0.4
			v2.6C219.9,513.1,219.7,513.3,219.4,513.3z M131.3,512.8c-0.3,0-0.4-0.2-0.4-0.4v-2.6c0-0.3,0.2-0.4,0.4-0.4
			c0.3,0,0.4,0.2,0.4,0.4v2.6C131.7,512.6,131.5,512.8,131.3,512.8z M219.4,508.2c-0.3,0-0.4-0.2-0.4-0.4v-2.6
			c0-0.3,0.2-0.4,0.4-0.4c0.3,0,0.4,0.2,0.4,0.4v2.6C219.9,508,219.7,508.2,219.4,508.2z M131.3,507.7c-0.3,0-0.4-0.2-0.4-0.4v-2.6
			c0-0.3,0.2-0.4,0.4-0.4c0.3,0,0.4,0.2,0.4,0.4v2.6C131.7,507.5,131.5,507.7,131.3,507.7z M219.4,503c-0.3,0-0.4-0.2-0.4-0.4V500
			c0-0.3,0.2-0.4,0.4-0.4c0.3,0,0.4,0.2,0.4,0.4v2.6C219.9,502.8,219.7,503,219.4,503z M131.3,502.5c-0.3,0-0.4-0.2-0.4-0.4v-2.6
			c0-0.3,0.2-0.4,0.4-0.4c0.3,0,0.4,0.2,0.4,0.4v2.6C131.7,502.3,131.5,502.5,131.3,502.5z M219.4,497.9c-0.3,0-0.4-0.2-0.4-0.4
			v-2.6c0-0.3,0.2-0.4,0.4-0.4c0.3,0,0.4,0.2,0.4,0.4v2.6C219.9,497.7,219.7,497.9,219.4,497.9z M131.3,497.4
			c-0.3,0-0.4-0.2-0.4-0.4v-2.6c0-0.3,0.2-0.4,0.4-0.4c0.3,0,0.4,0.2,0.4,0.4v2.6C131.7,497.2,131.5,497.4,131.3,497.4z
			 M219.4,492.7c-0.3,0-0.4-0.2-0.4-0.4v-2.6c0-0.3,0.2-0.4,0.4-0.4c0.3,0,0.4,0.2,0.4,0.4v2.6C219.9,492.5,219.7,492.7,219.4,492.7
			z M131.3,492.2c-0.3,0-0.4-0.2-0.4-0.4v-2.6c0-0.3,0.2-0.4,0.4-0.4c0.3,0,0.4,0.2,0.4,0.4v2.6C131.7,492,131.5,492.2,131.3,492.2z
			 M219.4,487.6c-0.3,0-0.4-0.2-0.4-0.4v-2.6c0-0.3,0.2-0.4,0.4-0.4c0.3,0,0.4,0.2,0.4,0.4v2.6C219.9,487.4,219.7,487.6,219.4,487.6
			z M131.3,487.1c-0.3,0-0.4-0.2-0.4-0.4V484c0-0.3,0.2-0.4,0.4-0.4c0.3,0,0.4,0.2,0.4,0.4v2.6C131.7,486.9,131.5,487.1,131.3,487.1
			z M219.4,482.4c-0.3,0-0.4-0.2-0.4-0.4v-2.6c0-0.3,0.2-0.4,0.4-0.4c0.3,0,0.4,0.2,0.4,0.4v2.6
			C219.9,482.2,219.7,482.4,219.4,482.4z M131.3,481.9c-0.3,0-0.4-0.2-0.4-0.4v-2.6c0-0.3,0.2-0.4,0.4-0.4c0.3,0,0.4,0.2,0.4,0.4
			v2.6C131.7,481.7,131.5,481.9,131.3,481.9z M219.4,477.2c-0.3,0-0.4-0.2-0.4-0.4v-2.6c0-0.3,0.2-0.4,0.4-0.4
			c0.3,0,0.4,0.2,0.4,0.4v2.6C219.9,477.1,219.7,477.2,219.4,477.2z M131.3,476.7c-0.3,0-0.4-0.2-0.4-0.4v-2.6
			c0-0.3,0.2-0.4,0.4-0.4c0.3,0,0.4,0.2,0.4,0.4v2.6C131.7,476.6,131.5,476.7,131.3,476.7z M219.3,472.1c-0.2,0-0.3-0.1-0.4-0.3
			c-0.2-0.8-0.6-1.4-1.2-1.9c-0.2-0.2-0.2-0.4,0-0.6c0.2-0.2,0.4-0.2,0.6,0c0.7,0.6,1.2,1.4,1.5,2.3c0.1,0.2-0.1,0.5-0.3,0.6
			C219.3,472.1,219.3,472.1,219.3,472.1z M131.6,471.6c0,0-0.1,0-0.2,0c-0.2-0.1-0.3-0.3-0.2-0.6c0.4-0.9,1-1.6,1.8-2.2
			c0.2-0.1,0.5-0.1,0.6,0.1c0.1,0.2,0.1,0.5-0.1,0.6c-0.6,0.4-1.1,1.1-1.4,1.8C131.9,471.5,131.8,471.6,131.6,471.6z M215.5,469
			L215.5,469c-0.2,0-0.3,0-0.5,0h-2.1c-0.3,0-0.4-0.2-0.4-0.4c0-0.3,0.2-0.4,0.4-0.4h2.1c0.2,0,0.4,0,0.6,0c0.3,0,0.4,0.3,0.4,0.5
			C216,468.8,215.7,469,215.5,469z M210.4,469h-2.6c-0.3,0-0.4-0.2-0.4-0.4c0-0.3,0.2-0.4,0.4-0.4h2.6c0.3,0,0.4,0.2,0.4,0.4
			C210.8,468.7,210.6,469,210.4,469z M205.2,469h-2.6c-0.3,0-0.4-0.2-0.4-0.4c0-0.3,0.2-0.4,0.4-0.4h2.6c0.3,0,0.4,0.2,0.4,0.4
			C205.7,468.7,205.5,469,205.2,469z M200.1,469h-2.6c-0.3,0-0.4-0.2-0.4-0.4c0-0.3,0.2-0.4,0.4-0.4h2.6c0.3,0,0.4,0.2,0.4,0.4
			C200.5,468.7,200.3,469,200.1,469z M194.9,469h-2.6c-0.3,0-0.4-0.2-0.4-0.4c0-0.3,0.2-0.4,0.4-0.4h2.6c0.3,0,0.4,0.2,0.4,0.4
			C195.4,468.7,195.2,469,194.9,469z M189.8,469h-2.6c-0.3,0-0.4-0.2-0.4-0.4c0-0.3,0.2-0.4,0.4-0.4h2.6c0.3,0,0.4,0.2,0.4,0.4
			C190.2,468.7,190,469,189.8,469z M184.6,469H182c-0.3,0-0.4-0.2-0.4-0.4c0-0.3,0.2-0.4,0.4-0.4h2.6c0.3,0,0.4,0.2,0.4,0.4
			C185,468.7,184.9,469,184.6,469z M179.5,469h-2.6c-0.3,0-0.4-0.2-0.4-0.4c0-0.3,0.2-0.4,0.4-0.4h2.6c0.3,0,0.4,0.2,0.4,0.4
			C179.9,468.7,179.7,469,179.5,469z M174.3,469h-2.6c-0.3,0-0.4-0.2-0.4-0.4c0-0.3,0.2-0.4,0.4-0.4h2.6c0.3,0,0.4,0.2,0.4,0.4
			C174.8,468.7,174.5,469,174.3,469z M169.1,469h-2.6c-0.3,0-0.4-0.2-0.4-0.4c0-0.3,0.2-0.4,0.4-0.4h2.6c0.3,0,0.4,0.2,0.4,0.4
			C169.6,468.7,169.4,469,169.1,469z M164,469h-2.6c-0.3,0-0.4-0.2-0.4-0.4c0-0.3,0.2-0.4,0.4-0.4h2.6c0.3,0,0.4,0.2,0.4,0.4
			C164.4,468.7,164.3,469,164,469z M158.9,469h-2.6c-0.3,0-0.4-0.2-0.4-0.4c0-0.3,0.2-0.4,0.4-0.4h2.6c0.3,0,0.4,0.2,0.4,0.4
			C159.3,468.7,159.1,469,158.9,469z M153.7,469h-2.6c-0.3,0-0.4-0.2-0.4-0.4c0-0.3,0.2-0.4,0.4-0.4h2.6c0.3,0,0.4,0.2,0.4,0.4
			C154.1,468.7,153.9,469,153.7,469z M148.5,469h-2.6c-0.3,0-0.4-0.2-0.4-0.4c0-0.3,0.2-0.4,0.4-0.4h2.6c0.3,0,0.4,0.2,0.4,0.4
			C148.9,468.7,148.8,469,148.5,469z M143.4,469h-2.6c-0.3,0-0.4-0.2-0.4-0.4c0-0.3,0.2-0.4,0.4-0.4h2.6c0.3,0,0.4,0.2,0.4,0.4
			C143.8,468.7,143.6,469,143.4,469z M138.2,469h-2.6c-0.3,0-0.4-0.2-0.4-0.4c0-0.3,0.2-0.4,0.4-0.4h2.6c0.3,0,0.4,0.2,0.4,0.4
			C138.7,468.7,138.4,469,138.2,469z"/>
	</g>
	<g>
		<path fill="#E9E9E9" d="M240.1,455H135.9c-2.3,0-4.1-1.8-4.1-4.1v-57c0-2.3,1.8-4.1,4.1-4.1h104.2c2.3,0,4.1,1.8,4.1,4.1v57
			C244.2,453.2,242.4,455,240.1,455z"/>
		<path fill="#43A1F6" d="M175.4,409.6v25.8c0,1.6,1.8,2.6,3.1,1.7l19.6-12.9c1.2-0.8,1.2-2.6,0-3.4l-19.6-12.9
			C177.1,407,175.4,408,175.4,409.6z"/>
		<g>
			<circle fill="#AEC3FF" cx="139.7" cy="449.2" r="2"/>
			<path fill="#AEC3FF" d="M231.4,449.7h-91.2c-0.3,0-0.6-0.3-0.6-0.6l0,0c0-0.3,0.3-0.6,0.6-0.6h91.2c0.3,0,0.6,0.3,0.6,0.6l0,0
				C232,449.5,231.7,449.7,231.4,449.7z"/>
		</g>
	</g>
	<rect x="236.9" y="468.5" fill="#E9E9E9" width="58.1" height="86.7"/>
	<g>
		<g>
			<g>
				<path fill="#384152" d="M271.5,496.4h-0.8v-3.6c0-1.3,1.1-2.3,2.3-2.3h9.8c0.7,0,1.3-0.5,1.5-1.1l1.6-5.9c0.1-0.5,0-0.9-0.3-1.3
					c-0.3-0.4-0.7-0.6-1.2-0.6h-12.8v-0.8h12.8c0.7,0,1.4,0.3,1.8,0.9c0.4,0.6,0.6,1.3,0.4,2l-1.6,5.9c-0.3,1-1.2,1.7-2.3,1.7h-9.8
					c-0.9,0-1.5,0.7-1.5,1.5L271.5,496.4L271.5,496.4z"/>
			</g>
			<path fill="#43A1F6" d="M280.8,484.5h-16.9c-1.4,0-2.6-1.1-2.6-2.6v-1.5c0-1.4,1.1-2.6,2.6-2.6h16.9c1.4,0,2.6,1.1,2.6,2.6v1.5
				C283.4,483.3,282.2,484.5,280.8,484.5z"/>
			<path fill="#384152" d="M271.1,511.2L271.1,511.2c-1.2,0-2.2-1-2.2-2.2v-13.3c0-1.2,1-2.2,2.2-2.2l0,0c1.2,0,2.2,1,2.2,2.2V509
				C273.3,510.2,272.3,511.2,271.1,511.2z"/>
		</g>
		<g>
			<path fill="#EE805F" d="M354.8,539.9c0,0,1.5,4.6,1.4,5.7s-1.1,4.7-1.7,5.6c-0.7,0.9-1-3.8-1.5-4.5c-0.6-0.7-0.1,1.8-0.5,2
				c-0.4,0.2-1.1-1.8-1.5-2.6c-0.3-0.7,0.8-3.4,0.8-5.2C351.7,539.1,354.8,539.9,354.8,539.9z"/>
			<path fill="#151F2C" d="M319.4,503.1c-0.4-5.3,5.4-9,9.9-6.2c0.1,0,0.2,0.1,0.3,0.2c6.8,4.4,21.5,24.9,22.5,26.9
				c1,2,4,18.4,4,18.4s-3.7,1.4-5.4,0c0,0-6-15.5-6.9-16.2c-0.9-0.8-23.9-13.7-24.2-18.6C319.6,506.3,319.5,504.7,319.4,503.1z"/>
		</g>
		<g>
			<path fill="#2A4A7C" d="M360.6,623c0,0,2.8,2.5,2.2,4.3c-0.6,1.8-3,3-3.4,5.1c-0.3,2.2-1.7,3.4-2.9,3.4c-1.2,0-5.7,0-5.7,0
				s-0.9-1.5,1.3-2c2.1-0.5,2.9-3,2.8-5.4c-0.1-2.4,0.2-5.5,0.2-5.5l4.5-1.1L360.6,623z"/>
			<path fill="#2A4A7C" d="M326.9,629.5c0,0,0.5,5.7-0.7,6.3l-15.4,0c0,0,0-1.8,2.5-2.2s6.8-1.8,7.6-5.1
				C321.5,625.3,326.9,629.5,326.9,629.5z"/>
			<path fill="#43A1F6" d="M313.8,548.8c0,0,0.8,10,1.8,22c1.3,16.3,2.8,36.4,3,40.2c0.3,6.6,1.4,17.2,1.4,17.2s2.6,2.5,7.7,1.4
				c0,0,4.5-15.1,5.8-31c0-0.3,0-0.5,0-0.8c1.2-16.2,3.1-50.4,3.1-50.4L313.8,548.8z"/>
			<path fill="#2B6EB2" d="M313.8,548.8c0,0,0.8,10,1.8,22l17.9,27.8c0-0.3,0-0.5,0-0.8c1.2-16.2,3.1-50.4,3.1-50.4L313.8,548.8z"/>
			<path fill="#43A1F6" d="M317.5,550c0,0,14.7,36.3,24.4,53.3c9.7,17.1,12.7,21.8,12.7,21.8s5.5-2.2,6-3.7c0,0-3.7-32.9-10.2-40.9
				c-3.7-4.5-8-18.1-8.2-22.9c-0.2-4.8-1.3-14.2-1.3-14.2L317.5,550z"/>
		</g>
		<path fill="#EE805F" d="M330.2,495.7c0,0-9.8,5-15.6,3.3c0,0,1.4-1.8,3.8-3.2c-0.2-1.1-0.4-2.1-0.5-3c-0.3-2-0.3-3.1-0.3-3.1
			l3.8-3.1l3.6-3C324.8,491.8,330.2,495.7,330.2,495.7z"/>
		<path fill="#384152" d="M339.9,546.4c-4,2.4-7.7,4.2-12.1,5.2c-5.2,1.2-11.6,0.9-13.7,1.2c-0.2,0-0.4,0-0.6-0.2
			c-0.2-0.1-1.1-6.4-2-14.4c0-0.3-0.1-0.6-0.1-1v-0.1c-0.4-3.1-0.7-6.4-1-9.7c-0.2-2.6-0.4-5.1-0.6-7.5c-0.2-3-0.2-5.7-0.2-8
			c0-1,0.1-2,0.2-2.8c0.6-4.7,2.8-8,4.9-10.5l1.7-2c2,0.1,4.1-0.3,6-1.5c2.1-1.4,4.4-2.9,4.8-2.6c3.3,1.8,5.9,6.4,7.8,12.5
			c1.1,3.5,1.9,7.5,2.5,11.7c0.2,1.3,0.3,2.6,0.4,4c0,0.3,0,0.5,0,0.7c0.3,3.7,0.7,7.1,1.1,10.1c0.6,4.1,1.3,7.6,1.8,10
			c0.3,1.2,0.4,2.2,0.6,2.9C341.7,545.2,340.5,546,339.9,546.4z"/>
		<path fill="#DE6B4D" d="M325.1,486.8c0,0-2.4,4.6-7.2,6c-0.3-2-0.3-3.1-0.3-3.1l3.8-3.1L325.1,486.8z"/>
		<path fill="#EE805F" d="M315.8,489.7c0,0,9.5,1.4,10.3-4.5c0.8-5.8,2.5-9.6-3.5-10.7c-6-1.1-7.5,1-8.2,2.8
			S313.4,489.2,315.8,489.7z"/>
		<path fill="#151F2C" d="M329.4,473.6c0.1-0.1,0.3-0.2,0.7-0.2c0,0-0.3-0.2-0.9-0.2c-0.1-0.6-0.5-1.7-1.5-2c0,0,0.6,0.3,0.7,0.9
			c-1.2-1.2-3.9-2.1-11.1-1.4c-9.6,0.9-6.3,7-5,7.7c1.2,0.7,4.3-1.4,6.6-1.2s2.8,3.4,3.6,3.9c0.8,0.4,0.5-0.3,1.5-0.9
			c1.1-0.5,1.2,1.2,0.9,2.4s1.2,2.6,1.2,2.6s0,0,1.4-1.6c1.4-1.6,2.7-8.3,2-9.8C329.5,473.9,329.4,473.8,329.4,473.6z"/>
		<path fill="#151F2C" d="M326.3,512.5c0,0-8,6.1-16.5,7.4c-0.2-3-0.2-5.7-0.2-8L326.3,512.5z"/>
		<g>
			<path fill="#EE805F" d="M277.1,504.7c-0.1-0.1-1.7-5.6-4.6-5.2c-1.8,0.3-4.8,1.3-4,3.7c0.3,0.9,6,4.3,6,4.3L277.1,504.7z"/>
			<path fill="#384152" d="M327.3,500.8c4.6,2.7,4.2,9.6-0.7,11.7c-0.1,0-0.2,0.1-0.3,0.1c-7.5,3-32.7,3.1-35,2.8
				C289.1,515,274,508,274,508s1-3.8,3.2-4.4c0,0,16.1,4.1,17.2,3.8c1.1-0.3,25-11.6,29.1-8.9C324.6,499.1,326,499.9,327.3,500.8z"
				/>
		</g>
	</g>
	<g>
		<path fill="#EBF3FA" d="M497,321.3h-20.1c-0.9,0-1.5-0.7-1.5-1.5l0,0c0-0.9,0.7-1.5,1.5-1.5H497c0.9,0,1.5,0.7,1.5,1.5l0,0
			C498.5,320.6,497.8,321.3,497,321.3z"/>
		<path fill="#EBF3FA" d="M497,327.3h-20.1c-0.9,0-1.5-0.7-1.5-1.5l0,0c0-0.9,0.7-1.5,1.5-1.5H497c0.9,0,1.5,0.7,1.5,1.5l0,0
			C498.5,326.6,497.8,327.3,497,327.3z"/>
		<path fill="#EBF3FA" d="M497,333.5h-20.1c-0.9,0-1.5-0.7-1.5-1.5l0,0c0-0.9,0.7-1.5,1.5-1.5H497c0.9,0,1.5,0.7,1.5,1.5l0,0
			C498.5,332.8,497.8,333.5,497,333.5z"/>
	</g>
	<path fill="#EBF3FA" d="M418.4,478.2h-47.8c-1.1,0-2-0.9-2-2l0,0c0-1.1,0.9-2,2-2h47.8c1.1,0,2,0.9,2,2l0,0
		C420.4,477.3,419.5,478.2,418.4,478.2z"/>
	<path fill="#EBF3FA" d="M184.7,338.6H137c-1.1,0-2-0.9-2-2l0,0c0-1.1,0.9-2,2-2h47.8c1.1,0,2,0.9,2,2l0,0
		C186.8,337.7,185.9,338.6,184.7,338.6z"/>
	<path fill="#EBF3FA" d="M418.4,498.4h-47.8c-1.1,0-2-0.9-2-2l0,0c0-1.1,0.9-2,2-2h47.8c1.1,0,2,0.9,2,2l0,0
		C420.4,497.5,419.5,498.4,418.4,498.4z"/>
	<path fill="#EBF3FA" d="M418.4,488.3h-57.1c-1.1,0-2-0.9-2-2l0,0c0-1.1,0.9-2,2-2h57.1c1.1,0,2,0.9,2,2l0,0
		C420.4,487.4,419.5,488.3,418.4,488.3z"/>
	<g>
		<path fill="#EBF3FA" d="M170.5,351.4h-27c-0.9,0-1.5-0.7-1.5-1.5v-1c0-0.9,0.7-1.5,1.5-1.5h27c0.9,0,1.5,0.7,1.5,1.5v1
			C172.1,350.7,171.4,351.4,170.5,351.4z"/>
		<circle fill="#EBF3FA" cx="135.2" cy="349.3" r="2"/>
	</g>
	<g>
		<path fill="#EBF3FA" d="M175.7,359.5h-32c-0.9,0-1.7-0.8-1.7-1.7v-0.7c0-0.9,0.8-1.7,1.7-1.7h32c0.9,0,1.7,0.8,1.7,1.7v0.7
			C177.4,358.7,176.6,359.5,175.7,359.5z"/>
		<circle fill="#EBF3FA" cx="135.2" cy="357.5" r="2"/>
	</g>
	<g>
		<path fill="#EBF3FA" d="M170.5,368.3h-27c-0.9,0-1.5-0.7-1.5-1.5v-1c0-0.9,0.7-1.5,1.5-1.5h27c0.9,0,1.5,0.7,1.5,1.5v1
			C172.1,367.6,171.4,368.3,170.5,368.3z"/>
		<circle fill="#EBF3FA" cx="135.2" cy="366.2" r="2"/>
	</g>
	<g>
		<g>
			<path fill="#151F2C" d="M219.6,355.9c-0.3,0-0.7,0.1-1.1,0.1c-1.9,0-3.7-0.8-5.1-2.2c-2.8-2.8-2.7-7.4,0.1-10.2l0,0
				c2.8-2.8,7.4-2.7,10.2,0.1c2.8,2.8,2.7,7.4-0.1,10.2C222.5,355,221.1,355.7,219.6,355.9z M214.4,344.5c-2.4,2.3-2.4,6.1-0.1,8.5
				c1.1,1.1,2.6,1.8,4.2,1.8c1.6,0,3.1-0.6,4.3-1.7c2.4-2.3,2.4-6.1,0.1-8.5C220.6,342.3,216.8,342.2,214.4,344.5L214.4,344.5z"/>
		</g>
		
			<rect x="209.8" y="352" transform="matrix(-0.6989 -0.7152 0.7152 -0.6989 102.2525 756.801)" fill="#151F2C" width="1.2" height="9.8"/>
		<path fill="#151F2C" d="M204.5,362.7L204.5,362.7c-0.4-0.4-0.4-1.1,0-1.5l4.1-4c0.4-0.4,1.1-0.4,1.5,0l0,0c0.4,0.4,0.4,1.1,0,1.5
			l-4.1,4C205.5,363.1,204.9,363.1,204.5,362.7z"/>
	</g>
</g>
</svg>
