<?xml version="1.0" encoding="utf-8"?>
<!-- Generator: Adobe Illustrator 18.0.0, SVG Export Plug-In . SVG Version: 6.00 Build 0)  -->
<!DOCTYPE svg PUBLIC "-//W3C//DTD SVG 1.1//EN" "http://www.w3.org/Graphics/SVG/1.1/DTD/svg11.dtd">
<svg version="1.1" id="main" xmlns="http://www.w3.org/2000/svg" xmlns:xlink="http://www.w3.org/1999/xlink" x="0px" y="0px"
	 viewBox="0 0 100 100" enable-background="new 0 0 100 100" xml:space="preserve">
<path id="CogBig" fill="#E9E9E9" d="M35.7,28.5l2.1-0.2c0.2,0,0.3,0.1,0.4,0.2c0.1,0.2,0.3,0.4,0.4,0.5c0.3,0.3,0.5,0.6,0.8,0.9
	c0.1,0.1,0.2,0.3,0.1,0.5l-0.8,2c-0.1,0.2,0,0.5,0.2,0.6l1.8,0.9c0.2,0.1,0.4,0,0.6-0.2l1.1-1.7c0.1-0.2,0.3-0.2,0.5-0.2
	c0.8,0.2,1.7,0.3,2.5,0.3c0.2,0,0.4,0.1,0.4,0.3l0.4,1.2c0.1,0.2,0.3,0.3,0.5,0.3l1.9-0.4h0.1c0.2-0.1,0.3-0.3,0.3-0.4l-0.2-1.5
	v-0.4c0.3-0.2,0.6-0.4,0.9-0.6c0.4-0.3,0.8-0.7,1.1-1c0.1-0.1,0.3-0.2,0.5-0.1l1.6,0.6c0.2,0.1,0.5,0,0.6-0.2l0.7-1.4l0.2-0.4
	c0.1-0.2,0-0.5-0.2-0.6l-1.4-0.9c-0.2-0.1-0.3-0.3-0.2-0.5c0.1-0.5,0.2-1.1,0.2-1.7c0-0.1,0-0.1,0-0.1s0,0,0-0.1
	c0-0.2,0.1-0.3,0.3-0.4l1.9-0.6c0,0,0,0,0.1,0c0.2-0.1,0.3-0.3,0.3-0.5L55,20.8c-0.1-0.2-0.3-0.4-0.5-0.4l-2.2,0.2
	c-0.2,0-0.3-0.1-0.4-0.2c-0.2-0.3-0.4-0.7-0.7-1c-0.1-0.2-0.3-0.3-0.4-0.5c-0.1-0.1-0.2-0.3-0.1-0.5l0.8-1.9c0.1-0.2,0-0.4-0.2-0.6
	L49.4,15c-0.2-0.1-0.5,0-0.6,0.2L48,16.5c-0.1,0.2-0.3,0.3-0.5,0.2c-0.8-0.3-1.6-0.4-2.4-0.4c-0.2,0-0.4-0.1-0.4-0.3l-0.5-1.7
	c-0.1-0.2-0.3-0.4-0.5-0.3l-1.9,0.4c-0.2,0.1-0.4,0.3-0.3,0.5V15l0.2,1.8c0,0.2-0.1,0.4-0.3,0.5l0,0c-0.4,0.2-0.8,0.5-1.2,0.8
	c-0.2,0.2-0.4,0.3-0.6,0.5c-0.1,0.1-0.3,0.2-0.5,0.1l-1.6-0.6c-0.2-0.1-0.5,0-0.6,0.2L36,20c0,0.1,0,0.1,0,0.2
	c0,0.2,0.1,0.3,0.2,0.4l1.1,0.7c0.1,0.1,0.2,0.3,0.2,0.4v0.1c-0.3,1-0.5,2.1-0.4,3.1c0,0.2-0.1,0.3-0.2,0.4h-0.1l-1.5,0.5
	c-0.2,0.1-0.3,0.3-0.3,0.5l0,0l0.4,1.9C35.3,28.3,35.5,28.5,35.7,28.5z M48.9,22.6c0.1,0.3,0.2,0.6,0.3,0.9c0.1,0.6,0,1.7-0.3,2.3
	c0,0.1-0.1,0.1-0.1,0.2c-2,3.7-7.3,3-8.2-1.2c-0.1-0.5,0-1.4,0.2-2c0.1-0.1,0.1-0.3,0.2-0.4c0.3-0.5,0.6-1,1-1.4
	C44.1,19,47.7,19.7,48.9,22.6z"/>
<path fill="#B8C0C7" d="M90.4,80.8c0,0.9-0.7,1.6-1.5,1.6h-75c-0.8,0-1.5-0.7-1.5-1.6v-52c0-0.9,0.7-1.6,1.5-1.6h75
	c0.8,0,1.5,0.7,1.5,1.6"/>
<g>
	<path fill="#43A1F6" d="M86.7,25.8V30H3v-4.2c0-0.9,0.7-1.6,1.6-1.6h80.5C86,24.3,86.7,25,86.7,25.8z"/>
	<g>
		<circle fill="#E9E9E9" cx="6.3" cy="27.1" r="0.7"/>
		<circle fill="#E9E9E9" cx="9.2" cy="27.1" r="0.7"/>
		<circle fill="#E9E9E9" cx="12.1" cy="27.1" r="0.7"/>
	</g>
</g>
<path id="CogSmall" fill="#E9E9E9" d="M57.2,19.7l1-0.1c0.1,0,0.2,0,0.2,0.1c0.1,0.1,0.1,0.2,0.2,0.3c0.1,0.2,0.3,0.3,0.4,0.4
	c0.1,0.1,0.1,0.2,0.1,0.2l-0.4,1c0,0.1,0,0.2,0.1,0.3l0.9,0.4c0.1,0.1,0.2,0,0.3-0.1l0.5-0.8c0.1-0.1,0.2-0.1,0.2-0.1
	c0.4,0.1,0.8,0.2,1.2,0.1c0.1,0,0.2,0.1,0.2,0.2l0.2,0.6c0,0.1,0.1,0.2,0.3,0.2l0.9-0.2c0,0,0,0,0.1,0s0.1-0.1,0.1-0.2l-0.1-0.8V21
	c0.2-0.1,0.3-0.2,0.4-0.3c0.2-0.2,0.4-0.3,0.5-0.5c0.1-0.1,0.2-0.1,0.2-0.1l0.8,0.3c0.1,0,0.2,0,0.3-0.1l0.3-0.7l0.1-0.2
	c0.1-0.1,0-0.2-0.1-0.3l-0.7-0.4c-0.1-0.1-0.1-0.2-0.1-0.2c0.1-0.3,0.1-0.5,0.1-0.8v-0.1l0,0c0-0.1,0.1-0.2,0.2-0.2l0.9-0.3l0,0
	c0.1,0,0.1-0.1,0.1-0.2L66.4,16c0-0.1-0.1-0.2-0.2-0.2l-1,0.1c-0.1,0-0.2,0-0.2-0.1c-0.1-0.2-0.2-0.3-0.3-0.5
	c-0.1-0.1-0.1-0.2-0.2-0.3s-0.1-0.2,0-0.2l0.4-0.9c0-0.1,0-0.2-0.1-0.3l-0.9-0.4c-0.1-0.1-0.2,0-0.3,0.1l-0.4,0.6
	C63.1,14,63,14,63,14c-0.4-0.1-0.8-0.2-1.2-0.2c-0.1,0-0.2-0.1-0.2-0.2l-0.3-0.8c0-0.1-0.2-0.2-0.3-0.2l-0.9,0.2
	c-0.1,0-0.2,0.1-0.2,0.2l0,0l0.1,0.9c0,0.1,0,0.2-0.1,0.2l0,0c-0.2,0.1-0.4,0.2-0.6,0.4c-0.1,0.1-0.2,0.2-0.3,0.2
	c-0.1,0.1-0.2,0.1-0.2,0L58,14.5c-0.1,0-0.2,0-0.3,0.1l-0.4,0.9v0.1c0,0.1,0,0.2,0.1,0.2l0.5,0.3c0.1,0,0.1,0.1,0.1,0.2
	c0,0,0,0,0,0.1c-0.2,0.5-0.2,1-0.2,1.5c0,0.1,0,0.2-0.1,0.2l0,0L57,18.3c-0.1,0-0.2,0.1-0.2,0.3l0,0l0.2,0.9
	C57,19.6,57.1,19.7,57.2,19.7z M63.6,16.9c0.1,0.1,0.1,0.3,0.1,0.5c0.1,0.3,0,0.8-0.2,1.1c0,0,0,0.1-0.1,0.1c-1,1.8-3.5,1.5-4-0.6
	c-0.1-0.3,0-0.7,0.1-0.9c0-0.1,0.1-0.1,0.1-0.2c0.1-0.3,0.3-0.5,0.5-0.7C61.3,15.1,63,15.4,63.6,16.9z"/>
<g id="Women">
	<path fill="#EE805F" d="M22.8,31.6c-0.1,0.1-0.1,0.2-0.1,0.3l0,0c0.1,0.2,0.3,0.5,0.7,0.7l0.1,0.1l0,0l0,0c0.3,0.3,0.2,0.3,0.7,0.9
		c0.6,0.6,1,0.6,1.1,0.6c0.1-0.1-0.1-0.4-0.3-0.8c0,0,0,0,0-0.1s-0.1-0.1-0.1-0.2c-0.3-0.4-0.2-0.7-0.1-1.3c0.1-0.5,0.9-3,0.9-3
		l-1.2-0.2c0,0-0.3,2-0.7,2.3c-0.2,0.2-0.4,0.2-0.6,0.3l0,0C23,31.4,22.9,31.5,22.8,31.6z"/>
	<path fill="#151F2C" d="M22.8,31.6c-0.1,0.1-0.1,0.2-0.1,0.3l0,0c0.1,0.2,0.4,0.5,0.7,0.7l0.1,0.1l0,0l0,0c0.3,0.3,0.2,0.3,0.7,0.9
		c0.6,0.6,1,0.6,1.1,0.6c0.1-0.1-0.1-0.4-0.3-0.8c-0.1,0-0.7-0.3-1.1-0.8s-0.6-1-0.9-1.4l0,0C23,31.4,22.9,31.5,22.8,31.6z"/>
	<path fill="#EE805F" d="M32.1,30.8c0.1,0.3,0.6,0.3,1.1,0.2c0.6-0.1,0.4,0,1.2-0.1s1-0.4,1.1-0.5c0-0.1-0.4-0.2-0.8-0.2
		c-0.1,0-0.1,0-0.2,0c-0.5-0.1-0.8-0.4-1.3-0.6c-0.4-0.2-1-1.2-1-1.2l-1.1,0.1c0,0,0.6,0.9,0.8,1.3C32,30,32,30.3,32,30.6
		C32.1,30.6,32.1,30.7,32.1,30.8z"/>
	<path fill="#151F2C" d="M33.3,31c0.6-0.1,0.4,0,1.2-0.1s1-0.4,1.1-0.5c0-0.1-0.4-0.2-0.8-0.2l0,0c0,0-0.5,0.3-1.2,0.4
		c-0.5,0-1.1-0.1-1.5-0.1c0,0.1,0,0.3,0,0.4C32.2,31.2,32.7,31.1,33.3,31z"/>
	<path fill="#151F2C" d="M27.8,23.8l-1,2.8l-1.4,3.6c0,0-0.4,0-0.7-0.1C24.4,30,24,29.8,24,29.8s0.4-3.9,1.1-6.2
		c0.2-0.6,0.4-1,0.6-1.3C26.8,21,27.8,23.8,27.8,23.8z"/>
	<path fill="#384152" d="M26.8,19.3c-0.7-0.2-2.6,0.1-4.6,0.4L21.8,19l-4.2-0.3c0,0-1.4,3.1-0.6,5c0.1,0.3,0.3,0.5,0.7,0.5h0.1
		c0,0,2.5,0,3.3,0c2.1,0,4.4-1.4,4.7-1.5c0.5-0.1,0.7,0.9,1.2,1.9s4.6,4.6,4.6,4.6s0.6,0,0.9-0.1s0.4-0.3,0.4-0.3
		S28.3,19.8,26.8,19.3z"/>
	<path fill="#151F2C" d="M20.4,6.3c-0.6-0.2-1.4,0-1.5,0c-1.6,0.2-2.1,1.9-1.9,3.3c0.2,1.3-0.4,1.6-1.2,2.6c-1.5,2-0.5,3.7,0.7,4.2
		c0.7,0.3,1.7-0.4,1.7-0.4s3.1-2,4.4-3.2C24.7,12,21.9,6.7,20.4,6.3z"/>
	<path fill="#EE805F" d="M20.7,12.2c0,0.2-0.7,0.4-1.2,0.3c-0.5-0.1-1.1-0.7-0.9-0.7c0.2-0.1,0.3-0.3,0.2-1.6h0.1l1.6,0.2
		c0,0,0,0.5,0,1C20.5,11.8,20.6,11.9,20.7,12.2z"/>
	<path fill="#DE6B4D" d="M20.5,10.4c0,0,0,0.5,0,1c-0.9,0.1-1.4-0.7-1.6-1.2L20.5,10.4z"/>
	<path fill="#EE805F" d="M20.8,10.8c0,0-2.1,0.2-2.2-1.1s-0.4-2.2,0.9-2.3c1.3-0.2,1.6,0.3,1.8,0.7C21.4,8.5,21.3,10.7,20.8,10.8z"
		/>
	<path fill="#151F2C" d="M20.6,7.2c0,0-0.3,1.6-1.5,2c-0.9,0.3-1.3,0.1-1.3,0.1s0.4-0.5,0.6-1.3c0-0.2,0.2-0.4,0.4-0.5
		C19.5,7.2,20.2,6.7,20.6,7.2z"/>
	<path fill="#151F2C" d="M20.2,7.5c0,0,0.4,0.1,0.7,0.6c0.2,0.3,0.4,1,0.4,1.3c0,0,0.4-1.5-0.2-2C20.5,6.8,20.2,7.5,20.2,7.5z"/>
	<path fill="#43A1F6" d="M16.9,16.4c0,0.2,0.1,0.3,0.1,0.4c0,0.2,0.1,0.4,0.1,0.6c0.1,0.5,0,0.8,0.1,1.2c0,0.2,0.1,0.4,0.2,0.6
		s2.4,0.4,3.6,0.4c0.4,0,0.7-0.1,0.8-0.2c0.5-0.4,0.4,0.5,0.5-3.7c0-2.1-1.7-3.9-1.7-3.9s-0.1,0.9-1.9-0.2c-0.1,0-0.8,1-1.4,2.3
		C16.5,15.3,16.7,15.6,16.9,16.4z"/>
	<path fill="#384152" d="M26.8,26.5l-1.4,3.6c0,0-0.4,0-0.7-0.1c-0.3,0-0.7-0.2-0.7-0.2s0.4-3.9,1.1-6.2L26.8,26.5z"/>
	<path fill="#43A1F6" d="M20.6,11.8c0,0,1.8,0.3,2,1.1s1.7,5.1,1.7,5.1s-1.1,0.4-1.6,0c-0.4-0.4-1.5-4-1.5-4L20.6,11.8z"/>
	<path fill="#FFFFFF" d="M20.3,10.1c0,0,0.1,0.2,0.3,0.2s0.3,0,0.3-0.1s0.1-0.1,0.1-0.1S20.7,10,20.3,10.1z"/>
	<path fill="#2B6EB2" d="M17.1,17.5c0.1,0.5,0,0.8,0.1,1.2c1.6,0,3.8-1.3,3.8-1.3L17.1,17.5z"/>
	<path fill="#2B6EB2" d="M21,16.3c0,0-2.6-0.1-3-1.5c-0.5-1.6-1,0.7-1,0.7l0.3,1.4h2.8L21,16.3z"/>
	<g>
		<path fill="#B8C0C7" d="M25.5,12.3L25.3,12c-0.2-0.4-0.5-0.6-0.9-0.6h-2.6V13v6.9h10.6V13h-6C26,13,25.7,12.7,25.5,12.3z"/>
		<g>
			<path fill="#FFFFFF" d="M23.5,16.5v-0.6l2.2-0.9v0.6l-1.5,0.6l1.5,0.6v0.6L23.5,16.5z"/>
			<path fill="#FFFFFF" d="M27.9,14.2h0.6l-2,4.1h-0.6L27.9,14.2z"/>
			<path fill="#FFFFFF" d="M30.9,15.9v0.6l-2.2,0.9v-0.6l1.5-0.6l-1.5-0.6V15L30.9,15.9z"/>
		</g>
	</g>
	<path fill="#EE805F" d="M21,16.6l0.2-0.3c0,0,0.2-0.1,0.3-0.2c0.3-0.2,0.2-0.4,0.3-0.4v0.6l0,0c0.5,0.1,1.1,0,1.2,0.1
		c0,0.4-0.3,0.5-0.5,0.6s-0.4,0.2-0.7,0.1c-0.2-0.1-0.6-0.2-0.6-0.2L21,16.6z"/>
	<path fill="#43A1F6" d="M18.7,11.6c0,0-1.7,0.1-2.1,0.8s-0.9,3.9-0.7,5.1c0.2,1.1,5.5-0.2,5.5-0.2l-0.2-1c0,0-3.1,0-3.3-0.4
		C17.7,15.3,18.7,11.6,18.7,11.6z"/>
	<path fill="#EE805F" d="M26.7,13c0,0,0.3,0.5,0.6,0.4c0.2-0.1,0.5-0.5,0.3-0.7C27.1,12.5,26.7,12.8,26.7,13z"/>
</g>
<g id="search">
	<g>
		<g>
			
				<rect x="46" y="23.5" transform="matrix(-0.8822 -0.4709 0.4709 -0.8822 72.5015 78.2768)" fill="#151F2C" width="0.1" height="13.1"/>
		</g>
		<g>
			
				<rect x="63.1" y="28" transform="matrix(-0.6798 -0.7334 0.7334 -0.6798 93.9649 97.0489)" fill="#151F2C" width="10.2" height="0.1"/>
		</g>
		<g>
			<path fill="#E9E9E9" d="M76,33.9c0.1,0.8-0.1,1.5-0.5,2c-0.4,0.6-1,0.9-1.8,1.1l-31.1,4.3c-1.6,0.2-3-0.8-3.3-2.3
				c-0.1-0.8,0.1-1.5,0.6-2c0.4-0.6,1.1-1,1.9-1.1L73,31.6C74.5,31.4,75.8,32.4,76,33.9z"/>
			<path fill="#43A1F6" d="M76,33.9c0.1,0.8-0.1,1.5-0.5,2c-0.4,0.6-1,0.9-1.8,1.1l-5.6,0.8l-0.8-5.4l5.6-0.8
				C74.5,31.4,75.8,32.4,76,33.9z"/>
			<g>
				<g>
					<path fill="#FFFFFF" d="M72.6,35.4c-0.1,0-0.1,0-0.2,0c-0.4,0-0.7-0.2-1-0.4c-0.5-0.5-0.5-1.4,0-2l0,0c0.5-0.5,1.4-0.5,2,0
						c0.5,0.5,0.5,1.4,0,2C73.2,35.2,72.9,35.4,72.6,35.4z M71.6,33.2c-0.5,0.4-0.5,1.2,0,1.6c0.2,0.2,0.5,0.3,0.8,0.3
						s0.6-0.1,0.8-0.3c0.5-0.4,0.5-1.2,0-1.6C72.8,32.7,72.1,32.7,71.6,33.2L71.6,33.2z"/>
				</g>
				
					<rect x="70.7" y="34.6" transform="matrix(-0.6989 -0.7152 0.7152 -0.6989 94.9159 111.0605)" fill="#FFFFFF" width="0.2" height="1.9"/>
				<path fill="#FFFFFF" d="M69.7,36.7L69.7,36.7c-0.1-0.1-0.1-0.2,0-0.3l0.8-0.8c0.1-0.1,0.2-0.1,0.3,0l0,0c0.1,0.1,0.1,0.2,0,0.3
					L70,36.7C69.9,36.8,69.7,36.8,69.7,36.7z"/>
			</g>
		</g>
	</g>
	<g>
		<polygon fill="#384152" points="57.6,40.9 53.9,41.8 52.1,45.2 50.7,37.6 		"/>
		
			<rect x="54.3" y="40.9" transform="matrix(-0.797 0.604 -0.604 -0.797 124.0597 43.9696)" fill="#384152" width="0.7" height="3.9"/>
	</g>
</g>
<g id="Pictures">
	<g id="Picture">
		<path fill="#E9E9E9" d="M55.2,56.6h-9.1c-0.4,0-0.7-0.3-0.7-0.7v-9.1c0-0.4,0.3-0.7,0.7-0.7h9.1c0.4,0,0.7,0.3,0.7,0.7V56
			C55.8,56.4,55.5,56.6,55.2,56.6z"/>
		<g>
			<path fill="#2B6EB2" d="M46.7,54.5l2-3.7c0.2-0.4,0.8-0.5,1.1-0.1l1.2,1.6c0.3,0.3,0.8,0.4,1,0.1l0,0c0.3-0.3,0.8-0.3,1,0.1
				l1.3,2c0.3,0.4,0,1-0.6,1h-6.5C46.8,55.5,46.5,54.9,46.7,54.5z"/>
			<circle fill="#2B6EB2" cx="51.6" cy="49.1" r="0.8"/>
		</g>
	</g>
	<g id="Picture_1_">
		<path fill="#E9E9E9" d="M68.6,56.9l-9,1.2c-0.4,0.1-0.7-0.2-0.8-0.6l-1.2-9c-0.1-0.4,0.2-0.7,0.6-0.8l9-1.2
			c0.4-0.1,0.7,0.2,0.8,0.6l1.2,9C69.2,56.6,68.9,56.9,68.6,56.9z"/>
		<g>
			<path fill="#2B6EB2" d="M59.9,55.9l1.5-3.9c0.2-0.4,0.8-0.6,1.1-0.2l1.4,1.4c0.3,0.3,0.8,0.3,1-0.1l0,0c0.3-0.4,0.8-0.4,1-0.1
				l1.5,1.8c0.3,0.4,0.1,1-0.4,1.1l-6.5,0.9C60.1,56.9,59.7,56.4,59.9,55.9z"/>
			<circle fill="#2B6EB2" cx="63.9" cy="49.9" r="0.8"/>
		</g>
	</g>
</g>
<path fill="#43A1F6" d="M48.4,93.7h-5c-0.2,0-0.3-0.2-0.3-0.3v-0.5c0-0.2,0.2-0.3,0.4-0.3l5,0.5c0.2,0,0.3,0.2,0.3,0.3l0,0
	C48.7,93.6,48.6,93.7,48.4,93.7z"/>
<g id="textGroupBL">
	<g>
		<path fill="#43A1F6" d="M23.9,63.6h-6.5c-0.1,0-0.3-0.1-0.3-0.3v-0.1c0-0.1,0.1-0.3,0.3-0.3h6.5c0.1,0,0.3,0.1,0.3,0.3v0.1
			C24.1,63.5,24,63.6,23.9,63.6z"/>
		<g>
			<path fill="#151F2C" d="M20.6,65.6h-3.2c-0.1,0-0.2-0.1-0.2-0.2l0,0c0-0.1,0.1-0.2,0.2-0.2h3.2c0.1,0,0.2,0.1,0.2,0.2l0,0
				C20.8,65.5,20.7,65.6,20.6,65.6z"/>
			<g>
				<path fill="#151F2C" d="M23,64.8h-5.7c-0.1,0-0.2-0.1-0.2-0.2l0,0c0-0.1,0.1-0.2,0.2-0.2H23c0.1,0,0.2,0.1,0.2,0.2l0,0
					C23.2,64.7,23.1,64.8,23,64.8z"/>
				<path fill="#151F2C" d="M29.2,64.8H24c-0.1,0-0.2-0.1-0.2-0.2l0,0c0-0.1,0.1-0.2,0.2-0.2h5.3c0.1,0,0.2,0.1,0.2,0.2l0,0
					C29.4,64.7,29.3,64.8,29.2,64.8z"/>
				<path fill="#151F2C" d="M24.6,65.6h-3.2c-0.1,0-0.2-0.1-0.2-0.2l0,0c0-0.1,0.1-0.2,0.2-0.2h3.2c0.1,0,0.2,0.1,0.2,0.2l0,0
					C24.8,65.5,24.7,65.6,24.6,65.6z"/>
			</g>
		</g>
		<path fill="#43A1F6" d="M31.8,63.6h-6.5c-0.1,0-0.3-0.1-0.3-0.3v-0.1c0-0.1,0.1-0.3,0.3-0.3h6.5c0.1,0,0.3,0.1,0.3,0.3v0.1
			C32,63.5,31.9,63.6,31.8,63.6z"/>
	</g>
	<g>
		<path fill="#43A1F6" d="M23.9,68h-6.5c-0.1,0-0.3-0.1-0.3-0.3v-0.1c0-0.1,0.1-0.3,0.3-0.3h6.5c0.1,0,0.3,0.1,0.3,0.3v0.1
			C24.1,67.9,24,68,23.9,68z"/>
		<g>
			<path fill="#151F2C" d="M20.6,70.1h-3.2c-0.1,0-0.2-0.1-0.2-0.2l0,0c0-0.1,0.1-0.2,0.2-0.2h3.2c0.1,0,0.2,0.1,0.2,0.2l0,0
				C20.8,70,20.7,70.1,20.6,70.1z"/>
			<g>
				<path fill="#151F2C" d="M23,69.2h-5.7c-0.1,0-0.2-0.1-0.2-0.2l0,0c0-0.1,0.1-0.2,0.2-0.2H23c0.1,0,0.2,0.1,0.2,0.2l0,0
					C23.2,69.2,23.1,69.2,23,69.2z"/>
				<path fill="#151F2C" d="M29.2,69.2H24c-0.1,0-0.2-0.1-0.2-0.2l0,0c0-0.1,0.1-0.2,0.2-0.2h5.3c0.1,0,0.2,0.1,0.2,0.2l0,0
					C29.4,69.2,29.3,69.2,29.2,69.2z"/>
				<path fill="#151F2C" d="M24.6,70.1h-3.2c-0.1,0-0.2-0.1-0.2-0.2l0,0c0-0.1,0.1-0.2,0.2-0.2h3.2c0.1,0,0.2,0.1,0.2,0.2l0,0
					C24.8,70,24.7,70.1,24.6,70.1z"/>
			</g>
		</g>
		<path fill="#43A1F6" d="M31.8,68h-6.5c-0.1,0-0.3-0.1-0.3-0.3v-0.1c0-0.1,0.1-0.3,0.3-0.3h6.5c0.1,0,0.3,0.1,0.3,0.3v0.1
			C32,67.9,31.9,68,31.8,68z"/>
	</g>
	<g>
		<path fill="#151F2C" d="M32.3,74h-0.5c-0.1,0-0.1,0-0.1-0.1c0,0,0-0.1,0.1-0.1h0.5C32.4,73.8,32.4,73.9,32.3,74
			C32.4,74,32.3,74,32.3,74z M31.3,74h-0.5c-0.1,0-0.1,0-0.1-0.1c0,0,0-0.1,0.1-0.1h0.5C31.4,73.8,31.4,73.9,31.3,74
			C31.4,74,31.3,74,31.3,74z M30.3,74h-0.5c-0.1,0-0.1,0-0.1-0.1c0,0,0-0.1,0.1-0.1h0.5C30.3,73.8,30.4,73.9,30.3,74
			C30.4,74,30.3,74,30.3,74z M29.3,74h-0.5c-0.1,0-0.1,0-0.1-0.1c0,0,0-0.1,0.1-0.1h0.5C29.4,73.8,29.4,73.9,29.3,74
			C29.4,74,29.3,74,29.3,74z M28.3,74h-0.5c-0.1,0-0.1,0-0.1-0.1c0,0,0-0.1,0.1-0.1h0.5C28.4,73.8,28.4,73.9,28.3,74
			C28.4,74,28.4,74,28.3,74z M27.3,74h-0.5c-0.1,0-0.1,0-0.1-0.1c0,0,0-0.1,0.1-0.1h0.5C27.4,73.8,27.4,73.9,27.3,74
			C27.4,74,27.3,74,27.3,74z M26.3,74h-0.5c-0.1,0-0.1,0-0.1-0.1c0,0,0-0.1,0.1-0.1h0.5C26.4,73.8,26.4,73.9,26.3,74
			C26.4,74,26.4,74,26.3,74z M25.3,74h-0.5c-0.1,0-0.1,0-0.1-0.1c0,0,0-0.1,0.1-0.1h0.5C25.4,73.8,25.4,73.9,25.3,74
			C25.4,74,25.3,74,25.3,74z M24.3,74h-0.5c-0.1,0-0.1,0-0.1-0.1c0,0,0-0.1,0.1-0.1h0.5C24.4,73.8,24.4,73.9,24.3,74
			C24.4,74,24.3,74,24.3,74z M23.3,74h-0.5c-0.1,0-0.1,0-0.1-0.1c0,0,0-0.1,0.1-0.1h0.5C23.3,73.8,23.4,73.9,23.3,74
			C23.4,74,23.3,74,23.3,74z M22.3,74h-0.5c-0.1,0-0.1,0-0.1-0.1c0,0,0-0.1,0.1-0.1h0.5C22.4,73.8,22.4,73.9,22.3,74
			C22.4,74,22.3,74,22.3,74z M21.3,74h-0.5c-0.1,0-0.1,0-0.1-0.1c0,0,0-0.1,0.1-0.1h0.5C21.4,73.8,21.4,73.9,21.3,74
			C21.4,74,21.4,74,21.3,74z M20.3,74h-0.5c-0.1,0-0.1,0-0.1-0.1c0,0,0-0.1,0.1-0.1h0.5C20.4,73.8,20.4,73.9,20.3,74
			C20.4,74,20.3,74,20.3,74z M19.3,74h-0.5c-0.1,0-0.1,0-0.1-0.1c0,0,0-0.1,0.1-0.1h0.5C19.4,73.8,19.4,73.9,19.3,74
			C19.4,74,19.4,74,19.3,74z M18.3,74h-0.5c-0.1,0-0.1,0-0.1-0.1c0,0,0-0.1,0.1-0.1h0.5C18.4,73.8,18.4,73.9,18.3,74
			C18.4,74,18.3,74,18.3,74z M17.3,74h-0.4h-0.1c-0.1,0-0.1-0.1-0.1-0.1c0-0.1,0.1-0.1,0.1-0.1h0.1h0.4C17.3,73.8,17.4,73.9,17.3,74
			C17.4,74,17.3,74,17.3,74z M32.8,73.9C32.8,73.9,32.7,73.8,32.8,73.9c-0.1-0.1-0.1-0.1,0-0.2s0.2-0.2,0.3-0.3c0,0,0.1-0.1,0.1,0
			c0,0,0.1,0.1,0,0.1C33.1,73.6,33,73.7,32.8,73.9L32.8,73.9z M16.4,73.8C16.3,73.8,16.3,73.8,16.4,73.8c-0.2-0.1-0.3-0.3-0.3-0.5
			c0,0,0-0.1,0.1-0.1c0,0,0.1,0,0.1,0.1c0,0.2,0.1,0.3,0.2,0.4C16.4,73.7,16.4,73.7,16.4,73.8L16.4,73.8z M33.1,73L33.1,73L33,72.4
			c0-0.1,0-0.1,0.1-0.1s0.1,0,0.1,0.1L33.1,73C33.2,73,33.2,73,33.1,73z M16.1,72.9C16,72.9,16,72.9,16.1,72.9L16,72.3
			c0-0.1,0-0.1,0.1-0.1s0.1,0,0.1,0.1L16.1,72.9L16.1,72.9z M33.1,72C33.1,72,33.1,71.9,33.1,72L33,71.4c0-0.1,0-0.1,0.1-0.1
			s0.1,0,0.1,0.1L33.1,72C33.2,72,33.2,72,33.1,72z M16.1,71.9C16,71.9,16,71.8,16.1,71.9L16,71.3c0-0.1,0-0.1,0.1-0.1
			s0.1,0,0.1,0.1L16.1,71.9L16.1,71.9z M33.1,71L33.1,71L33,70.4c0-0.1,0-0.1,0.1-0.1s0.1,0,0.1,0.1L33.1,71
			C33.2,71,33.2,71,33.1,71z M16.1,70.9C16,70.9,16,70.9,16.1,70.9L16,70.3c0-0.1,0-0.1,0.1-0.1s0.1,0,0.1,0.1L16.1,70.9L16.1,70.9z
			 M33.1,70C33.1,70,33.1,69.9,33.1,70L33,69.4c0-0.1,0-0.1,0.1-0.1s0.1,0,0.1,0.1L33.1,70C33.2,69.9,33.2,70,33.1,70z M16.1,69.9
			C16,69.9,16,69.8,16.1,69.9L16,69.3c0-0.1,0-0.1,0.1-0.1s0.1,0,0.1,0.1L16.1,69.9C16.1,69.8,16.1,69.9,16.1,69.9z M33.1,69
			L33.1,69L33,68.4c0-0.1,0-0.1,0.1-0.1s0.1,0,0.1,0.1L33.1,69C33.2,69,33.2,69,33.1,69z M16.1,68.9C16,68.9,16,68.9,16.1,68.9
			L16,68.3c0-0.1,0-0.1,0.1-0.1s0.1,0,0.1,0.1L16.1,68.9L16.1,68.9z M33.1,68C33.1,68,33.1,67.9,33.1,68L33,67.4
			c0-0.1,0-0.1,0.1-0.1s0.1,0,0.1,0.1L33.1,68C33.2,67.9,33.2,68,33.1,68z M16.1,67.9C16,67.9,16,67.9,16.1,67.9L16,67.3
			c0-0.1,0-0.1,0.1-0.1s0.1,0,0.1,0.1L16.1,67.9L16.1,67.9z M33.1,67L33.1,67L33,66.4c0-0.1,0-0.1,0.1-0.1s0.1,0,0.1,0.1L33.1,67
			C33.2,67,33.2,67,33.1,67z M16.1,66.9C16,66.9,16,66.9,16.1,66.9L16,66.3c0-0.1,0-0.1,0.1-0.1s0.1,0,0.1,0.1L16.1,66.9L16.1,66.9z
			 M33.1,66L33.1,66L33,65.4c0-0.1,0-0.1,0.1-0.1s0.1,0,0.1,0.1L33.1,66C33.2,66,33.2,66,33.1,66z M16.1,65.9
			C16,65.9,16,65.9,16.1,65.9L16,65.3c0-0.1,0-0.1,0.1-0.1s0.1,0,0.1,0.1L16.1,65.9L16.1,65.9z M33.1,65L33.1,65L33,64.4
			c0-0.1,0-0.1,0.1-0.1s0.1,0,0.1,0.1L33.1,65C33.2,65,33.2,65,33.1,65z M16.1,64.9C16,64.9,16,64.9,16.1,64.9L16,64.3
			c0-0.1,0-0.1,0.1-0.1s0.1,0,0.1,0.1L16.1,64.9L16.1,64.9z M33.1,64L33.1,64L33,63.4c0-0.1,0-0.1,0.1-0.1s0.1,0,0.1,0.1L33.1,64
			C33.2,64,33.2,64,33.1,64z M16.1,63.9C16,63.9,16,63.9,16.1,63.9L16,63.3c0-0.1,0-0.1,0.1-0.1s0.1,0,0.1,0.1L16.1,63.9L16.1,63.9z
			 M33.1,63C33.1,63,33.1,62.9,33.1,63L33,62.4c0-0.1,0-0.1,0.1-0.1s0.1,0,0.1,0.1L33.1,63C33.2,63,33.2,63,33.1,63z M16.1,62.9
			C16,62.9,16,62.9,16.1,62.9L16,62.3c0-0.1,0-0.1,0.1-0.1s0.1,0,0.1,0.1L16.1,62.9L16.1,62.9z M33.1,62L33.1,62
			c-0.1-0.2-0.2-0.3-0.3-0.4v-0.1h0.1C33.1,61.6,33.2,61.7,33.1,62C33.2,61.9,33.2,62,33.1,62L33.1,62z M16.1,61.9L16.1,61.9
			c-0.1,0-0.1-0.1-0.1-0.1c0.1-0.2,0.2-0.3,0.3-0.4h0.1v0.1C16.4,61.6,16.3,61.7,16.1,61.9C16.2,61.9,16.2,61.9,16.1,61.9z
			 M32.4,61.4L32.4,61.4C32.3,61.4,32.3,61.4,32.4,61.4h-0.5c-0.1,0-0.1,0-0.1-0.1s0-0.1,0.1-0.1h0.4h0.1
			C32.5,61.2,32.5,61.3,32.4,61.4C32.5,61.4,32.4,61.4,32.4,61.4z M31.4,61.4h-0.5c-0.1,0-0.1,0-0.1-0.1s0-0.1,0.1-0.1h0.5
			C31.5,61.2,31.5,61.3,31.4,61.4C31.5,61.3,31.4,61.4,31.4,61.4z M30.4,61.4h-0.5c-0.1,0-0.1,0-0.1-0.1s0-0.1,0.1-0.1h0.5
			C30.4,61.2,30.5,61.3,30.4,61.4C30.5,61.3,30.4,61.4,30.4,61.4z M29.4,61.4h-0.5c-0.1,0-0.1,0-0.1-0.1s0-0.1,0.1-0.1h0.5
			C29.5,61.2,29.5,61.3,29.4,61.4C29.5,61.3,29.4,61.4,29.4,61.4z M28.4,61.4h-0.5c-0.1,0-0.1,0-0.1-0.1s0-0.1,0.1-0.1h0.5
			C28.4,61.2,28.5,61.3,28.4,61.4C28.5,61.3,28.4,61.4,28.4,61.4z M27.4,61.4h-0.5c-0.1,0-0.1,0-0.1-0.1s0-0.1,0.1-0.1h0.5
			C27.5,61.2,27.5,61.3,27.4,61.4C27.5,61.3,27.4,61.4,27.4,61.4z M26.4,61.4h-0.5c-0.1,0-0.1,0-0.1-0.1s0-0.1,0.1-0.1h0.5
			C26.5,61.2,26.5,61.3,26.4,61.4C26.5,61.3,26.5,61.4,26.4,61.4z M25.4,61.4h-0.5c-0.1,0-0.1,0-0.1-0.1s0-0.1,0.1-0.1h0.5
			C25.5,61.2,25.5,61.3,25.4,61.4C25.5,61.3,25.4,61.4,25.4,61.4z M24.4,61.4h-0.5c-0.1,0-0.1,0-0.1-0.1s0-0.1,0.1-0.1h0.5
			C24.5,61.2,24.5,61.3,24.4,61.4C24.5,61.3,24.4,61.4,24.4,61.4z M23.4,61.4h-0.5c-0.1,0-0.1,0-0.1-0.1s0-0.1,0.1-0.1h0.5
			C23.4,61.2,23.5,61.3,23.4,61.4C23.5,61.3,23.4,61.4,23.4,61.4z M22.4,61.4h-0.5c-0.1,0-0.1,0-0.1-0.1s0-0.1,0.1-0.1h0.5
			C22.5,61.2,22.5,61.3,22.4,61.4C22.5,61.3,22.5,61.4,22.4,61.4z M21.4,61.4h-0.5c-0.1,0-0.1,0-0.1-0.1s0-0.1,0.1-0.1h0.5
			C21.5,61.2,21.5,61.3,21.4,61.4C21.5,61.3,21.5,61.4,21.4,61.4z M20.4,61.4h-0.5c-0.1,0-0.1,0-0.1-0.1s0-0.1,0.1-0.1h0.5
			C20.5,61.2,20.5,61.3,20.4,61.4C20.5,61.3,20.4,61.4,20.4,61.4z M19.4,61.4h-0.5c-0.1,0-0.1,0-0.1-0.1s0-0.1,0.1-0.1h0.5
			C19.5,61.2,19.5,61.3,19.4,61.4C19.5,61.3,19.5,61.4,19.4,61.4z M18.4,61.4h-0.5c-0.1,0-0.1,0-0.1-0.1s0-0.1,0.1-0.1h0.5
			C18.5,61.2,18.5,61.3,18.4,61.4C18.5,61.3,18.4,61.4,18.4,61.4z M17.4,61.4h-0.5c-0.1,0-0.1,0-0.1-0.1s0-0.1,0.1-0.1h0.5
			C17.5,61.2,17.5,61.3,17.4,61.4C17.5,61.3,17.4,61.4,17.4,61.4z"/>
	</g>
</g>
<g id="playButton">
	<g>
		<path fill="#151F2C" d="M39.7,57.1h-0.6c-0.1,0-0.1,0-0.1-0.1s0-0.1,0.1-0.1h0.6C39.8,56.9,39.8,56.9,39.7,57.1
			C39.8,57,39.8,57.1,39.7,57.1z M38.6,57.1H38c-0.1,0-0.1,0-0.1-0.1s0-0.1,0.1-0.1h0.6C38.6,56.9,38.7,56.9,38.6,57.1
			C38.7,57,38.6,57.1,38.6,57.1z M37.4,57.1h-0.6c-0.1,0-0.1,0-0.1-0.1s0-0.1,0.1-0.1h0.6C37.5,56.9,37.5,56.9,37.4,57.1
			C37.5,57,37.5,57.1,37.4,57.1z M36.3,57.1h-0.6c-0.1,0-0.1,0-0.1-0.1s0-0.1,0.1-0.1h0.6C36.4,56.9,36.4,56.9,36.3,57.1
			C36.4,57,36.4,57.1,36.3,57.1z M35.2,57.1h-0.6c-0.1,0-0.1,0-0.1-0.1s0-0.1,0.1-0.1h0.6C35.2,56.9,35.3,56.9,35.2,57.1
			C35.3,57,35.2,57.1,35.2,57.1z M34,57.1h-0.6c-0.1,0-0.1,0-0.1-0.1s0-0.1,0.1-0.1H34C34.1,56.9,34.1,56.9,34,57.1
			C34.1,57,34.1,57.1,34,57.1z M32.9,57.1h-0.6c-0.1,0-0.1,0-0.1-0.1s0-0.1,0.1-0.1h0.6C33,56.9,33,56.9,32.9,57.1
			C33,57,32.9,57.1,32.9,57.1z M31.8,57.1h-0.6c-0.1,0-0.1,0-0.1-0.1s0-0.1,0.1-0.1h0.6C31.8,56.9,31.9,56.9,31.8,57.1
			C31.9,57,31.8,57.1,31.8,57.1z M30.6,57.1H30V57c0-0.1,0-0.1,0.1-0.1h0.6C30.7,56.9,30.7,56.9,30.6,57.1
			C30.7,57,30.7,57.1,30.6,57.1z M29.5,57.1h-0.6c-0.1,0-0.1,0-0.1-0.1s0-0.1,0.1-0.1h0.6C29.6,56.9,29.6,56.9,29.5,57.1
			C29.6,57,29.5,57.1,29.5,57.1z M28.4,57.1h-0.6c-0.1,0-0.1,0-0.1-0.1s0-0.1,0.1-0.1h0.6C28.4,56.9,28.4,56.9,28.4,57.1
			C28.4,57,28.4,57.1,28.4,57.1z M27.2,57.1h-0.6c-0.1,0-0.1,0-0.1-0.1s0-0.1,0.1-0.1h0.6C27.3,56.9,27.3,56.9,27.2,57.1
			C27.3,57,27.3,57.1,27.2,57.1z M26.1,57.1h-0.6c-0.1,0-0.1,0-0.1-0.1s0-0.1,0.1-0.1h0.6C26.1,56.9,26.2,56.9,26.1,57.1
			C26.2,57,26.1,57.1,26.1,57.1z M24.9,57.1h-0.6c-0.1,0-0.1,0-0.1-0.1s0-0.1,0.1-0.1h0.6C25,56.9,25,56.9,24.9,57.1
			C25,57,25,57.1,24.9,57.1z M23.8,57.1h-0.6c-0.1,0-0.1,0-0.1-0.1s0-0.1,0.1-0.1h0.6C23.9,56.9,23.9,56.9,23.8,57.1
			C23.9,57,23.9,57.1,23.8,57.1z M22.7,57.1h-0.6C22,57.1,22,57,22,57c0-0.1,0-0.1,0.1-0.1h0.6C22.7,56.9,22.7,56.9,22.7,57.1
			C22.7,57,22.7,57.1,22.7,57.1z M21.5,57.1H21c-0.1,0-0.1,0-0.1-0.1s0-0.1,0.1-0.1h0.6C21.6,56.9,21.6,56.9,21.5,57.1
			C21.6,57,21.6,57.1,21.5,57.1z M20.4,57.1h-0.5c0,0,0,0-0.1,0S19.7,57,19.7,57l0.1-0.1c0,0,0,0,0.1,0h0.5
			C20.4,56.9,20.5,56.9,20.4,57.1C20.5,57,20.4,57.1,20.4,57.1z M40.3,56.9C40.2,56.9,40.2,56.9,40.3,56.9c-0.1-0.1-0.1-0.1-0.1-0.2
			c0.1-0.1,0.3-0.2,0.3-0.4c0-0.1,0.1-0.1,0.1-0.1c0.1,0,0.1,0.1,0.1,0.1C40.6,56.6,40.5,56.8,40.3,56.9L40.3,56.9z M19.3,56.9
			L19.3,56.9c-0.2-0.2-0.3-0.3-0.4-0.5c0-0.1,0-0.1,0.1-0.1s0.1,0,0.1,0.1c0.1,0.2,0.2,0.3,0.3,0.4C19.4,56.7,19.4,56.8,19.3,56.9
			L19.3,56.9z M40.7,55.9C40.6,55.9,40.6,55.9,40.7,55.9l-0.1-0.7c0-0.1,0-0.1,0.1-0.1s0.1,0,0.1,0.1L40.7,55.9
			C40.8,55.9,40.7,55.9,40.7,55.9z M18.9,55.9C18.9,55.9,18.8,55.8,18.9,55.9l-0.1-0.7c0-0.1,0-0.1,0.1-0.1s0.1,0,0.1,0.1L18.9,55.9
			C19,55.8,19,55.9,18.9,55.9z M40.7,54.8C40.6,54.8,40.6,54.7,40.7,54.8l-0.1-0.7c0-0.1,0-0.1,0.1-0.1s0.1,0,0.1,0.1L40.7,54.8
			C40.8,54.7,40.7,54.8,40.7,54.8z M18.9,54.7C18.9,54.7,18.8,54.7,18.9,54.7L18.8,54c0-0.1,0-0.1,0.1-0.1s0.1,0,0.1,0.1L18.9,54.7
			C19,54.7,19,54.7,18.9,54.7z M40.7,53.6C40.6,53.6,40.6,53.6,40.7,53.6L40.6,53c0-0.1,0-0.1,0.1-0.1s0.1,0,0.1,0.1L40.7,53.6
			C40.8,53.6,40.7,53.6,40.7,53.6z M18.9,53.6C18.9,53.6,18.8,53.5,18.9,53.6l-0.1-0.7c0-0.1,0-0.1,0.1-0.1s0.1,0,0.1,0.1L18.9,53.6
			C19,53.5,19,53.6,18.9,53.6z M40.7,52.5C40.6,52.5,40.6,52.5,40.7,52.5l-0.1-0.7c0-0.1,0-0.1,0.1-0.1s0.1,0,0.1,0.1L40.7,52.5
			C40.8,52.5,40.7,52.5,40.7,52.5z M18.9,52.4C18.9,52.4,18.8,52.4,18.9,52.4l-0.1-0.7c0-0.1,0-0.1,0.1-0.1s0.1,0,0.1,0.1L18.9,52.4
			C19,52.4,19,52.4,18.9,52.4z M40.7,51.4C40.6,51.4,40.6,51.3,40.7,51.4l-0.1-0.7c0-0.1,0-0.1,0.1-0.1s0.1,0,0.1,0.1L40.7,51.4
			C40.8,51.3,40.7,51.4,40.7,51.4z M18.9,51.3C18.9,51.3,18.8,51.3,18.9,51.3l-0.1-0.7c0-0.1,0-0.1,0.1-0.1s0.1,0,0.1,0.1L18.9,51.3
			C19,51.3,19,51.3,18.9,51.3z M40.7,50.2C40.6,50.2,40.6,50.2,40.7,50.2l-0.1-0.7c0-0.1,0-0.1,0.1-0.1s0.1,0,0.1,0.1L40.7,50.2
			C40.8,50.2,40.7,50.2,40.7,50.2z M18.9,50.2C18.9,50.2,18.8,50.1,18.9,50.2l-0.1-0.7c0-0.1,0-0.1,0.1-0.1s0.1,0,0.1,0.1L18.9,50.2
			C19,50.1,19,50.2,18.9,50.2z M40.7,49.1C40.6,49.1,40.6,49.1,40.7,49.1l-0.1-0.7c0-0.1,0-0.1,0.1-0.1s0.1,0,0.1,0.1L40.7,49.1
			C40.8,49.1,40.7,49.1,40.7,49.1z M18.9,49C18.9,49,18.8,49,18.9,49l-0.1-0.7c0-0.1,0-0.1,0.1-0.1s0.1,0,0.1,0.1L18.9,49
			C19,49,19,49,18.9,49z M40.7,47.9C40.6,47.9,40.6,47.9,40.7,47.9l-0.1-0.7c0-0.1,0-0.1,0.1-0.1s0.1,0,0.1,0.1L40.7,47.9
			C40.8,47.9,40.7,47.9,40.7,47.9z M18.9,47.9C18.9,47.9,18.8,47.8,18.9,47.9l-0.1-0.7c0-0.1,0-0.1,0.1-0.1s0.1,0,0.1,0.1v0.6
			C19,47.8,19,47.9,18.9,47.9z M40.7,46.8C40.6,46.8,40.6,46.8,40.7,46.8l-0.1-0.7c0-0.1,0-0.1,0.1-0.1s0.1,0,0.1,0.1L40.7,46.8
			C40.8,46.8,40.7,46.8,40.7,46.8z M18.9,46.7C18.9,46.7,18.8,46.7,18.9,46.7L18.8,46c0-0.1,0-0.1,0.1-0.1s0.1,0,0.1,0.1L18.9,46.7
			C19,46.7,19,46.7,18.9,46.7z M40.7,45.7C40.6,45.7,40.6,45.6,40.7,45.7l-0.1-0.3c0-0.1,0-0.2,0-0.3s0-0.1,0.1-0.1s0.1,0,0.1,0.1
			s0.1,0.2,0.1,0.3L40.7,45.7C40.8,45.6,40.7,45.7,40.7,45.7z M18.9,45.6C18.9,45.6,18.8,45.6,18.9,45.6l-0.1-0.3
			c0-0.1,0-0.3,0.1-0.4c0-0.1,0.1-0.1,0.1-0.1c0.1,0,0.1,0.1,0.1,0.1c0,0.1-0.1,0.2-0.1,0.3L18.9,45.6C19,45.6,19,45.6,18.9,45.6z
			 M40.3,44.7L40.3,44.7c-0.2-0.1-0.3-0.2-0.5-0.2c-0.1,0-0.1-0.1-0.1-0.1l0.1-0.1c0.2,0,0.4,0.1,0.6,0.2
			C40.4,44.5,40.4,44.6,40.3,44.7C40.4,44.6,40.3,44.7,40.3,44.7z M19.3,44.6L19.3,44.6c-0.1-0.1-0.1-0.1-0.1-0.2
			c0.2-0.1,0.4-0.2,0.6-0.2l0,0c0.1,0,0.1,0,0.1,0.1s0,0.1-0.1,0.1C19.7,44.5,19.5,44.5,19.3,44.6C19.4,44.6,19.4,44.6,19.3,44.6z
			 M39.2,44.5h-0.6c-0.1,0-0.1,0-0.1-0.1s0-0.1,0.1-0.1h0.6C39.3,44.3,39.3,44.3,39.2,44.5C39.3,44.4,39.3,44.5,39.2,44.5z
			 M38.1,44.5h-0.6c-0.1,0-0.1,0-0.1-0.1s0-0.1,0.1-0.1h0.6C38.1,44.3,38.2,44.3,38.1,44.5C38.2,44.4,38.1,44.5,38.1,44.5z
			 M36.9,44.5h-0.6c-0.1,0-0.1,0-0.1-0.1s0-0.1,0.1-0.1h0.6C37,44.3,37,44.3,36.9,44.5C37,44.4,37,44.5,36.9,44.5z M35.8,44.5h-0.6
			c-0.1,0-0.1,0-0.1-0.1s0-0.1,0.1-0.1h0.6C35.9,44.3,35.9,44.3,35.8,44.5C35.9,44.4,35.9,44.5,35.8,44.5z M34.7,44.5h-0.6
			c-0.1,0-0.1,0-0.1-0.1s0-0.1,0.1-0.1h0.6C34.7,44.3,34.8,44.3,34.7,44.5C34.8,44.4,34.7,44.5,34.7,44.5z M33.5,44.5H33
			c-0.1,0-0.1,0-0.1-0.1s0-0.1,0.1-0.1h0.6C33.6,44.3,33.6,44.3,33.5,44.5C33.6,44.4,33.6,44.5,33.5,44.5z M32.4,44.5h-0.6
			c-0.1,0-0.1,0-0.1-0.1s0-0.1,0.1-0.1h0.6C32.4,44.3,32.5,44.3,32.4,44.5C32.5,44.4,32.4,44.5,32.4,44.5z M31.3,44.5h-0.6
			c-0.1,0-0.1,0-0.1-0.1s0-0.1,0.1-0.1h0.6C31.3,44.3,31.4,44.3,31.3,44.5C31.4,44.4,31.3,44.5,31.3,44.5z M30.1,44.5h-0.6
			c-0.1,0-0.1,0-0.1-0.1s0-0.1,0.1-0.1h0.6C30.2,44.3,30.2,44.3,30.1,44.5C30.2,44.4,30.2,44.5,30.1,44.5z M29,44.5h-0.6
			c-0.1,0-0.1,0-0.1-0.1s0-0.1,0.1-0.1H29C29,44.3,29.1,44.3,29,44.5C29.1,44.4,29,44.5,29,44.5z M27.8,44.5h-0.6
			c-0.1,0-0.1,0-0.1-0.1s0-0.1,0.1-0.1h0.6C27.9,44.3,27.9,44.3,27.8,44.5C27.9,44.4,27.9,44.5,27.8,44.5z M26.7,44.5h-0.6
			c-0.1,0-0.1,0-0.1-0.1s0-0.1,0.1-0.1h0.6C26.8,44.3,26.8,44.3,26.7,44.5C26.8,44.4,26.8,44.5,26.7,44.5z M25.6,44.5H25
			c-0.1,0-0.1,0-0.1-0.1s0-0.1,0.1-0.1h0.6C25.6,44.3,25.7,44.3,25.6,44.5C25.7,44.4,25.6,44.5,25.6,44.5z M24.4,44.5h-0.6
			c-0.1,0-0.1,0-0.1-0.1s0-0.1,0.1-0.1h0.6C24.5,44.3,24.5,44.3,24.4,44.5C24.5,44.4,24.5,44.5,24.4,44.5z M23.3,44.5h-0.6
			c-0.1,0-0.1,0-0.1-0.1s0-0.1,0.1-0.1h0.6C23.3,44.3,23.4,44.3,23.3,44.5C23.4,44.4,23.3,44.5,23.3,44.5z M22.1,44.5h-0.6
			c-0.1,0-0.1,0-0.1-0.1s0-0.1,0.1-0.1h0.6C22.2,44.3,22.2,44.3,22.1,44.5C22.2,44.4,22.2,44.5,22.1,44.5z M21,44.5h-0.6
			c-0.1,0-0.1,0-0.1-0.1s0-0.1,0.1-0.1H21C21.1,44.3,21.1,44.3,21,44.5C21.1,44.4,21.1,44.5,21,44.5z"/>
	</g>
	<g>
		<path fill="#E9E9E9" d="M37.2,58.7H17c-0.4,0-0.8-0.3-0.8-0.8v-11c0-0.4,0.3-0.8,0.8-0.8h20.2c0.4,0,0.8,0.3,0.8,0.8v11
			C37.9,58.3,37.6,58.7,37.2,58.7z"/>
		<path fill="#43A1F6" d="M24.6,49.9v5c0,0.3,0.3,0.5,0.6,0.3l3.8-2.5c0.2-0.2,0.2-0.5,0-0.7l-3.8-2.5
			C24.9,49.4,24.6,49.6,24.6,49.9z"/>
		<g>
			<circle fill="#AEC3FF" cx="17.7" cy="57.6" r="0.4"/>
			<path fill="#AEC3FF" d="M35.5,57.7H17.8c-0.1,0-0.1-0.1-0.1-0.1l0,0c0-0.1,0.1-0.1,0.1-0.1h17.7C35.6,57.5,35.6,57.6,35.5,57.7
				L35.5,57.7C35.6,57.6,35.5,57.7,35.5,57.7z"/>
		</g>
	</g>
</g>
<rect x="36.5" y="61.3" fill="#E9E9E9" width="11.3" height="16.8"/>
<g id="men">
	<g>
		<rect x="36.7" y="89.2" fill="#43A1F6" width="5.3" height="4.5"/>
		<rect x="36.5" y="89" fill="#384152" width="5.7" height="0.3"/>
		<rect x="36.7" y="90.4" fill="#384152" width="5.3" height="1.4"/>
	</g>
	<g id="Men">
		<g>
			<g>
				<path fill="#384152" d="M43.2,66.7H43V66c0-0.3,0.2-0.4,0.4-0.4h1.9c0.1,0,0.3-0.1,0.3-0.2l0.3-1.1c0-0.1,0-0.2-0.1-0.3
					c-0.1-0.1-0.1-0.1-0.2-0.1h-2.5v-0.2h2.5c0.1,0,0.3,0.1,0.3,0.2c0,0.1,0.1,0.3,0.1,0.4l-0.3,1.1c-0.1,0.2-0.2,0.3-0.4,0.3h-1.9
					c-0.2,0-0.3,0.1-0.3,0.3L43.2,66.7L43.2,66.7z"/>
			</g>
			<path fill="#43A1F6" d="M45,64.4h-3.3c-0.3,0-0.5-0.2-0.5-0.5v-0.3c0-0.3,0.2-0.5,0.5-0.5H45c0.3,0,0.5,0.2,0.5,0.5v0.3
				C45.5,64.2,45.3,64.4,45,64.4z"/>
			<path fill="#384152" d="M43.2,69.6L43.2,69.6c-0.2,0-0.4-0.2-0.4-0.4v-2.6c0-0.2,0.2-0.4,0.4-0.4l0,0c0.2,0,0.4,0.2,0.4,0.4v2.6
				C43.6,69.4,43.4,69.6,43.2,69.6z"/>
		</g>
		<g>
			<path fill="#EE805F" d="M59.4,75.1c0,0,0.3,0.9,0.3,1.1s-0.2,0.9-0.3,1.1s-0.2-0.7-0.3-0.9c-0.1-0.1,0,0.3-0.1,0.4
				c-0.1,0-0.2-0.3-0.3-0.5c-0.1-0.1,0.2-0.7,0.2-1C58.8,75,59.4,75.1,59.4,75.1z"/>
			<path fill="#151F2C" d="M52.5,68c-0.1-1,1-1.7,1.9-1.2c0,0,0,0,0.1,0c1.3,0.9,4.2,4.8,4.4,5.2s0.8,3.6,0.8,3.6s-0.7,0.3-1,0
				c0,0-1.2-3-1.3-3.1c-0.2-0.2-4.6-2.7-4.7-3.6C52.6,68.6,52.5,68.3,52.5,68z"/>
		</g>
		<g>
			<path fill="#2A4A7C" d="M60.5,91.2c0,0,0.5,0.5,0.4,0.8s-0.6,0.6-0.7,1c-0.1,0.4-0.3,0.7-0.6,0.7c-0.2,0-1.1,0-1.1,0
				s-0.2-0.3,0.3-0.4c0.4-0.1,0.6-0.6,0.5-1c0-0.5,0-1.1,0-1.1l0.9-0.2L60.5,91.2z"/>
			<path fill="#2A4A7C" d="M54,92.5c0,0,0.1,1.1-0.1,1.2h-3c0,0,0-0.3,0.5-0.4s1.3-0.3,1.5-1C52.9,91.7,54,92.5,54,92.5z"/>
			<path fill="#43A1F6" d="M51.4,76.9c0,0,0.2,1.9,0.3,4.3c0.3,3.2,0.5,7.1,0.6,7.8c0.1,1.3,0.3,3.3,0.3,3.3s0.5,0.5,1.5,0.3
				c0,0,0.9-2.9,1.1-6c0-0.1,0-0.1,0-0.2c0.2-3.1,0.6-9.8,0.6-9.8L51.4,76.9z"/>
			<path fill="#2B6EB2" d="M51.4,76.9c0,0,0.2,1.9,0.3,4.3l3.5,5.4c0-0.1,0-0.1,0-0.2c0.2-3.1,0.6-9.8,0.6-9.8L51.4,76.9z"/>
			<path fill="#43A1F6" d="M52.2,77.1c0,0,2.8,7,4.7,10.3s2.5,4.2,2.5,4.2s1.1-0.4,1.2-0.7c0,0-0.7-6.4-2-7.9
				c-0.7-0.9-1.6-3.5-1.6-4.4s-0.3-2.8-0.3-2.8L52.2,77.1z"/>
		</g>
		<path fill="#EE805F" d="M54.6,66.6c0,0-1.9,1-3,0.6c0,0,0.3-0.3,0.7-0.6c0-0.2-0.1-0.4-0.1-0.6c-0.1-0.4-0.1-0.6-0.1-0.6l0.7-0.6
			l0.7-0.6C53.6,65.8,54.6,66.6,54.6,66.6z"/>
		<path fill="#384152" d="M56.5,76.4c-0.8,0.5-1.5,0.8-2.3,1c-1,0.2-2.2,0.2-2.7,0.2h-0.1c0,0-0.2-1.2-0.4-2.8c0-0.1,0-0.1,0-0.2
			l0,0c-0.1-0.6-0.1-1.2-0.2-1.9c0-0.5-0.1-1-0.1-1.5c0-0.6,0-1.1,0-1.6c0-0.2,0-0.4,0-0.5c0.1-0.9,0.5-1.6,0.9-2l0.3-0.4
			c0.4,0,0.8-0.1,1.2-0.3c0.4-0.3,0.9-0.6,0.9-0.5c0.6,0.3,1.1,1.2,1.5,2.4c0.2,0.7,0.4,1.5,0.5,2.3c0,0.3,0.1,0.5,0.1,0.8
			c0,0.1,0,0.1,0,0.1c0.1,0.7,0.1,1.4,0.2,2c0.1,0.8,0.3,1.5,0.3,1.9c0.1,0.2,0.1,0.4,0.1,0.6C56.8,76.2,56.6,76.3,56.5,76.4z"/>
		<path fill="#DE6B4D" d="M53.6,64.8c0,0-0.5,0.9-1.4,1.2c-0.1-0.4-0.1-0.6-0.1-0.6l0.7-0.6H53.6z"/>
		<path fill="#EE805F" d="M51.8,65.4c0,0,1.8,0.3,2-0.9c0.2-1.1,0.5-1.9-0.7-2.1c-1.2-0.2-1.5,0.2-1.6,0.5
			C51.4,63.4,51.4,65.3,51.8,65.4z"/>
		<path fill="#151F2C" d="M54.5,62.3L54.5,62.3C54.6,62.3,54.5,62.2,54.5,62.3c-0.1-0.2-0.1-0.4-0.3-0.5c0,0,0.1,0.1,0.1,0.2
			c-0.2-0.2-0.8-0.4-2.2-0.3c-1.9,0.2-1.2,1.4-1,1.5s0.8-0.3,1.3-0.2c0.4,0,0.5,0.7,0.7,0.8s0.1-0.1,0.3-0.2
			c0.2-0.1,0.2,0.2,0.2,0.5c-0.1,0.2,0.2,0.5,0.2,0.5s0,0,0.3-0.3C54.4,63.9,54.6,62.6,54.5,62.3L54.5,62.3z"/>
		<path fill="#151F2C" d="M53.9,69.8c0,0-1.6,1.2-3.2,1.4c0-0.6,0-1.1,0-1.6L53.9,69.8z"/>
		<g>
			<path fill="#EE805F" d="M44.3,68.3c0,0-0.3-1.1-0.9-1c-0.3,0.1-0.9,0.3-0.8,0.7c0.1,0.2,1.2,0.8,1.2,0.8L44.3,68.3z"/>
			<path fill="#384152" d="M54.1,67.6c0.9,0.5,0.8,1.9-0.1,2.3c0,0,0,0-0.1,0c-1.5,0.6-6.3,0.6-6.8,0.5c-0.4-0.1-3.4-1.4-3.4-1.4
				s0.2-0.7,0.6-0.9c0,0,3.1,0.8,3.3,0.7c0.2-0.1,4.8-2.2,5.6-1.7C53.5,67.2,53.8,67.4,54.1,67.6z"/>
		</g>
	</g>
</g>
<g>
	<path fill="#EBF3FA" d="M86.9,32.8H83c-0.2,0-0.3-0.1-0.3-0.3l0,0c0-0.2,0.1-0.3,0.3-0.3h3.9c0.2,0,0.3,0.1,0.3,0.3l0,0
		C87.2,32.6,87.1,32.8,86.9,32.8z"/>
	<path fill="#EBF3FA" d="M86.9,33.9H83c-0.2,0-0.3-0.1-0.3-0.3l0,0c0-0.2,0.1-0.3,0.3-0.3h3.9c0.2,0,0.3,0.1,0.3,0.3l0,0
		C87.2,33.8,87.1,33.9,86.9,33.9z"/>
	<path fill="#EBF3FA" d="M86.9,35.1H83c-0.2,0-0.3-0.1-0.3-0.3l0,0c0-0.2,0.1-0.3,0.3-0.3h3.9c0.2,0,0.3,0.1,0.3,0.3l0,0
		C87.2,35,87.1,35.1,86.9,35.1z"/>
</g>
<g id="textGroupBR">
	<g>
		<path fill="#151F2C" d="M72.1,72.9h-0.5c-0.1,0-0.1,0-0.1-0.1s0-0.1,0.1-0.1h0.5C72.1,72.7,72.1,72.7,72.1,72.9
			C72.2,72.8,72.1,72.9,72.1,72.9z M71.1,72.9h-0.5c-0.1,0-0.1,0-0.1-0.1s0-0.1,0.1-0.1h0.5C71.1,72.7,71.1,72.7,71.1,72.9
			C71.1,72.8,71.1,72.9,71.1,72.9z M70,72.9h-0.5c-0.1,0-0.1,0-0.1-0.1s0-0.1,0.1-0.1H70C70.1,72.7,70.1,72.7,70,72.9
			C70.1,72.8,70.1,72.9,70,72.9z M69,72.9h-0.5c-0.1,0-0.1,0-0.1-0.1s0-0.1,0.1-0.1H69C69.1,72.7,69.1,72.7,69,72.9
			C69.1,72.8,69.1,72.9,69,72.9z M68,72.9h-0.5c-0.1,0-0.1,0-0.1-0.1s0-0.1,0.1-0.1H68C68.1,72.7,68.1,72.7,68,72.9
			C68.1,72.8,68.1,72.9,68,72.9z M67,72.9h-0.5c-0.1,0-0.1,0-0.1-0.1s0-0.1,0.1-0.1H67C67.1,72.7,67.1,72.7,67,72.9
			C67.1,72.8,67.1,72.9,67,72.9z M66,72.9h-0.5c-0.1,0-0.1,0-0.1-0.1s0-0.1,0.1-0.1H66C66.1,72.7,66.1,72.7,66,72.9
			C66.1,72.8,66.1,72.9,66,72.9z M65,72.9h-0.5c-0.1,0-0.1,0-0.1-0.1s0-0.1,0.1-0.1H65C65.1,72.7,65.1,72.7,65,72.9
			C65.1,72.8,65,72.9,65,72.9z M64,72.9h-0.5c-0.1,0-0.1,0-0.1-0.1s0-0.1,0.1-0.1H64C64.1,72.7,64.1,72.7,64,72.9
			C64.1,72.8,64.1,72.9,64,72.9z M63,72.9h-0.5l0,0c-0.1,0-0.1,0-0.1-0.1s0-0.1,0.1-0.1l0,0H63C63.1,72.7,63.1,72.7,63,72.9
			C63.1,72.8,63,72.9,63,72.9z M72.4,72.5L72.4,72.5C72.3,72.5,72.3,72.5,72.4,72.5L72.4,72.5L72.3,72c0-0.1,0-0.1,0.1-0.1
			s0.1,0,0.1,0.1L72.4,72.5C72.5,72.5,72.4,72.5,72.4,72.5z M62.2,72.5C62.1,72.5,62.1,72.5,62.2,72.5l-0.1-0.6c0-0.1,0-0.1,0.1-0.1
			s0.1,0,0.1,0.1L62.2,72.5C62.3,72.5,62.2,72.5,62.2,72.5z M72.4,71.5C72.3,71.5,72.3,71.5,72.4,71.5L72.3,71c0-0.1,0-0.1,0.1-0.1
			s0.1,0,0.1,0.1L72.4,71.5C72.5,71.5,72.4,71.5,72.4,71.5z M62.2,71.5C62.1,71.5,62.1,71.5,62.2,71.5l-0.1-0.6c0-0.1,0-0.1,0.1-0.1
			s0.1,0,0.1,0.1L62.2,71.5C62.3,71.5,62.2,71.5,62.2,71.5z M72.4,70.5C72.3,70.5,72.3,70.5,72.4,70.5l-0.1-0.6c0-0.1,0-0.1,0.1-0.1
			s0.1,0,0.1,0.1L72.4,70.5C72.5,70.5,72.4,70.5,72.4,70.5z M62.2,70.5C62.1,70.5,62.1,70.5,62.2,70.5l-0.1-0.6l0,0
			c0-0.1,0-0.1,0.1-0.1s0.1,0,0.1,0.1l0,0L62.2,70.5C62.3,70.5,62.2,70.5,62.2,70.5z M72.1,69.7L72.1,69.7L72.1,69.7h-0.5
			c-0.1,0-0.1,0-0.1-0.1s0-0.1,0.1-0.1h0.5l0,0C72.1,69.5,72.2,69.6,72.1,69.7C72.2,69.7,72.1,69.7,72.1,69.7z M71.1,69.7h-0.5
			c-0.1,0-0.1,0-0.1-0.1s0-0.1,0.1-0.1h0.5C71.1,69.5,71.1,69.6,71.1,69.7L71.1,69.7z M70.1,69.7h-0.5c-0.1,0-0.1,0-0.1-0.1
			s0-0.1,0.1-0.1h0.5C70.1,69.5,70.1,69.6,70.1,69.7L70.1,69.7z M69.1,69.7h-0.5c-0.1,0-0.1,0-0.1-0.1s0-0.1,0.1-0.1h0.5
			C69.1,69.5,69.1,69.6,69.1,69.7L69.1,69.7z M68,69.7h-0.5c-0.1,0-0.1,0-0.1-0.1s0-0.1,0.1-0.1H68C68.1,69.5,68.1,69.6,68,69.7
			C68.1,69.7,68.1,69.7,68,69.7z M67,69.7h-0.5c-0.1,0-0.1,0-0.1-0.1s0-0.1,0.1-0.1H67C67.1,69.5,67.1,69.6,67,69.7
			C67.1,69.7,67.1,69.7,67,69.7z M66,69.7h-0.5c-0.1,0-0.1,0-0.1-0.1s0-0.1,0.1-0.1H66C66.1,69.5,66.1,69.6,66,69.7
			C66.1,69.7,66.1,69.7,66,69.7z M65,69.7h-0.5c-0.1,0-0.1,0-0.1-0.1s0-0.1,0.1-0.1H65C65.1,69.5,65.1,69.6,65,69.7
			C65.1,69.7,65.1,69.7,65,69.7z M64,69.7h-0.5c-0.1,0-0.1,0-0.1-0.1s0-0.1,0.1-0.1H64C64.1,69.5,64.1,69.6,64,69.7
			C64.1,69.7,64.1,69.7,64,69.7z M63,69.7h-0.5c-0.1,0-0.1,0-0.1-0.1s0-0.1,0.1-0.1H63C63.1,69.5,63.1,69.6,63,69.7
			C63.1,69.7,63,69.7,63,69.7z"/>
	</g>
	<g>
		<path fill="#151F2C" d="M72.1,77.5h-0.5c-0.1,0-0.1,0-0.1-0.1s0-0.1,0.1-0.1h0.5C72.1,77.4,72.1,77.4,72.1,77.5
			C72.2,77.5,72.1,77.5,72.1,77.5z M71.1,77.5h-0.5c-0.1,0-0.1,0-0.1-0.1s0-0.1,0.1-0.1h0.5C71.1,77.4,71.1,77.4,71.1,77.5
			L71.1,77.5z M70,77.5h-0.5c-0.1,0-0.1,0-0.1-0.1s0-0.1,0.1-0.1H70C70.1,77.4,70.1,77.4,70,77.5C70.1,77.5,70.1,77.5,70,77.5z
			 M69,77.5h-0.5c-0.1,0-0.1,0-0.1-0.1s0-0.1,0.1-0.1H69C69.1,77.4,69.1,77.4,69,77.5C69.1,77.5,69.1,77.5,69,77.5z M68,77.5h-0.5
			c-0.1,0-0.1,0-0.1-0.1s0-0.1,0.1-0.1H68C68.1,77.4,68.1,77.4,68,77.5C68.1,77.5,68.1,77.5,68,77.5z M67,77.5h-0.5
			c-0.1,0-0.1,0-0.1-0.1s0-0.1,0.1-0.1H67C67.1,77.4,67.1,77.4,67,77.5C67.1,77.5,67.1,77.5,67,77.5z M66,77.5h-0.5
			c-0.1,0-0.1,0-0.1-0.1s0-0.1,0.1-0.1H66C66.1,77.4,66.1,77.4,66,77.5C66.1,77.5,66.1,77.5,66,77.5z M65,77.5h-0.5
			c-0.1,0-0.1,0-0.1-0.1s0-0.1,0.1-0.1H65C65.1,77.4,65.1,77.4,65,77.5C65.1,77.5,65,77.5,65,77.5z M64,77.5h-0.5
			c-0.1,0-0.1,0-0.1-0.1s0-0.1,0.1-0.1H64C64.1,77.4,64.1,77.4,64,77.5C64.1,77.5,64.1,77.5,64,77.5z M63,77.5h-0.5l0,0
			c-0.1,0-0.1,0-0.1-0.1s0-0.1,0.1-0.1l0,0H63C63.1,77.3,63.1,77.4,63,77.5C63.1,77.5,63,77.5,63,77.5z M72.4,77.2L72.4,77.2
			C72.3,77.2,72.3,77.2,72.4,77.2L72.4,77.2l-0.1-0.6c0-0.1,0-0.1,0.1-0.1s0.1,0,0.1,0.1L72.4,77.2C72.5,77.2,72.4,77.2,72.4,77.2z
			 M62.2,77.2C62.1,77.2,62.1,77.1,62.2,77.2l-0.1-0.6c0-0.1,0-0.1,0.1-0.1s0.1,0,0.1,0.1L62.2,77.2C62.3,77.1,62.2,77.2,62.2,77.2z
			 M72.4,76.2C72.3,76.2,72.3,76.1,72.4,76.2l-0.1-0.6c0-0.1,0-0.1,0.1-0.1s0.1,0,0.1,0.1L72.4,76.2C72.5,76.1,72.4,76.2,72.4,76.2z
			 M62.2,76.2C62.1,76.2,62.1,76.1,62.2,76.2l-0.1-0.6c0-0.1,0-0.1,0.1-0.1s0.1,0,0.1,0.1L62.2,76.2C62.3,76.1,62.2,76.2,62.2,76.2z
			 M72.4,75.2C72.3,75.2,72.3,75.1,72.4,75.2l-0.1-0.6c0-0.1,0-0.1,0.1-0.1s0.1,0,0.1,0.1L72.4,75.2C72.5,75.1,72.4,75.2,72.4,75.2z
			 M62.2,75.2C62.1,75.2,62.1,75.1,62.2,75.2l-0.1-0.6l0,0c0-0.1,0-0.1,0.1-0.1s0.1,0,0.1,0.1l0,0L62.2,75.2
			C62.3,75.1,62.2,75.2,62.2,75.2z M72.1,74.3L72.1,74.3L72.1,74.3h-0.5c-0.1,0-0.1,0-0.1-0.1s0-0.1,0.1-0.1h0.5l0,0
			C72.1,74.2,72.2,74.2,72.1,74.3C72.2,74.3,72.1,74.3,72.1,74.3z M71.1,74.3h-0.5c-0.1,0-0.1,0-0.1-0.1s0-0.1,0.1-0.1h0.5
			C71.1,74.2,71.1,74.2,71.1,74.3L71.1,74.3z M70.1,74.3h-0.5c-0.1,0-0.1,0-0.1-0.1s0-0.1,0.1-0.1h0.5
			C70.1,74.2,70.1,74.2,70.1,74.3L70.1,74.3z M69.1,74.3h-0.5c-0.1,0-0.1,0-0.1-0.1s0-0.1,0.1-0.1h0.5
			C69.1,74.2,69.1,74.2,69.1,74.3L69.1,74.3z M68,74.3h-0.5c-0.1,0-0.1,0-0.1-0.1s0-0.1,0.1-0.1H68C68.1,74.2,68.1,74.2,68,74.3
			C68.1,74.3,68.1,74.3,68,74.3z M67,74.3h-0.5c-0.1,0-0.1,0-0.1-0.1s0-0.1,0.1-0.1H67C67.1,74.2,67.1,74.2,67,74.3
			C67.1,74.3,67.1,74.3,67,74.3z M66,74.3h-0.5c-0.1,0-0.1,0-0.1-0.1s0-0.1,0.1-0.1H66C66.1,74.2,66.1,74.2,66,74.3
			C66.1,74.3,66.1,74.3,66,74.3z M65,74.3h-0.5c-0.1,0-0.1,0-0.1-0.1s0-0.1,0.1-0.1H65C65.1,74.2,65.1,74.2,65,74.3
			C65.1,74.3,65.1,74.3,65,74.3z M64,74.3h-0.5c-0.1,0-0.1,0-0.1-0.1s0-0.1,0.1-0.1H64C64.1,74.2,64.1,74.2,64,74.3
			C64.1,74.3,64.1,74.3,64,74.3z M63,74.3h-0.5c-0.1,0-0.1,0-0.1-0.1s0-0.1,0.1-0.1H63C63.1,74.2,63.1,74.2,63,74.3
			C63.1,74.3,63,74.3,63,74.3z"/>
	</g>
	<path fill="#EBF3FA" d="M71.7,63.2h-9.3c-0.2,0-0.4-0.2-0.4-0.4l0,0c0-0.2,0.2-0.4,0.4-0.4h9.3c0.2,0,0.4,0.2,0.4,0.4l0,0
		C72.1,63,71.9,63.2,71.7,63.2z"/>
	<path fill="#EBF3FA" d="M71.7,67.1h-9.3c-0.2,0-0.4-0.2-0.4-0.4l0,0c0-0.2,0.2-0.4,0.4-0.4h9.3c0.2,0,0.4,0.2,0.4,0.4l0,0
		C72.1,66.9,71.9,67.1,71.7,67.1z"/>
	<path fill="#EBF3FA" d="M71.7,65.1H60.6c-0.2,0-0.4-0.2-0.4-0.4l0,0c0-0.2,0.2-0.4,0.4-0.4h11.1c0.2,0,0.4,0.2,0.4,0.4l0,0
		C72.1,65,71.9,65.1,71.7,65.1z"/>
</g>
<g id="textGroup">
	<g>
		<path fill="#151F2C" d="M36.1,42.8h-0.6c-0.1,0-0.1,0-0.1-0.1s0-0.1,0.1-0.1h0.6C36.1,42.6,36.2,42.6,36.1,42.8
			C36.2,42.8,36.1,42.8,36.1,42.8z M35,42.8h-0.6c-0.1,0-0.1,0-0.1-0.1s0-0.1,0.1-0.1H35C35,42.6,35.1,42.6,35,42.8
			C35.1,42.8,35,42.8,35,42.8z M33.8,42.8h-0.6c-0.1,0-0.1,0-0.1-0.1s0-0.1,0.1-0.1h0.6C33.9,42.6,33.9,42.6,33.8,42.8
			C33.9,42.8,33.9,42.8,33.8,42.8z M32.7,42.8h-0.6c-0.1,0-0.1,0-0.1-0.1s0-0.1,0.1-0.1h0.6C32.8,42.6,32.8,42.6,32.7,42.8
			C32.8,42.8,32.8,42.8,32.7,42.8z M31.6,42.8H31c-0.1,0-0.1,0-0.1-0.1s0-0.1,0.1-0.1h0.6C31.7,42.6,31.7,42.6,31.6,42.8
			C31.7,42.8,31.6,42.8,31.6,42.8z M30.5,42.8h-0.6c-0.1,0-0.1,0-0.1-0.1s0-0.1,0.1-0.1h0.6C30.6,42.6,30.6,42.6,30.5,42.8
			C30.6,42.8,30.5,42.8,30.5,42.8z M29.4,42.8h-0.6c-0.1,0-0.1,0-0.1-0.1s0-0.1,0.1-0.1h0.6C29.4,42.6,29.5,42.6,29.4,42.8
			C29.5,42.8,29.4,42.8,29.4,42.8z M28.3,42.7C28.3,42.7,28.2,42.7,28.3,42.7c-0.2-0.1-0.3-0.3-0.3-0.5v-0.1c0-0.1,0-0.1,0.1-0.1
			s0.1,0,0.1,0.1v0.1c0,0.1,0.1,0.3,0.2,0.3C28.4,42.6,28.4,42.6,28.3,42.7L28.3,42.7z M36.5,42.5L36.5,42.5
			C36.4,42.5,36.4,42.4,36.5,42.5l-0.1-0.2v-0.4c0-0.1,0-0.1,0.1-0.1s0.1,0,0.1,0.1v0.4C36.6,42.3,36.6,42.4,36.5,42.5
			C36.6,42.5,36.5,42.5,36.5,42.5z M28,41.7C28,41.7,27.9,41.7,28,41.7L27.9,41c0-0.1,0-0.1,0.1-0.1s0.1,0,0.1,0.1L28,41.7
			C28.1,41.6,28.1,41.7,28,41.7z M36.5,41.4C36.5,41.4,36.4,41.3,36.5,41.4l-0.1-0.7c0-0.1,0-0.1,0.1-0.1s0.1,0,0.1,0.1L36.5,41.4
			C36.6,41.3,36.6,41.4,36.5,41.4z M28,40.6C28,40.6,27.9,40.5,28,40.6l-0.1-0.7c0-0.1,0-0.1,0.1-0.1s0.1,0,0.1,0.1L28,40.6
			C28.1,40.5,28.1,40.6,28,40.6z M36.5,40.3C36.5,40.3,36.4,40.2,36.5,40.3l-0.1-0.7c0-0.1,0-0.1,0.1-0.1s0.1,0,0.1,0.1L36.5,40.3
			C36.6,40.2,36.6,40.3,36.5,40.3z M28,39.5C28,39.5,27.9,39.4,28,39.5l-0.1-0.7c0-0.1,0-0.1,0.1-0.1s0.1,0,0.1,0.1L28,39.5
			C28.1,39.4,28.1,39.5,28,39.5z M36.5,39.1C36.5,39.1,36.4,39.1,36.5,39.1l-0.1-0.7c0-0.1,0-0.1,0.1-0.1s0.1,0,0.1,0.1L36.5,39.1
			C36.6,39.1,36.6,39.1,36.5,39.1z M28,38.4C28,38.4,27.9,38.3,28,38.4l-0.1-0.7c0-0.1,0-0.1,0.1-0.1s0.1,0,0.1,0.1L28,38.4
			C28.1,38.3,28.1,38.4,28,38.4z M36.5,38C36.5,38,36.4,38,36.5,38l-0.1-0.7c0-0.1,0-0.1,0.1-0.1s0.1,0,0.1,0.1L36.5,38
			C36.6,38,36.6,38,36.5,38z M28,37.2C28,37.2,27.9,37.2,28,37.2l-0.1-0.6c0-0.1,0-0.1,0.1-0.1s0.1,0,0.1,0.1L28,37.2
			C28.1,37.2,28.1,37.2,28,37.2z M36.5,36.9C36.5,36.9,36.4,36.9,36.5,36.9l-0.1-0.7c0-0.1,0-0.1,0.1-0.1s0.1,0,0.1,0.1L36.5,36.9
			C36.6,36.9,36.6,36.9,36.5,36.9z M28,36.1C28,36.1,27.9,36.1,28,36.1l-0.1-0.5c0-0.1,0-0.1,0-0.2c0-0.1,0.1-0.1,0.1-0.1
			c0.1,0,0.1,0.1,0.1,0.1v0.1L28,36.1C28.1,36.1,28.1,36.1,28,36.1z M36.5,35.8C36.5,35.8,36.4,35.8,36.5,35.8l-0.1-0.2
			c0-0.1-0.1-0.3-0.2-0.3c0,0-0.1-0.1,0-0.1c0,0,0.1-0.1,0.1,0C36.5,35.3,36.6,35.5,36.5,35.8L36.5,35.8
			C36.6,35.8,36.6,35.8,36.5,35.8z M35.7,35.3h-0.6c-0.1,0-0.1,0-0.1-0.1s0-0.1,0.1-0.1h0.6C35.8,35.1,35.8,35.1,35.7,35.3
			C35.8,35.2,35.8,35.3,35.7,35.3z M34.6,35.3H34c-0.1,0-0.1,0-0.1-0.1s0-0.1,0.1-0.1h0.6C34.7,35.1,34.7,35.1,34.6,35.3
			C34.7,35.2,34.7,35.3,34.6,35.3z M33.5,35.3H33c-0.1,0-0.1,0-0.1-0.1s0-0.1,0.1-0.1h0.6C33.6,35.1,33.6,35.1,33.5,35.3
			C33.6,35.2,33.6,35.3,33.5,35.3z M32.4,35.3h-0.6c-0.1,0-0.1,0-0.1-0.1s0-0.1,0.1-0.1h0.6C32.5,35.1,32.5,35.1,32.4,35.3
			C32.5,35.2,32.5,35.3,32.4,35.3z M31.3,35.3h-0.6c-0.1,0-0.1,0-0.1-0.1s0-0.1,0.1-0.1h0.6C31.3,35.1,31.4,35.1,31.3,35.3
			C31.4,35.2,31.3,35.3,31.3,35.3z M30.2,35.3h-0.6c-0.1,0-0.1,0-0.1-0.1s0-0.1,0.1-0.1h0.6C30.2,35.1,30.3,35.1,30.2,35.3
			C30.3,35.2,30.2,35.3,30.2,35.3z M29,35.3h-0.5c-0.1,0-0.1,0-0.1-0.1s0-0.1,0.1-0.1h0.6c0.1,0,0.1,0,0.1,0.1
			C29.2,35.2,29.1,35.3,29,35.3z"/>
	</g>
	<g id="text-group">
		<path fill="#EBF3FA" d="M26.4,36.1h-9.2c-0.2,0-0.4-0.2-0.4-0.4l0,0c0-0.2,0.2-0.4,0.4-0.4h9.3c0.2,0,0.4,0.2,0.4,0.4l0,0
			C26.8,35.9,26.6,36.1,26.4,36.1z"/>
		<g>
			<path fill="#EBF3FA" d="M23.7,38.6h-5.2c-0.2,0-0.3-0.1-0.3-0.3v-0.2c0-0.2,0.1-0.3,0.3-0.3h5.2c0.2,0,0.3,0.1,0.3,0.3v0.2
				C24,38.5,23.8,38.6,23.7,38.6z"/>
			<circle fill="#EBF3FA" cx="16.8" cy="38.2" r="0.4"/>
		</g>
		<g>
			<path fill="#EBF3FA" d="M24.7,40.2h-6.2c-0.2,0-0.3-0.2-0.3-0.3v-0.1c0-0.2,0.2-0.3,0.3-0.3h6.2c0.2,0,0.3,0.2,0.3,0.3v0.1
				C25,40,24.8,40.2,24.7,40.2z"/>
			<circle fill="#EBF3FA" cx="16.8" cy="39.8" r="0.4"/>
		</g>
		<g>
			<path fill="#EBF3FA" d="M23.7,41.9h-5.2c-0.2,0-0.3-0.1-0.3-0.3v-0.2c0-0.2,0.1-0.3,0.3-0.3h5.2c0.2,0,0.3,0.1,0.3,0.3v0.2
				C24,41.7,23.8,41.9,23.7,41.9z"/>
			<circle fill="#EBF3FA" cx="16.8" cy="41.5" r="0.4"/>
		</g>
	</g>
	<g>
		<g>
			<path fill="#151F2C" d="M33.2,39.5c-0.1,0-0.1,0-0.2,0c-0.4,0-0.7-0.2-1-0.4c-0.5-0.5-0.5-1.4,0-2l0,0c0.5-0.5,1.4-0.5,2,0
				c0.5,0.5,0.5,1.4,0,2C33.7,39.3,33.5,39.4,33.2,39.5z M32.2,37.3c-0.5,0.4-0.5,1.2,0,1.6c0.2,0.2,0.5,0.3,0.8,0.3
				s0.6-0.1,0.8-0.3c0.5-0.4,0.5-1.2,0-1.6C33.4,36.8,32.6,36.8,32.2,37.3L32.2,37.3z"/>
		</g>
		
			<rect x="31.3" y="38.7" transform="matrix(-0.6989 -0.7152 0.7152 -0.6989 25.0101 89.8291)" fill="#151F2C" width="0.2" height="1.9"/>
		<path fill="#151F2C" d="M30.3,40.8L30.3,40.8c-0.1-0.1-0.1-0.2,0-0.3l0.8-0.8c0.1-0.1,0.2-0.1,0.3,0l0,0c0.1,0.1,0.1,0.2,0,0.3
			l-0.8,0.8C30.4,40.9,30.3,40.9,30.3,40.8z"/>
	</g>
</g>
</svg>
