<?xml version="1.0" encoding="utf-8"?>
<!-- Generator: Adobe Illustrator 18.0.0, SVG Export Plug-In . SVG Version: 6.00 Build 0)  -->
<!DOCTYPE svg PUBLIC "-//W3C//DTD SVG 1.1//EN" "http://www.w3.org/Graphics/SVG/1.1/DTD/svg11.dtd">
<svg version="1.1" id="Layer_1" xmlns="http://www.w3.org/2000/svg" xmlns:xlink="http://www.w3.org/1999/xlink" x="0px" y="0px"
	 viewBox="0 123.3 595.3 595.3" enable-background="new 0 123.3 595.3 595.3" xml:space="preserve">
<g id="Floor">
	<path id="Floor_7_" fill="#F0F0F0" d="M497.9,654.5c110.6-63.8,110.6-167.4,0-231.2s-289.9-63.8-400.5,0s-110.6,167.4,0,231.2
		S387.3,718.3,497.9,654.5z"/>
</g>
<g id="Shadows">
	<path id="Shadow_3_" fill="#E0E0E0" d="M348,666.6l168.8-97.5c6.5-3.8,6.5-10,0-13.8l-273.4-158c-2.7-1.5-7.1-1.5-9.9,0l-172.9,100
		c-3.5,2-3.5,7,0,9L338,666.5C340.9,668.2,345.3,668.2,348,666.6z"/>
	<path id="Shadow_2_" fill="#E0E0E0" d="M92.6,642c24.6,14.8,65.5,14.8,90.1,0c22.5-13.5,22.5-36.6,0-50.1
		c-24.6-14.8-65.5-14.8-90.1,0C70.1,605.4,70.1,628.5,92.6,642z"/>
</g>
<g id="Plants">
	<g id="Plants_11_">
		<g id="XMLID_28954_">
			<g id="XMLID_28958_">
				<path id="XMLID_28960_" fill="#27DEBF" d="M499.4,512.4c0,0,0.4-25.4,11-46.2c10.6-20.7,26.5-34.6,42.4-37.5
					c16-2.9,30.4,10.6,14.2,22.4s-45.6,25.2-55.8,64.4L499.4,512.4z"/>
				<path id="XMLID_28959_" opacity="0.15" enable-background="new    " d="M499.4,512.4c0,0,0.4-25.4,11-46.2
					c10.6-20.7,26.5-34.6,42.4-37.5c16-2.9,30.4,10.6,14.2,22.4s-45.6,25.2-55.8,64.4L499.4,512.4z"/>
			</g>
			<path id="XMLID_28957_" fill="#FFFFFF" d="M503.5,505.4h-0.1c-0.5-0.1-0.7-0.6-0.6-1.1c12.7-43.3,43.2-63.9,57.5-68.8
				c0.5-0.1,1,0.1,1.1,0.6c0.1,0.5-0.1,1-0.6,1.1c-14,4.8-43.9,25-56.4,67.6C504.2,505.1,503.8,505.5,503.5,505.4z"/>
		</g>
		<g id="Plant_9_">
			<path fill="#27DEBF" d="M497.8,536.3c6,3.5,9.3,5.6,20.1,6.5c6.4,0.6,15.2-0.4,22.7-3.1c2-0.7,5.1-2.3,3.3-4.3
				c-1-1-11.5-2.7-15.4-7.1c4.4,1.2,10.2,2.5,14.9,2.6c4.6,0.1,9.4-1,13-3.9c3.5-3,5.4-7.3,7.1-11.5c0.6-1.4,1.2-3.2,0.2-4.4
				c-0.6-0.8-1.7-1.1-2.6-1.4c-4-1.1-8.1-2.3-12-3.3c-2.6-0.6-0.7-2.3,0.2-2.5c1.7-0.2,3.3-0.2,4.4-0.2c4.6,0.2,9.6,1.1,13.5-1.5
				c2.3-1.5,3.6-4.3,4.2-6.9c0.2-1,1-13.3,0.5-13.6c-3-0.8-6.1-1.2-9.2-1.5c-3-0.4-5.7-0.5-8.7-0.8c-3.3-0.5-6.5-0.7-9.9-0.6
				c-1.1,0-2.3,0-3.2,0.6c-1.3,0.8-1.8,2.5-2,4c-0.1,1.5-0.1,3.1-0.6,4.5c-1.4-0.1-1.9-1.9-1.8-3.3c0-1.4,0-3.2-1.3-3.8
				c-0.6-0.4-1.4-0.2-2.1,0c-4.5,1-8.9,2.4-13,4.3c-1.9,1-3.8,1.9-5.1,3.6c-2,2.4-2.6,5.6-2.6,8.7s0.5,6.2,0.2,9.3
				c-2.4-2.1-5.8-8.8-6.1-12c-5.2,3.3-8.3,10.2-9.3,19.8c-0.6,6.2-0.5,14.4,0.4,20.7C497.5,535.1,497.7,536.3,497.8,536.3z"/>
			<path opacity="0.3" enable-background="new    " d="M497.8,536.3c6,3.5,9.3,5.6,20.1,6.5c6.4,0.6,15.2-0.4,22.7-3.1
				c2-0.7,5.1-2.3,3.3-4.3c-1-1-11.5-2.7-15.4-7.1c4.4,1.2,10.2,2.5,14.9,2.6c4.6,0.1,9.4-1,13-3.9c3.5-3,5.4-7.3,7.1-11.5
				c0.6-1.4,1.2-3.2,0.2-4.4c-0.6-0.8-1.7-1.1-2.6-1.4c-4-1.1-8.1-2.3-12-3.3c-2.6-0.6-0.7-2.3,0.2-2.5c1.7-0.2,3.3-0.2,4.4-0.2
				c4.6,0.2,9.6,1.1,13.5-1.5c2.3-1.5,3.6-4.3,4.2-6.9c0.2-1,1-13.3,0.5-13.6c-3-0.8-6.1-1.2-9.2-1.5c-3-0.4-5.7-0.5-8.7-0.8
				c-3.3-0.5-6.5-0.7-9.9-0.6c-1.1,0-2.3,0-3.2,0.6c-1.3,0.8-1.8,2.5-2,4c-0.1,1.5-0.1,3.1-0.6,4.5c-1.4-0.1-1.9-1.9-1.8-3.3
				c0-1.4,0-3.2-1.3-3.8c-0.6-0.4-1.4-0.2-2.1,0c-4.5,1-8.9,2.4-13,4.3c-1.9,1-3.8,1.9-5.1,3.6c-2,2.4-2.6,5.6-2.6,8.7
				s0.5,6.2,0.2,9.3c-2.4-2.1-5.8-8.8-6.1-12c-5.2,3.3-8.3,10.2-9.3,19.8c-0.6,6.2-0.5,14.4,0.4,20.7
				C497.5,535.1,497.7,536.3,497.8,536.3z"/>
			<g>
				<g>
					<path fill="#FFFFFF" d="M498.8,535.2c0.2,0,0.5-0.1,0.6-0.4c16.9-32.4,54.3-46.1,63.3-48c0.4-0.1,0.6-0.5,0.6-0.8
						c-0.1-0.4-0.5-0.6-0.8-0.6c-9.2,1.9-47.1,15.8-64.3,48.7c-0.2,0.4,0,0.8,0.4,1C498.6,535.1,498.7,535.2,498.8,535.2z"/>
				</g>
				<g>
					<path fill="#FFFFFF" d="M547.9,516.5c0.4,0,0.7-0.2,0.7-0.7c0-0.4-0.2-0.7-0.7-0.7c-18.7-1.4-24.6-8.8-24.8-8.8
						c-0.2-0.4-0.7-0.4-1-0.1c-0.4,0.2-0.4,0.7-0.1,1C522.3,507.5,528.5,515,547.9,516.5C547.8,516.5,547.9,516.5,547.9,516.5z"/>
				</g>
			</g>
		</g>
	</g>
	<g id="Plants_8_">
		<g id="XMLID_28976_">
			<g id="XMLID_28994_">
				<path fill="#27DEBF" d="M47.6,426.1c8.2,9,23.5,23.9,32.3,38.2v0.1c3.5,5.6,6,11.2,6.5,16.3l0.6,9.2l3.8-2.1l0.6-0.4l1.5-1l0,0
					c2.3-1.3,3.7-3.7,3.7-6.2c0.6-22.4-5.4-41.4-11.2-53c-8-15.7-22.7-31.8-35.6-30.2C38,398.6,36.1,413.4,47.6,426.1z"/>
				<path opacity="0.15" enable-background="new    " d="M47.6,426.1c8.2,9,23.5,23.9,32.3,38.2v0.1c3.5,5.6,6,11.2,6.5,16.3
					l0.6,9.2l3.8-2.1l0.6-0.4l1.5-1l0,0c2.3-1.3,3.7-3.7,3.7-6.2c0.6-22.4-5.4-41.4-11.2-53c-8-15.7-22.7-31.8-35.6-30.2
					C38,398.6,36.1,413.4,47.6,426.1z"/>
			</g>
			<path fill="#FFFFFF" d="M53.7,405.7c15.8,10,38.3,44.8,37.9,81.6l1.5-1c0.1-37-22.6-71.9-38.6-82c-0.4-0.2-0.8-0.1-1.1,0.2
				C53.2,405,53.3,405.5,53.7,405.7z"/>
		</g>
		<g id="XMLID_28961_">
			<g id="XMLID_28963_">
				<path fill="#27DEBF" d="M38.2,455.6c2.7,7.5,18.5,13.9,30,24.8c3.1,2.9,5.7,5.7,8,8.7c2.3,2.9,6.3,3.6,9.4,1.8l0,0L87,490h0.1
					l3.8-2.1c-2.3-8.5-6.3-16.4-11-23.2v-0.1c-7.6-11.1-17.1-19.2-23.7-21C43.1,439.8,34.9,446.5,38.2,455.6z"/>
				<path opacity="0.3" enable-background="new    " d="M38.2,455.6c2.7,7.5,18.5,13.9,30,24.8c3.1,2.9,5.7,5.7,8,8.7
					c2.3,2.9,6.3,3.6,9.4,1.8l0,0L87,490h0.1l3.8-2.1c-2.3-8.5-6.3-16.4-11-23.2v-0.1c-7.6-11.1-17.1-19.2-23.7-21
					C43.1,439.8,34.9,446.5,38.2,455.6z"/>
			</g>
			<path fill="#FFFFFF" d="M49.3,451.1c9.5,2.7,27.9,14.3,36.3,39.6l1.4-0.8c-8.6-25.7-26.9-37.4-37.3-40.4c-0.5-0.1-0.8,0.1-1,0.6
				C48.6,450.6,48.8,450.9,49.3,451.1z"/>
		</g>
	</g>
</g>
<g id="Device">
	<g id="Laptop_4_">
		<g>
			<path id="XMLID_150_" fill="#455A64" d="M508.3,551.1c0,4.2-3.1,9.3-6.9,11.4L351,649.3c-3.8,2.1-10,2.1-13.8,0L72.4,496.5
				c-3.8-2.1-6.9-7.4-6.9-11.4c0-4.2,3.1-9.3,6.9-11.4l150.4-86.8c3.8-2.1,10-2.1,13.8,0l264.8,152.9
				C505.2,541.8,508.3,546.9,508.3,551.1z"/>
			<path id="XMLID_149_" fill="#37474F" d="M65.5,485c0,4.2,3.1,9.3,6.9,11.4l264.8,152.9c1.9,1.1,4.4,1.7,6.9,1.7v-15
				c-2.5,0-5-0.6-6.9-1.7L72.4,481.5c-3.3-1.9-3.8-4.9-1.3-7.1C68,476.9,65.5,481.4,65.5,485z"/>
			<path id="XMLID_148_" fill="#263238" d="M344.1,636.1v15c2.5,0,5-0.6,6.9-1.7l150.4-86.8c3.8-2.1,6.9-7.4,6.9-11.4
				c0-3.9-2.7-8.6-6.2-11.1c3.1,2.3,2.9,5.5-0.7,7.5L351,634.4C349.1,635.5,346.6,636.1,344.1,636.1z"/>
		</g>
		<g>
			<path id="XMLID_147_" fill="#37474F" d="M514.7,539.9c3.3-2.4,3.3-5.6,3.3-10V307.4c0-4.4-3.1-9.8-6.9-11.9L246.4,142.6
				c-3.8-2.1-7.4-0.6-11,1.4s-5.8,3.8-5.8,8.2v222.5c0,4.4,3.1,9.8,6.9,11.9l264.8,152.9C507.2,543.5,511.1,542.5,514.7,539.9z"/>
			<path fill="#263238" d="M501.3,539.6c5.7,3.9,9.8,2.9,13.3,0.2c3.3-2.4,3.3-5.6,3.3-10V307.4c0-2.3-0.8-4.6-2-6.8l-9.9,5.7
				c1.2,2.1,2,4.5,2,6.8v222.5C508.3,540,505.2,541.8,501.3,539.6z"/>
			<path id="XMLID_146_" fill="#455A64" d="M229.7,152.4c0-4.4,3.1-6.2,6.9-3.9l264.8,152.9c1.9,1.1,3.7,3,4.9,5.1l9.9-5.7l0,0
				c-1.3-2.1-3-4-4.9-5.1l-264.8-153c-3.8-2.3-7.4-0.6-11,1.4C231.9,146.2,229.7,147.9,229.7,152.4z"/>
		</g>
		<g>
			<path id="XMLID_145_" fill="#263238" d="M497.7,309.2L242.4,161.8c-2.3-1.3-4.2-0.2-4.2,2.4v204.1c0,2.6,1.9,5.8,4.2,7.1
				l255.3,147.4c2.3,1.3,4.2,0.2,4.2-2.4V316.3C501.8,313.7,499.9,310.5,497.7,309.2z"/>
			<path fill="#27DEBF" d="M497.7,309.2c2.3,1.3,4.2,4.5,4.2,7.1v202.9L248.1,372.7c-2.3-1.3-4.2-4.5-4.2-7.1V162.7L497.7,309.2z"/>
			<path opacity="0.65" fill="#FFFFFF" enable-background="new    " d="M497.7,309.2c2.3,1.3,4.2,4.5,4.2,7.1v202.9L248.1,372.7
				c-2.3-1.3-4.2-4.5-4.2-7.1V162.7L497.7,309.2z"/>
		</g>
		<path id="XMLID_144_" fill="#37474F" d="M482.2,540L236.4,398.1c-1.9-1.1-5-1.1-6.9,0l-7.1,3.8c-1.9,1.1-1.9,2.9,0,3.9
			l245.7,141.9c1.9,1.1,5,1.1,6.9,0l7.1-3.7C484.2,542.9,484.2,541.1,482.2,540z"/>
		<g id="XMLID_33_">
			<path id="XMLID_143_" fill="#263238" d="M463,551.4L217.2,409.6c-1.9-1.1-4.8-1.3-6.3-0.4L147,446.1c-1.5,1-1.3,2.5,0.6,3.7
				L393,591.6c1.9,1.1,4.8,1.3,6.3,0.4l64.3-36.8C465.2,554.2,464.9,552.6,463,551.4z"/>
			<path id="XMLID_34_" fill="#455A64" d="M253.1,468.7l6.8-3.9c0.2-0.1,0.2-0.5-0.1-0.6l-7.7-4.4c-0.4-0.2-0.8-0.2-1.1-0.1
				l-6.8,3.9c-0.2,0.1-0.2,0.5,0.1,0.6l7.7,4.4C252.4,468.8,252.9,468.8,253.1,468.7z M261.7,453.4l-6.8,3.9
				c-0.2,0.1-0.2,0.5,0.1,0.6l7.7,4.4c0.4,0.2,0.8,0.2,1.1,0.1l6.8-3.9c0.2-0.1,0.2-0.5-0.1-0.6l-7.7-4.4
				C262.4,453.3,261.9,453.3,261.7,453.4z M286.6,467.9l-6.8,3.9c-0.2,0.1-0.2,0.5,0.1,0.6l13,7.5c0.4,0.2,0.8,0.2,1.1,0.1l6.8-3.9
				c0.2-0.1,0.2-0.5-0.1-0.6l-13-7.5C287.3,467.7,286.8,467.6,286.6,467.9z M273,460l-6.8,3.9c-0.2,0.1-0.2,0.5,0.1,0.6l7.7,4.4
				c0.4,0.2,0.8,0.2,1.1,0.1l6.8-3.9c0.2-0.1,0.2-0.5-0.1-0.6l-7.7-4.4C273.7,459.9,273.2,459.8,273,460z M303.1,477.4l-6.8,3.9
				c-0.2,0.1-0.2,0.5,0.1,0.6l7.7,4.4c0.4,0.2,0.8,0.2,1.1,0.1l6.8-3.9c0.2-0.1,0.2-0.5-0.1-0.6l-7.7-4.4
				C303.8,477.3,303.4,477.3,303.1,477.4z M314.4,483.9l-6.8,3.9c-0.2,0.1-0.2,0.5,0.1,0.6l7.7,4.4c0.4,0.2,0.8,0.2,1.1,0.1l6.8-3.9
				c0.2-0.1,0.2-0.5-0.1-0.6l-7.7-4.4C315.1,483.8,314.7,483.7,314.4,483.9z M288,501.2l6.8-3.9c0.2-0.1,0.2-0.5-0.1-0.6l-7.7-4.4
				c-0.4-0.2-0.8-0.2-1.1-0.1l-6.8,3.9c-0.2,0.1-0.2,0.5,0.1,0.6l7.7,4.4C287.3,501.3,287.8,501.3,288,501.2z M299.3,507.6l6.8-3.9
				c0.2-0.1,0.2-0.5-0.1-0.6l-7.7-4.4c-0.4-0.2-0.8-0.2-1.1-0.1l-6.8,3.9c-0.2,0.1-0.2,0.5,0.1,0.6l7.7,4.4
				C298.5,507.7,298.9,507.9,299.3,507.6z M310.5,514.2l6.8-3.9c0.2-0.1,0.2-0.5-0.1-0.6l-7.7-4.4c-0.4-0.2-0.8-0.2-1.1-0.1
				l-6.8,3.9c-0.2,0.1-0.2,0.5,0.1,0.6l7.7,4.4C309.8,514.3,310.3,514.3,310.5,514.2z M321.8,520.6l6.8-3.9c0.2-0.1,0.2-0.5-0.1-0.6
				l-7.7-4.4c-0.4-0.2-0.8-0.2-1.1-0.1l-6.8,3.9c-0.2,0.1-0.2,0.5,0.1,0.6l7.7,4.4C321,520.7,321.5,520.8,321.8,520.6z M264.4,475.1
				l6.8-3.9c0.2-0.1,0.2-0.5-0.1-0.6l-7.7-4.4c-0.4-0.2-0.8-0.2-1.1-0.1l-6.8,3.9c-0.2,0.1-0.2,0.5,0.1,0.6l7.7,4.4
				C263.6,475.4,264.1,475.4,264.4,475.1z M276.8,494.6l6.8-3.9c0.2-0.1,0.2-0.5-0.1-0.6l-7.1-4c-0.4-0.2-0.4-0.5-0.1-0.6l9.8-5.6
				c0.2-0.1,0.2-0.5-0.1-0.6l-8.9-5.1c-0.4-0.2-0.8-0.2-1.1-0.1l-17.5,10.1c-0.2,0.1-0.2,0.5,0.1,0.6l17.1,9.9
				C276,494.8,276.6,494.8,276.8,494.6z M325.6,490.4l-6.8,3.9c-0.2,0.1-0.2,0.5,0.1,0.6l7.7,4.4c0.4,0.2,0.8,0.2,1.1,0.1l6.8-3.9
				c0.2-0.1,0.2-0.5-0.1-0.6l-7.7-4.4C326.3,490.2,325.9,490.2,325.6,490.4z M336.9,496.9l-6.8,3.9c-0.2,0.1-0.2,0.5,0.1,0.6
				l7.7,4.4c0.4,0.2,0.8,0.2,1.1,0.1l6.8-3.9c0.2-0.1,0.2-0.5-0.1-0.6L338,497C337.6,496.8,337.2,496.7,336.9,496.9z M407.3,562.1
				c0.2-0.1,0.2-0.5-0.1-0.6l-7.7-4.4c-0.4-0.2-0.8-0.2-1.1-0.1l-6.8,3.9c-0.2,0.1-0.2,0.5,0.1,0.6l7.7,4.4c0.4,0.2,0.8,0.2,1.1,0.1
				L407.3,562.1z M426.8,548.8l-6.8,3.9c-0.2,0.1-0.2,0.5,0.1,0.6l7.7,4.4c0.4,0.2,0.8,0.2,1.1,0.1l6.8-3.9c0.2-0.1,0.2-0.5-0.1-0.6
				l-7.7-4.4C427.5,548.7,427.1,548.7,426.8,548.8z M420.9,557.7c0.2-0.1,0.2-0.5-0.1-0.6l-7.7-4.4c-0.4-0.2-0.8-0.2-1.1-0.1
				l-6.8,3.9c-0.2,0.1-0.2,0.5,0.1,0.6l7.7,4.4c0.4,0.2,0.8,0.2,1.1,0.1L420.9,557.7z M383.8,568.8l6.8-3.9c0.2-0.1,0.2-0.5-0.1-0.6
				l-7.7-4.4c-0.4-0.2-0.8-0.2-1.1-0.1l-6.8,3.9c-0.2,0.1-0.2,0.5,0.1,0.6l7.7,4.4C383.1,568.9,383.6,568.9,383.8,568.8z
				 M401.9,571.4c0.2-0.1,0.2-0.5-0.1-0.6l-7.7-4.4c-0.4-0.2-0.8-0.2-1.1-0.1l-6.8,3.9c-0.2,0.1-0.2,0.5,0.1,0.6l7.7,4.4
				c0.4,0.2,0.8,0.2,1.1,0.1L401.9,571.4z M415.6,542.3l-6.8,3.9c-0.2,0.1-0.2,0.5,0.1,0.6l7.7,4.4c0.4,0.2,0.8,0.2,1.1,0.1l6.8-3.9
				c0.2-0.1,0.2-0.5-0.1-0.6l-7.7-4.4C416.3,542.1,415.9,542.1,415.6,542.3z M359.3,509.9l-6.8,3.9c-0.2,0.1-0.2,0.5,0.1,0.6
				l7.7,4.4c0.4,0.2,0.8,0.2,1.1,0.1l6.8-3.9c0.2-0.1,0.2-0.5-0.1-0.6l-7.7-4.4C360.1,509.8,359.7,509.6,359.3,509.9z M404.3,535.8
				l-6.8,3.9c-0.2,0.1-0.2,0.5,0.1,0.6l7.7,4.4c0.4,0.2,0.8,0.2,1.1,0.1l6.8-3.9c0.2-0.1,0.2-0.5-0.1-0.6l-7.7-4.4
				C405.1,535.7,404.7,535.7,404.3,535.8z M348.1,503.3l-6.8,3.9c-0.2,0.1-0.2,0.5,0.1,0.6l7.7,4.4c0.4,0.2,0.8,0.2,1.1,0.1l6.8-3.9
				c0.2-0.1,0.2-0.5-0.1-0.6l-7.7-4.4C348.8,503.2,348.4,503.2,348.1,503.3z M370.6,516.3l-6.8,3.9c-0.2,0.1-0.2,0.5,0.1,0.6
				l7.7,4.4c0.4,0.2,0.8,0.2,1.1,0.1l6.8-3.9c0.2-0.1,0.2-0.5-0.1-0.6l-7.7-4.4C371.3,516.2,370.9,516.2,370.6,516.3z M381.8,522.9
				l-6.8,3.9c-0.2,0.1-0.2,0.5,0.1,0.6l7.7,4.4c0.4,0.2,0.8,0.2,1.1,0.1l6.8-3.9c0.2-0.1,0.2-0.5-0.1-0.6l-7.7-4.4
				C382.6,522.7,382.2,522.7,381.8,522.9z M393.1,529.3l-6.8,3.9c-0.2,0.1-0.2,0.5,0.1,0.6l7.7,4.4c0.4,0.2,0.8,0.2,1.1,0.1l6.8-3.9
				c0.2-0.1,0.2-0.5-0.1-0.6l-7.7-4.4C393.8,529.2,393.4,529.2,393.1,529.3z M344.3,533.6l6.8-3.9c0.2-0.1,0.2-0.5-0.1-0.6l-7.7-4.4
				c-0.4-0.2-0.8-0.2-1.1-0.1l-6.8,3.9c-0.2,0.1-0.2,0.5,0.1,0.6l7.7,4.4C343.5,533.7,344,533.8,344.3,533.6z M236.8,439.2l-6.8,3.9
				c-0.2,0.1-0.2,0.5,0.1,0.6l7.7,4.4c0.4,0.2,0.8,0.2,1.1,0.1l6.8-3.9c0.2-0.1,0.2-0.5-0.1-0.6l-7.7-4.4
				C237.6,439,237.2,438.9,236.8,439.2z M250.5,447l-6.8,3.9c-0.2,0.1-0.2,0.5,0.1,0.6l7.7,4.4c0.4,0.2,0.8,0.2,1.1,0.1l6.8-3.9
				c0.2-0.1,0.2-0.5-0.1-0.6l-7.7-4.4C251.2,446.9,250.7,446.8,250.5,447z M225.6,432.6l-6.8,3.9c-0.2,0.1-0.2,0.5,0.1,0.6l7.7,4.4
				c0.4,0.2,0.8,0.2,1.1,0.1l6.8-3.9c0.2-0.1,0.2-0.5-0.1-0.6l-7.7-4.4C226.3,432.5,225.8,432.5,225.6,432.6z M290.4,490.2l6.8-3.9
				c0.2-0.1,0.2-0.5-0.1-0.6l-7.7-4.4c-0.4-0.2-0.8-0.2-1.1-0.1l-6.8,3.9c-0.2,0.1-0.2,0.5,0.1,0.6l7.7,4.4
				C289.7,490.4,290.1,490.4,290.4,490.2z M207.5,430c-0.2,0.1-0.2,0.5,0.1,0.6l7.7,4.4c0.4,0.2,0.8,0.2,1.1,0.1l6.8-3.9
				c0.2-0.1,0.2-0.5-0.1-0.6l-7.7-4.4c-0.4-0.2-0.8-0.2-1.1-0.1L207.5,430z M333,527.1l6.8-3.9c0.2-0.1,0.2-0.5-0.1-0.6l-7.7-4.4
				c-0.4-0.2-0.8-0.2-1.1-0.1l-6.8,3.9c-0.2,0.1-0.2,0.5,0.1,0.6l7.7,4.4C332.3,527.3,332.8,527.3,333,527.1z M195.1,447.5l6.8-3.9
				c0.2-0.1,0.2-0.5-0.1-0.6l-7.7-4.4c-0.4-0.2-0.8-0.2-1.1-0.1l-6.8,3.9c-0.2,0.1-0.2,0.5,0.1,0.6l7.7,4.4
				C194.3,447.6,194.8,447.6,195.1,447.5z M217,447.9l6.8-3.9c0.2-0.1,0.2-0.5-0.1-0.6L216,439c-0.4-0.2-0.8-0.2-1.1-0.1l-6.8,3.9
				c-0.2,0.1-0.2,0.5,0.1,0.6l7.7,4.4C216.3,448,216.8,448,217,447.9z M196.9,436.2c-0.2,0.1-0.2,0.5,0.1,0.6l7.7,4.4
				c0.4,0.2,0.8,0.2,1.1,0.1l6.8-3.9c0.2-0.1,0.2-0.5-0.1-0.6l-7.7-4.4c-0.4-0.2-0.8-0.2-1.1-0.1L196.9,436.2z M201.2,430.4
				l-7.7-4.4c-0.4-0.2-0.8-0.2-1.1-0.1L174.9,436c-0.2,0.1-0.2,0.5,0.1,0.6l7.7,4.4c0.4,0.2,0.8,0.2,1.1,0.1l17.5-10.1
				C201.6,430.8,201.6,430.5,201.2,430.4z M226.2,445.2l-6.8,3.9c-0.2,0.1-0.2,0.5,0.1,0.6l7.7,4.4c0.4,0.2,0.8,0.2,1.1,0.1l6.8-3.9
				c0.2-0.1,0.2-0.5-0.1-0.6l-7.7-4.4C226.9,445.1,226.4,445.1,226.2,445.2z M310.9,494.2l-6.8,3.9c-0.2,0.1-0.2,0.5,0.1,0.6
				l7.7,4.4c0.4,0.2,0.8,0.2,1.1,0.1l6.8-3.9c0.2-0.1,0.2-0.5-0.1-0.6l-7.7-4.4C311.6,494,311.1,494,310.9,494.2z M213.1,450.1
				c0.2-0.1,0.2-0.5-0.1-0.6l-7.7-4.4c-0.4-0.2-0.8-0.2-1.1-0.1l-6.8,3.9c-0.2,0.1-0.2,0.5,0.1,0.6l7.7,4.4c0.4,0.2,0.8,0.2,1.1,0.1
				L213.1,450.1z M299.5,487.6l-6.8,3.9c-0.2,0.1-0.2,0.5,0.1,0.6l7.7,4.4c0.4,0.2,0.8,0.2,1.1,0.1l6.8-3.9c0.2-0.1,0.2-0.5-0.1-0.6
				l-7.7-4.4C300.3,487.5,299.8,487.5,299.5,487.6z M396,555.7c0.2-0.1,0.2-0.5-0.1-0.6l-7.7-4.4c-0.4-0.2-0.8-0.2-1.1-0.1l-6.8,3.9
				c-0.2,0.1-0.2,0.5,0.1,0.6l7.7,4.4c0.4,0.2,0.8,0.2,1.1,0.1L396,555.7z M400.7,546.1L394,550c-0.2,0.1-0.2,0.5,0.1,0.6l7.7,4.4
				c0.4,0.2,0.8,0.2,1.1,0.1l6.8-3.9c0.2-0.1,0.2-0.5-0.1-0.6l-7.7-4.4C401.6,546,401.1,546,400.7,546.1z M378,553.1l6.8-3.9
				c0.2-0.1,0.2-0.5-0.1-0.6l-7.7-4.4c-0.4-0.2-0.8-0.2-1.1-0.1l-6.8,3.9c-0.2,0.1-0.2,0.5,0.1,0.6l7.7,4.4
				C377.3,553.2,377.8,553.2,378,553.1z M366.7,546.5l6.8-3.9c0.2-0.1,0.2-0.5-0.1-0.6l-7.7-4.4c-0.4-0.2-0.8-0.2-1.1-0.1l-6.8,3.9
				c-0.2,0.1-0.2,0.5,0.1,0.6l7.7,4.4C366,546.7,366.5,546.8,366.7,546.5z M355.5,540.1l6.8-3.9c0.2-0.1,0.2-0.5-0.1-0.6l-7.7-4.4
				c-0.4-0.2-0.8-0.2-1.1-0.1l-6.8,3.9c-0.2,0.1-0.2,0.5,0.1,0.6l7.7,4.4C354.8,540.2,355.3,540.2,355.5,540.1z M389.6,539.6
				l-6.8,3.9c-0.2,0.1-0.2,0.5,0.1,0.6l7.7,4.4c0.4,0.2,0.8,0.2,1.1,0.1l6.8-3.9c0.2-0.1,0.2-0.5-0.1-0.6l-7.7-4.4
				C390.3,539.5,389.8,539.4,389.6,539.6z M378.2,533.1l-6.8,3.9c-0.2,0.1-0.2,0.5,0.1,0.6l7.7,4.4c0.4,0.2,0.8,0.2,1.1,0.1l6.8-3.9
				c0.2-0.1,0.2-0.5-0.1-0.6l-7.7-4.4C379.1,533,378.6,533,378.2,533.1z M333.4,507.1l-6.8,3.9c-0.2,0.1-0.2,0.5,0.1,0.6l7.7,4.4
				c0.4,0.2,0.8,0.2,1.1,0.1l6.8-3.9c0.2-0.1,0.2-0.5-0.1-0.6l-7.7-4.4C334.1,507,333.6,507,333.4,507.1z M344.5,513.6l-6.8,3.9
				c-0.2,0.1-0.2,0.5,0.1,0.6l7.7,4.4c0.4,0.2,0.8,0.2,1.1,0.1l6.8-3.9c0.2-0.1,0.2-0.5-0.1-0.6l-7.7-4.4
				C345.3,513.5,344.8,513.5,344.5,513.6z M322,500.6l-6.8,3.9c-0.2,0.1-0.2,0.5,0.1,0.6l7.7,4.4c0.4,0.2,0.8,0.2,1.1,0.1l6.8-3.9
				c0.2-0.1,0.2-0.5-0.1-0.6l-7.7-4.4C322.8,500.5,322.3,500.5,322,500.6z M367,526.7l-6.8,3.9c-0.2,0.1-0.2,0.5,0.1,0.6l7.7,4.4
				c0.4,0.2,0.8,0.2,1.1,0.1l6.8-3.9c0.2-0.1,0.2-0.5-0.1-0.6l-7.7-4.4C367.8,526.4,367.3,526.4,367,526.7z M355.7,520.1L349,524
				c-0.2,0.1-0.2,0.5,0.1,0.6l7.7,4.4c0.4,0.2,0.8,0.2,1.1,0.1l6.8-3.9c0.2-0.1,0.2-0.5-0.1-0.6l-7.7-4.4
				C356.6,520,356.1,520,355.7,520.1z M372.6,562.4l6.8-3.9c0.2-0.1,0.2-0.5-0.1-0.6l-7.7-4.4c-0.4-0.2-0.8-0.2-1.1-0.1l-6.8,3.9
				c-0.2,0.1-0.2,0.5,0.1,0.6l7.7,4.4C371.9,562.5,372.4,562.5,372.6,562.4z M431.5,559.9l7.7,4.4c0.4,0.2,0.8,0.2,1.1,0.1l6.8-3.9
				c0.2-0.1,0.2-0.5-0.1-0.6l-7.7-4.4c-0.4-0.2-0.8-0.2-1.1-0.1l-6.8,3.9C431,559.4,431.1,559.6,431.5,559.9z M416.6,563.6l11.8,6.8
				c0.4,0.2,0.8,0.2,1.1,0.1l6.8-3.9c0.2-0.1,0.2-0.5-0.1-0.6l-11.8-6.8c-0.4-0.2-0.8-0.2-1.1-0.1l-6.8,3.9
				C416.2,563.1,416.2,563.5,416.6,563.6z M441.3,552l9.5,5.5c0.4,0.2,0.8,0.2,1.1,0.1l6.8-3.9c0.2-0.1,0.2-0.5-0.1-0.6l-9.5-5.5
				c-0.4-0.2-0.8-0.2-1.1-0.1l-6.8,3.9C441,551.5,441.1,551.8,441.3,552z M440.9,543.3c0.2-0.1,0.2-0.5-0.1-0.6l-7.7-4.4
				c-0.4-0.2-0.8-0.2-1.1-0.1l-6.8,3.9c-0.2,0.1-0.2,0.5,0.1,0.6l7.7,4.4c0.4,0.2,0.8,0.2,1.1,0.1L440.9,543.3z M403,568.1l14.8,8.6
				c0.4,0.2,0.8,0.2,1.1,0.1l6.8-3.9c0.2-0.1,0.2-0.5-0.1-0.6l-14.8-8.6c-0.4-0.2-0.8-0.2-1.1-0.1l-6.8,3.9
				C402.5,567.6,402.6,567.9,403,568.1z M397.6,577.3l9.5,5.5c0.4,0.2,0.8,0.2,1.1,0.1l6.8-3.9c0.2-0.1,0.2-0.5-0.1-0.6l-9.5-5.5
				c-0.4-0.2-0.8-0.2-1.1-0.1l-6.8,3.9C397.3,576.8,397.3,577.1,397.6,577.3z M357.2,495c0.2-0.1,0.2-0.5-0.1-0.6l-7.7-4.4
				c-0.4-0.2-0.8-0.2-1.1-0.1l-6.8,3.9c-0.2,0.1-0.2,0.5,0.1,0.6l7.7,4.4c0.4,0.2,0.8,0.2,1.1,0.1L357.2,495z M379.7,508
				c0.2-0.1,0.2-0.5-0.1-0.6l-7.7-4.4c-0.4-0.2-0.8-0.2-1.1-0.1l-6.8,3.9c-0.2,0.1-0.2,0.5,0.1,0.6l7.7,4.4c0.4,0.2,0.8,0.2,1.1,0.1
				L379.7,508z M429.6,536.8c0.2-0.1,0.2-0.5-0.1-0.6l-7.7-4.4c-0.4-0.2-0.8-0.2-1.1-0.1l-6.8,3.9c-0.2,0.1-0.2,0.5,0.1,0.6l7.7,4.4
				c0.4,0.2,0.8,0.2,1.1,0.1L429.6,536.8z M368.5,501.5c0.2-0.1,0.2-0.5-0.1-0.6l-7.7-4.4c-0.4-0.2-0.8-0.2-1.1-0.1l-6.8,3.9
				c-0.2,0.1-0.2,0.5,0.1,0.6l7.7,4.4c0.4,0.2,0.8,0.2,1.1,0.1L368.5,501.5z M391,514.5c0.2-0.1,0.2-0.5-0.1-0.6l-7.7-4.4
				c-0.4-0.2-0.8-0.2-1.1-0.1l-6.8,3.9c-0.2,0.1-0.2,0.5,0.1,0.6l7.7,4.4c0.4,0.2,0.8,0.2,1.1,0.1L391,514.5z M384.4,581.4
				c-0.2,0.1-0.2,0.5,0.1,0.6l11.8,6.8c0.4,0.2,0.8,0.2,1.1,0.1l6.8-3.9c0.2-0.1,0.2-0.5-0.1-0.6l-11.8-6.8
				c-0.4-0.2-0.8-0.2-1.1-0.1L384.4,581.4z M407.1,523.8c0.2-0.1,0.2-0.5-0.1-0.6l-7.7-4.4c-0.4-0.2-0.8-0.2-1.1-0.1l-6.8,3.9
				c-0.2,0.1-0.2,0.5,0.1,0.6l7.7,4.4c0.4,0.2,0.8,0.2,1.1,0.1L407.1,523.8z M418.4,530.4c0.2-0.1,0.2-0.5-0.1-0.6l-7.7-4.4
				c-0.4-0.2-0.8-0.2-1.1-0.1l-6.8,3.9c-0.2,0.1-0.2,0.5,0.1,0.6l7.7,4.4c0.4,0.2,0.8,0.2,1.1,0.1L418.4,530.4z M176.1,461.2
				c-0.2,0.1-0.2,0.5,0.1,0.6l18.9,11c0.4,0.2,0.8,0.2,1.1,0.1l6.8-3.9c0.2-0.1,0.2-0.5-0.1-0.6l-18.9-11c-0.4-0.2-0.8-0.2-1.1-0.1
				L176.1,461.2z M201,475.6c-0.2,0.1-0.2,0.5,0.1,0.6l7.7,4.4c0.4,0.2,0.8,0.2,1.1,0.1l6.8-3.9c0.2-0.1,0.2-0.5-0.1-0.6l-7.7-4.4
				c-0.4-0.2-0.8-0.2-1.1-0.1L201,475.6z M361.5,555.8l6.8-3.9c0.2-0.1,0.2-0.5-0.1-0.6l-7.7-4.4c-0.4-0.2-0.8-0.2-1.1-0.1l-6.8,3.9
				c-0.2,0.1-0.2,0.5,0.1,0.6l7.7,4.4C360.6,556,361.1,556,361.5,555.8z M223.5,488.6c-0.2,0.1-0.2,0.5,0.1,0.6l7.7,4.4
				c0.4,0.2,0.8,0.2,1.1,0.1l6.8-3.9c0.2-0.1,0.2-0.5-0.1-0.6l-7.7-4.4c-0.4-0.2-0.8-0.2-1.1-0.1L223.5,488.6z M164.9,454.8
				c-0.2,0.1-0.2,0.5,0.1,0.6l7.7,4.4c0.4,0.2,0.8,0.2,1.1,0.1l6.8-3.9c0.2-0.1,0.2-0.5-0.1-0.6l-7.7-4.4c-0.4-0.2-0.8-0.2-1.1-0.1
				L164.9,454.8z M153.7,448.8l7.7,4.4c0.4,0.2,0.8,0.2,1.1,0.1l17.5-10.1c0.2-0.1,0.2-0.5-0.1-0.6l-7.7-4.4
				c-0.4-0.2-0.8-0.2-1.1-0.1l-17.5,10.1C153.3,448.3,153.5,448.7,153.7,448.8z M265.5,512.7c-0.2,0.1-0.2,0.5,0.1,0.6l9.5,5.5
				c0.4,0.2,0.8,0.2,1.1,0.1l6.8-3.9c0.2-0.1,0.2-0.5-0.1-0.6l-9.5-5.5c-0.4-0.2-0.8-0.2-1.1-0.1L265.5,512.7z M237,496.4
				c-0.2,0.1-0.2,0.5,0.1,0.6l11.8,6.8c0.4,0.2,0.8,0.2,1.1,0.1l6.8-3.9c0.2-0.1,0.2-0.5-0.1-0.6l-11.8-6.8
				c-0.4-0.2-0.8-0.2-1.1-0.1L237,496.4z M291.6,527.9c-0.2,0.1-0.2,0.5,0.1,0.6L355,565c0.4,0.2,0.8,0.2,1.1,0.1l6.8-3.9
				c0.2-0.1,0.2-0.5-0.1-0.6L299.4,524c-0.4-0.2-0.8-0.2-1.1-0.1L291.6,527.9z M358.4,566.4c-0.2,0.1-0.2,0.5,0.1,0.6l9.5,5.5
				c0.4,0.2,0.8,0.2,1.1,0.1l6.8-3.9c0.2-0.1,0.2-0.5-0.1-0.6l-9.5-5.5c-0.4-0.2-0.8-0.2-1.1-0.1L358.4,566.4z M278.5,520.4
				c-0.2,0.1-0.2,0.5,0.1,0.6l9.5,5.5c0.4,0.2,0.8,0.2,1.1,0.1l6.8-3.9c0.2-0.1,0.2-0.5-0.1-0.6l-9.5-5.5c-0.4-0.2-0.8-0.2-1.1-0.1
				L278.5,520.4z M371.5,573.9c-0.2,0.1-0.2,0.5,0.1,0.6l9.5,5.5c0.4,0.2,0.8,0.2,1.1,0.1l6.8-3.9c0.2-0.1,0.2-0.5-0.1-0.6l-9.5-5.5
				c-0.4-0.2-0.8-0.2-1.1-0.1L371.5,573.9z M252.5,505.2c-0.2,0.1-0.2,0.5,0.1,0.6l9.5,5.5c0.4,0.2,0.8,0.2,1.1,0.1l6.8-3.9
				c0.2-0.1,0.2-0.5-0.1-0.6l-9.5-5.5c-0.4-0.2-0.8-0.2-1.1-0.1L252.5,505.2z M212.3,482c-0.2,0.1-0.2,0.5,0.1,0.6l7.7,4.4
				c0.4,0.2,0.8,0.2,1.1,0.1l6.8-3.9c0.2-0.1,0.2-0.5-0.1-0.6l-7.7-4.4c-0.4-0.2-0.8-0.2-1.1-0.1L212.3,482z M195.7,460.1l6.8-3.9
				c0.2-0.1,0.2-0.5-0.1-0.6l-7.7-4.4c-0.4-0.2-0.8-0.2-1.1-0.1l-6.8,3.9c-0.2,0.1-0.2,0.5,0.1,0.6l7.7,4.4
				C194.9,460.2,195.4,460.4,195.7,460.1z M241.9,462.1l6.8-3.9c0.2-0.1,0.2-0.5-0.1-0.6l-7.7-4.4c-0.4-0.2-0.8-0.2-1.1-0.1L233,457
				c-0.2,0.1-0.2,0.5,0.1,0.6l7.7,4.4C241.1,462.3,241.6,462.4,241.9,462.1z M271.4,503.9l6.8-3.9c0.2-0.1,0.2-0.5-0.1-0.6l-22.5-13
				c-0.4-0.2-0.8-0.2-1.1-0.1l-6.8,3.9c-0.2,0.1-0.2,0.5,0.1,0.6l22.5,13C270.7,504,271.2,504,271.4,503.9z M213.7,462.7
				c0.2-0.1,0.2-0.5-0.1-0.6l-7.7-4.4c-0.4-0.2-0.8-0.2-1.1-0.1l-6.8,3.9c-0.2,0.1-0.2,0.5,0.1,0.6l7.7,4.4c0.4,0.2,0.8,0.2,1.1,0.1
				L213.7,462.7z M217.6,460.5l6.8-3.9c0.2-0.1,0.2-0.5-0.1-0.6l-7.7-4.4c-0.4-0.2-0.8-0.2-1.1-0.1l-6.8,3.9
				c-0.2,0.1-0.2,0.5,0.1,0.6l7.7,4.4C216.8,460.6,217.3,460.6,217.6,460.5z M282.6,510.4l6.8-3.9c0.2-0.1,0.2-0.5-0.1-0.6l-7.7-4.4
				c-0.4-0.2-0.8-0.2-1.1-0.1l-6.8,3.9c-0.2,0.1-0.2,0.5,0.1,0.6l7.7,4.4C281.9,510.5,282.4,510.6,282.6,510.4z M238.6,477.1
				c0.2-0.1,0.2-0.5-0.1-0.6l-7.7-4.4c-0.4-0.2-0.8-0.2-1.1-0.1l-6.8,3.9c-0.2,0.1-0.2,0.5,0.1,0.6l7.7,4.4c0.4,0.2,0.8,0.2,1.1,0.1
				L238.6,477.1z M339,542.9l6.8-3.9c0.2-0.1,0.2-0.5-0.1-0.6L338,534c-0.4-0.2-0.8-0.2-1.1-0.1l-6.8,3.9c-0.2,0.1-0.2,0.5,0.1,0.6
				l7.7,4.4C338.1,543,338.6,543,339,542.9z M327.6,536.3l6.8-3.9c0.2-0.1,0.2-0.5-0.1-0.6l-7.7-4.4c-0.4-0.2-0.8-0.2-1.1-0.1
				l-6.8,3.9c-0.2,0.1-0.2,0.5,0.1,0.6l7.7,4.4C326.9,536.4,327.4,536.5,327.6,536.3z M350.1,549.3l6.8-3.9c0.2-0.1,0.2-0.5-0.1-0.6
				l-7.7-4.4c-0.4-0.2-0.8-0.2-1.1-0.1l-6.8,3.9c-0.2,0.1-0.2,0.5,0.1,0.6l7.7,4.4C349.4,549.5,349.9,549.5,350.1,549.3z
				 M305.1,523.3l6.8-3.9c0.2-0.1,0.2-0.5-0.1-0.6l-7.7-4.4c-0.4-0.2-0.8-0.2-1.1-0.1l-6.8,3.9c-0.2,0.1-0.2,0.5,0.1,0.6l7.7,4.4
				C304.4,523.5,304.9,523.6,305.1,523.3z M316.5,529.9l6.8-3.9c0.2-0.1,0.2-0.5-0.1-0.6l-7.7-4.4c-0.4-0.2-0.8-0.2-1.1-0.1
				l-6.8,3.9c-0.2,0.1-0.2,0.5,0.1,0.6l7.7,4.4C315.6,530,316.1,530,316.5,529.9z M293.9,516.9l6.8-3.9c0.2-0.1,0.2-0.5-0.1-0.6
				l-7.7-4.5c-0.4-0.2-0.8-0.2-1.1-0.1l-6.8,3.9c-0.2,0.1-0.2,0.5,0.1,0.6l7.7,4.4C293.1,517,293.7,517,293.9,516.9z M232.5,425.9
				c0.2-0.1,0.2-0.5-0.1-0.6l-7.7-4.4c-0.4-0.2-0.8-0.2-1.1-0.1l-1.8,1.1c-0.2,0.1-0.2,0.5,0.1,0.6l7.7,4.4c0.4,0.2,0.8,0.2,1.1,0.1
				L232.5,425.9z M293.6,458.3c0.2-0.1,0.2-0.5-0.1-0.6l-7.7-4.4c-0.4-0.2-0.8-0.2-1.1-0.1l-6.8,3.9c-0.2,0.1-0.2,0.5,0.1,0.6
				l7.7,4.4c0.4,0.2,0.8,0.2,1.1,0.1L293.6,458.3z M271.1,445.4c0.2-0.1,0.2-0.5-0.1-0.6l-7.7-4.4c-0.4-0.2-0.8-0.2-1.1-0.1
				l-6.8,3.9c-0.2,0.1-0.2,0.5,0.1,0.6l7.7,4.4c0.4,0.2,0.8,0.2,1.1,0.1L271.1,445.4z M307.3,466.2c0.2-0.1,0.2-0.5-0.1-0.6
				l-7.7-4.4c-0.4-0.2-0.8-0.2-1.1-0.1l-6.7,3.9c-0.2,0.1-0.2,0.5,0.1,0.6l7.7,4.4c0.4,0.2,0.8,0.2,1.1,0.1L307.3,466.2z
				 M282.4,451.8c0.2-0.1,0.2-0.5-0.1-0.6l-7.7-4.4c-0.4-0.2-0.8-0.2-1.1-0.1l-6.8,3.9c-0.2,0.1-0.2,0.5,0.1,0.6l7.7,4.4
				c0.4,0.2,0.8,0.2,1.1,0.1L282.4,451.8z M329.8,479.2c0.2-0.1,0.2-0.5-0.1-0.6l-7.7-4.4c-0.4-0.2-0.8-0.2-1.1-0.1l-6.8,3.9
				c-0.2,0.1-0.2,0.5,0.1,0.6l7.7,4.4c0.4,0.2,0.8,0.2,1.1,0.1L329.8,479.2z M318.6,472.7c0.2-0.1,0.2-0.5-0.1-0.6l-7.7-4.4
				c-0.4-0.2-0.8-0.2-1.1-0.1l-6.8,3.9c-0.2,0.1-0.2,0.5,0.1,0.6l7.7,4.4c0.4,0.2,0.8,0.2,1.1,0.1L318.6,472.7z M255,438.9
				c0.2-0.1,0.2-0.5-0.1-0.6l-7.7-4.4c-0.4-0.2-0.8-0.2-1.1-0.1l-1.8,1.1c-0.2,0.1-0.2,0.5,0.1,0.6l7.7,4.4c0.4,0.2,0.8,0.2,1.1,0.1
				L255,438.9z M221.3,419.4c0.2-0.1,0.2-0.5-0.1-0.6l-7.7-4.4c-0.4-0.2-0.8-0.2-1.1-0.1l-1.8,1.1c-0.2,0.1-0.2,0.5,0.1,0.6l7.7,4.4
				c0.4,0.2,0.8,0.2,1.1,0.1L221.3,419.4z M212,424.8c0.2-0.1,0.2-0.5-0.1-0.6l-7.7-4.4c-0.4-0.2-0.8-0.2-1.1-0.1l-6.8,3.9
				c-0.2,0.1-0.2,0.5,0.1,0.6l7.7,4.4c0.4,0.2,0.8,0.2,1.1,0.1L212,424.8z M184.4,453.7l6.8-3.9c0.2-0.1,0.2-0.5-0.1-0.6l-7.7-4.4
				c-0.4-0.2-0.8-0.2-1.1-0.1l-6.8,3.9c-0.2,0.1-0.2,0.5,0.1,0.6l7.7,4.4C183.7,453.8,184.2,453.8,184.4,453.7z M243.7,432.4
				c0.2-0.1,0.2-0.5-0.1-0.6l-7.7-4.4c-0.4-0.2-0.8-0.2-1.1-0.1l-1.8,1.1c-0.2,0.1-0.2,0.5,0.1,0.6l7.7,4.4c0.4,0.2,0.8,0.2,1.1,0.1
				L243.7,432.4z M341.1,485.7c0.2-0.1,0.2-0.5-0.1-0.6l-7.7-4.4c-0.4-0.2-0.8-0.2-1.1-0.1l-6.8,3.9c-0.2,0.1-0.2,0.5,0.1,0.6
				l7.7,4.4c0.4,0.2,0.8,0.2,1.1,0.1L341.1,485.7z"/>
		</g>
		<g>
			<polygon id="XMLID_32_" fill="#263238" points="299.9,547.7 298.2,548.6 256.3,572.7 181.8,529.8 180.3,528.9 223.8,503.8 			"/>
			<polygon fill="#37474F" points="182.5,530.1 223.8,506.4 297.5,549 256.3,572.7 			"/>
		</g>
	</g>
</g>
<g id="Cursor_1_">
	<g id="Cursor">
		<g>
			<path fill="#27DEBF" d="M166.1,285.2c-0.4-0.8-0.8-1.3-1.4-1.7l0,0l0,0l-3.6-2l0,0c-1.5-0.8-3.5,0-4.4,0.6l-2.3-1.3l0,0
				c-2.7-1.7-6.4,1.8-7.3,2.6l-1-0.6l0,0c-1.3-0.7-3-0.2-4.5,0.5v-12.9c0-1.4-0.5-2.4-1.3-2.9l0,0l0,0c0,0,0,0-0.1,0l-3.5-2l0,0l0,0
				l0,0c-0.8-0.5-1.9-0.4-3.2,0.4c-2.5,1.4-4.5,5-4.5,7.9v39.5c-0.2-0.1-0.4-0.1-0.6-0.2c-3.1-2.1-6.4-3.5-9.3-3
				c-2.7,0.5-5.2,2.9-6,4c-1.5,2.6,1,4.3,4.2,8c3.2,3.6,6,8,8.8,10.7c2.9,2.7,5,3.5,5,3.5v5.1l3.6,2l26.8-15.5v-5.1
				c0,0,3.3-13.2,4.4-18.8C167.2,298.4,168.1,289.4,166.1,285.2z"/>
			<path opacity="0.8" fill="#FFFFFF" enable-background="new    " d="M166.1,285.2c-0.4-0.8-0.8-1.3-1.4-1.7l0,0l0,0l-3.6-2l0,0
				c-1.5-0.8-3.5,0-4.4,0.6l-2.3-1.3l0,0c-2.7-1.7-6.4,1.8-7.3,2.6l-1-0.6l0,0c-1.3-0.7-3-0.2-4.5,0.5v-12.9c0-1.4-0.5-2.4-1.3-2.9
				l0,0l0,0c0,0,0,0-0.1,0l-3.5-2l0,0l0,0l0,0c-0.8-0.5-1.9-0.4-3.2,0.4c-2.5,1.4-4.5,5-4.5,7.9v39.5c-0.2-0.1-0.4-0.1-0.6-0.2
				c-3.1-2.1-6.4-3.5-9.3-3c-2.7,0.5-5.2,2.9-6,4c-1.5,2.6,1,4.3,4.2,8c3.2,3.6,6,8,8.8,10.7c2.9,2.7,5,3.5,5,3.5v5.1l3.6,2
				l26.8-15.5v-5.1c0,0,3.3-13.2,4.4-18.8C167.2,298.4,168.1,289.4,166.1,285.2z"/>
		</g>
		<path opacity="0.2" fill="#27DEBF" enable-background="new    " d="M141.8,283.4v4.4l0,0c0.1-0.1,1.7-1.4,3.5-2.4L141.8,283.4z
			 M158,281.5c-0.5,0.2-1,0.4-1.2,0.6l1.2,0.7c0.6,0.4,1.2,1,1.7,1.8c0,0,0.8-0.7,2-1.2L158,281.5z M149.7,281.5
			c-1.1,0.7-2,1.5-2.4,1.9l2.3,1.3c0,0,0.1,0,0.1,0.1c0.4,0.1,0.6,0.5,1,0.8l0,0c0.1-0.1,1.1-1.2,2.5-2L149.7,281.5z M129.2,273.7
			v39.5c1.2,0.6,2.4,1.3,3.6,2.1v-39.6L129.2,273.7z M141.8,283.4L141.8,283.4L141.8,283.4L141.8,283.4z M130,334.7
			c-2.9-2.7-5.7-7-8.8-10.7c-3-3.5-5.4-5.1-4.4-7.5l-3.6-2c-1,2.4,1.4,4,4.4,7.5c3.2,3.6,6,8,8.8,10.7c2.9,2.7,5,3.5,5,3.5v5.1
			l3.6,2v-5.1C134.9,338.2,132.9,337.5,130,334.7z"/>
		<path opacity="0.1" enable-background="new    " d="M141.8,283.4v4.4l0,0c0.1-0.1,1.7-1.4,3.5-2.4L141.8,283.4z M158,281.5
			c-0.5,0.2-1,0.4-1.2,0.6l1.2,0.7c0.6,0.4,1.2,1,1.7,1.8c0,0,0.8-0.7,2-1.2L158,281.5z M149.7,281.5c-1.1,0.7-2,1.5-2.4,1.9
			l2.3,1.3c0,0,0.1,0,0.1,0.1c0.4,0.1,0.6,0.5,1,0.8l0,0c0.1-0.1,1.1-1.2,2.5-2L149.7,281.5z M129.2,273.7v39.5
			c1.2,0.6,2.4,1.3,3.6,2.1v-39.6L129.2,273.7z M141.8,283.4L141.8,283.4L141.8,283.4L141.8,283.4z M130,334.7
			c-2.9-2.7-5.7-7-8.8-10.7c-3-3.5-5.4-5.1-4.4-7.5l-3.6-2c-1,2.4,1.4,4,4.4,7.5c3.2,3.6,6,8,8.8,10.7c2.9,2.7,5,3.5,5,3.5v5.1
			l3.6,2v-5.1C134.9,338.2,132.9,337.5,130,334.7z"/>
		<g>
			<path id="XMLID_8048_" fill="#27DEBF" d="M134.9,343.3v-5.1c0,0-2.1-0.7-5-3.5c-2.9-2.7-5.7-7-8.8-10.7c-3.2-3.7-5.7-5.4-4.2-8
				c0.7-1.3,3.2-3.6,6-4c3.1-0.6,6.5,1,9.8,3.3v-39.6c0-2.9,2-6.4,4.5-7.9l0,0c2.5-1.4,4.5-0.2,4.5,2.6v17.3c0,0,6.3-5.6,8.8-2.1
				c0,0,6.2-6.4,8.9-1c0,0,4.5-3.7,6.5,0.6c2,4.3,1.1,13.2,0,18.7c-1.1,5.5-4.4,18.8-4.4,18.8v5.1L134.9,343.3z"/>
			<path id="XMLID_272_" opacity="0.65" fill="#FFFFFF" enable-background="new    " d="M134.9,343.3v-5.1c0,0-2.1-0.7-5-3.5
				c-2.9-2.7-5.7-7-8.8-10.7c-3.2-3.7-5.7-5.4-4.2-8c0.7-1.3,3.2-3.6,6-4c3.1-0.6,6.5,1,9.8,3.3v-39.6c0-2.9,2-6.4,4.5-7.9l0,0
				c2.5-1.4,4.5-0.2,4.5,2.6v17.3c0,0,6.3-5.6,8.8-2.1c0,0,6.2-6.4,8.9-1c0,0,4.5-3.7,6.5,0.6c2,4.3,1.1,13.2,0,18.7
				c-1.1,5.5-4.4,18.8-4.4,18.8v5.1L134.9,343.3z"/>
		</g>
		<g id="XMLID_8042_" opacity="0.1">
			<path id="XMLID_8045_" d="M141.8,295.2c0,0,0.6-7.9,3.5-9.8c0,0,0,0-0.1,0c-1.9,1-3.3,2.3-3.3,2.3v-0.1c0,0.1,0,0.1,0,0.1
				L141.8,295.2L141.8,295.2z"/>
			<path id="XMLID_8044_" d="M150.6,285.6v7.3c0,0,0.8-7.4,2.5-9.3C151.7,284.5,150.6,285.6,150.6,285.6z"/>
			<path id="XMLID_8043_" d="M159.5,284.6L159.5,284.6v7.3c0,0,0.5-7.3,2-8.3C160.4,283.9,159.5,284.6,159.5,284.6z"/>
		</g>
	</g>
</g>
<g id="Character_1_">
	<g id="Character">
		<path id="Shadow_13_" opacity="0.15" enable-background="new    " d="M194.7,494c20.6,10.2,29.9,21,19.3,28.6
			c-10.6,7.5-39.6,17.7-39.6,17.7l-3.8,12.7l-42-24.3v-14.4c0,0,26-17.9,36.1-21.3C174.7,489.5,182.6,488.1,194.7,494z"/>
		<g id="Character_7_">
			<g>
				<g>
					<path id="XMLID_29003_" fill="#FFA8A7" d="M136.6,559.2c0,0,6.3,15.6,6.7,21.7c0.4,6.4,1.9,8.6,0.8,15.5
						c-0.2,1.5-1.1,4.5-1.2,5.8c-0.1,1.1,0.2,2,1.7,2.3c2.7,0.6,7.4-4.6,9.6-10.4c2.1-5.7,5.4-18.5,5.5-20c0.2-1.4-0.4-3.3-0.8-4.5
						c-1-2-1.3-2.3-1.3-2.3c-1-2.7-1.3-8.1-2.1-11.8L136.6,559.2z"/>
					<g>
						<path fill="#263238" d="M165,580c0,0,0.7,1.3,0.7,2.1c0.1,1.3-2.9,5.5-3.9,7c-1.2,1.5-2.3,3.5-2,7.3c0.1,4-1.7,8-4.3,11.4
							c-2.6,3.3-7.3,7-13.9,9.2c-6.8,2-9.2-1.3-9.2-1.3s-2.1-3.2-0.8-4.6C132.9,609.6,165,580,165,580z"/>
						<path id="XMLID_29002_" fill="#455A64" d="M157.4,567.4c0.2,0,0.6-0.1,1.1,0.6c0.2,0.2,1.4,3.3,2.5,4.9c1.1,1.7,3.7,4.6,4,7.1
							c-1.5,5-6.3,8.5-6.9,13.2c-0.7,4.8-0.8,10.2-8.1,16c-7.3,5.8-14.8,6.4-17.4,4.9c-2.7-1.5-2.4-4.4,1.3-9.9
							c3.9-5.8,6.7-18.3,6.7-18.3c0.4-1.8,0.6-3.6,0.7-5.4c0.1-1.7-0.4-3.6-0.5-5.2c-0.1-0.8-0.1-1.7,0.4-2.4c0.5-0.7,1.2-1.1,2-1.4
							c1.2-0.5,2.4-1.1,3.7-1.3c1.3-0.2,2.7-0.1,3.8,0.5c0.8,0.5,1.5,1.2,2.4,1.5c1.2,0.5,2.6,0.2,3.6-0.6c1.4-1.3,1.2-2.4,1-3.3
							C157.6,568.1,157.4,567.4,157.4,567.4z"/>
						<path fill="#FAFAFA" d="M154.3,604.5c0,0-2.9-5.7-10.5-5.7c-7.7,0-10.4,3.9-11.5,6.3c-1.4,2.7-2.9,7.7,0.4,9.2
							c3.5,1.5,7.4,1.1,13.7-2C152.5,609.1,154.3,604.5,154.3,604.5z"/>
						<g>
							<path fill="#FAFAFA" d="M152.9,581.3c-0.2,0.1-0.5,0.1-0.7,0c-1.2-0.6-7.5-1.9-11.2,1.4c-0.5-0.4-0.4-1.1,0.2-2
								c4.3-2.7,10.2-1.5,11.7-0.8c0.4,0.2,0.5,0.6,0.4,1.1C153.1,581.1,153,581.2,152.9,581.3z"/>
							<path fill="#FAFAFA" d="M140.2,587.3c-0.2-0.7,0.1-1.8,0.5-2.1c4.3-2.3,9.8-1.2,11.2-0.5c0.4,0.2,0.5,0.6,0.4,1.1
								c-0.1,0.1-0.2,0.2-0.4,0.4c-0.2,0.1-0.5,0.1-0.7,0C149.9,585.5,143.9,584.3,140.2,587.3z"/>
							<path fill="#FAFAFA" d="M137,597.6c0-1,0.4-1.9,1-2.7c4.3-2.6,10.1-1.4,11.5-0.7c0.4,0.2,0.5,0.6,0.4,1.1
								c-0.1,0.1-0.2,0.2-0.4,0.4c-0.2,0.1-0.5,0.1-0.7,0C147.5,594.9,140.6,593.6,137,597.6z"/>
							<path fill="#FAFAFA" d="M150.6,590.8c-0.2,0.1-0.5,0.1-0.7,0c-1.2-0.6-7.4-1.9-11.1,1.4c-0.1-0.7,0-1.4,0.6-2.3
								c4.3-2.3,9.8-1.2,11.2-0.5c0.4,0.2,0.5,0.6,0.4,1.1C150.8,590.6,150.7,590.7,150.6,590.8z"/>
						</g>
					</g>
				</g>
				<g id="XMLID_28999_">
					<path id="XMLID_29001_" fill="#FFA8A7" d="M129.8,578.3c0,0-3.1,19-6.7,26.4c-3.5,7.4-5.4,11-10.1,16.5
						c-1.1,1.2-3.5,3.5-4.3,4.4c-0.7,0.8-0.8,1.9,0.2,3c2.1,2,11.2,2.5,16.3-1.3c5.1-3.8,9.8-11.9,12.7-15c1.2-1.2,2.3-2.4,3.2-3.6
						c1-1.2,0.7-2.4,0.8-3.7c0-0.6,0-2.5,0-2.5c0.7-3.2,2.6-8.2,3.6-11.3L129.8,578.3z"/>
					<g>
						<path fill="#263238" d="M143.8,616.9c0,0,0.1,1.5-0.2,2.3c-0.5,1.2-5.1,3.9-6.9,4.9c-1.8,1-3.7,2.3-5.2,6
							c-1.7,3.9-5.1,6.9-9.2,8.9c-4,2-10,3.5-17.3,2.4s-8.1-5.4-8.1-5.4s-0.5-4,1.3-4.8C100,630.6,143.8,616.9,143.8,616.9z"/>
						<path id="XMLID_29000_" fill="#455A64" d="M142.3,601.6c0.2,0.1,0.6,0.2,0.8,1.1c0.1,0.4-0.1,3.7,0.1,5.7
							c0.2,2.1,1.4,6.1,0.6,8.6c-3.7,4-9.8,5.2-12.5,9.4c-2.7,4.2-5.4,9.3-14.8,11.5c-9.4,2.3-16.8-0.6-18.6-3.2
							c-1.9-2.6-0.4-5.2,5.6-8.8c6.3-3.7,14.5-14.4,14.5-14.4c1.1-1.4,2.1-3.1,3.1-4.8c1-1.5,1.2-3.6,1.9-5.2
							c0.4-0.8,0.7-1.7,1.4-2.1c0.7-0.5,1.7-0.5,2.5-0.4c1.4,0,2.7,0.1,4,0.5c1.3,0.4,2.6,1.1,3.5,2.1c0.6,0.8,1,1.8,1.5,2.5
							c1,1,2.4,1.4,3.7,1c1.9-0.6,2.1-1.8,2.4-2.6C142,602.4,142.3,601.6,142.3,601.6z"/>
						<path fill="#FAFAFA" d="M122.6,635.4c0,0-0.1-6.7-7.4-10.1c-7.3-3.5-11.5-1-13.7,0.7c-2.5,2-6.2,6.1-3.8,8.8
							c2.6,3,6.5,4.3,13.8,4.2C118.9,638.8,122.6,635.4,122.6,635.4z"/>
						<g>
							<path fill="#FAFAFA" d="M131.7,612.7c-0.2,0-0.5-0.1-0.7-0.4c-0.8-1.1-6.2-5.1-11.2-3.6c-0.2-0.6,0.1-1.2,1.2-1.9
								c5.2-0.7,10.4,3.1,11.4,4.5c0.2,0.4,0.2,0.8-0.1,1.1C132,612.6,131.8,612.7,131.7,612.7z"/>
							<path fill="#FAFAFA" d="M117,612.7c0-0.7,0.8-1.7,1.3-1.8c5-0.2,9.8,3.3,10.7,4.5c0.2,0.4,0.2,0.8-0.1,1.1
								c-0.1,0.1-0.4,0.1-0.5,0.1c-0.2,0-0.5-0.1-0.7-0.4C127,615.4,121.9,611.6,117,612.7z"/>
							<path fill="#FAFAFA" d="M109.4,621.2c0.4-1,1.1-1.7,2.1-2.1c5.2-0.5,10.1,3.2,11.2,4.5c0.2,0.4,0.2,0.8-0.1,1.1
								c-0.1,0.1-0.4,0.1-0.5,0.1c-0.2,0-0.5-0.1-0.7-0.4C120.6,623.2,114.7,618.8,109.4,621.2z"/>
							<path fill="#FAFAFA" d="M125.4,620.7c-0.2,0-0.5-0.1-0.7-0.4c-0.8-1.1-6.1-5.1-11.1-3.6c0.1-0.7,0.7-1.4,1.7-1.9
								c5-0.2,9.8,3.3,10.7,4.5c0.2,0.4,0.2,0.8-0.1,1.1C125.6,620.7,125.5,620.7,125.4,620.7z"/>
						</g>
					</g>
				</g>
				<g>
					<path fill="#27DEBF" d="M171.7,470.1c-7.7,5.7-34.9,21.3-46,31.5c-3.2,3-4.3,6.8-3.5,15.2c1.1,11.4,10.1,50.6,10.1,50.6
						c1.2,2.3,3.5-2,3.5-2l43-54.5L171.7,470.1z"/>
					<path opacity="0.3" enable-background="new    " d="M171.7,470.1c-7.7,5.7-34.9,21.3-46,31.5c-3.2,3-4.3,6.8-3.5,15.2
						c1.1,11.4,10.1,50.6,10.1,50.6c1.2,2.3,3.5-2,3.5-2l43-54.5L171.7,470.1z"/>
					<path opacity="0.3" enable-background="new    " d="M134.2,555.4c10-8.3,42-59.1,42-59.1l0,0c-4.4-3.7-6.7-16.5-6.7-16.5
						c-1.8,5,0.1,12.4,1.4,15.1c-2.5,2.1-16.8,13.9-26.8,21.8c-2.5,2-5,4.4-5.8,8.9C136.4,536.4,134.1,553.2,134.2,555.4z"/>
				</g>
				<g id="XMLID_28998_">
					<path fill="#27DEBF" d="M171.7,470.1L171.7,470.1l55.4,12.3c-2.7,10.1-3.5,15.4-6.3,20.7s-6,11.1-20.4,18.2
						c-13.8,6.8-30.8,13.8-34.2,15.5c-2.5,1.2-3.8,6.3-4.9,13c-1.2,6.9-1.3,12.4-8.2,26.9c-6.7,14.3-8.1,17.4-8.1,17.4
						s-10.4,1.1-17.3-5c0,0,9.4-48.9,11.4-57.7c1.1-4.9,1.2-7.5,7.3-12.9c5.2-4.6,28.6-22.3,28.6-22.3S165.7,483.6,171.7,470.1z"/>
					<path opacity="0.3" enable-background="new    " d="M171.7,470.1L171.7,470.1l55.4,12.3c-2.7,10.1-3.5,15.4-6.3,20.7
						s-6,11.1-20.4,18.2c-13.8,6.8-30.8,13.8-34.2,15.5c-2.5,1.2-3.8,6.3-4.9,13c-1.2,6.9-1.3,12.4-8.2,26.9
						c-6.7,14.3-8.1,17.4-8.1,17.4s-10.4,1.1-17.3-5c0,0,9.4-48.9,11.4-57.7c1.1-4.9,1.2-7.5,7.3-12.9c5.2-4.6,28.6-22.3,28.6-22.3
						S165.7,483.6,171.7,470.1z"/>
				</g>
			</g>
			<g>
				<path fill="#FFA8A7" d="M108.1,378.2c1-0.1,1.9,0.1,2.7,0.6c1,0.5,1.9,1.2,2.9,1.8c1.4,1.1,2.7,2,4.3,2.9c1.3,0.8,2.6,1.7,4.2,2
					c0.5,0.1,1.5,0.1,1.1-0.7c-0.7-1.1-1.5-2-2.1-3.1c-0.6-1.1-0.8-2.5-0.4-3.6c0.1-0.4,0.4-0.7,0.7-0.8c0.5-0.2,0.7,0,1,0.4
					c0.3,0.4,0.6,0.6,1,1c0.7,0.6,1.4,1.2,2,1.8c3.9,3.6,8.8,6.8,10.5,12c0.2,0.7,1.4,4.2,1.4,9.9c0,5.7,0.4,25.7,0.4,25.7
					s15.8-13.3,22.7-19c3.3-2.7,8-6.2,13.1-6.7c3.6-0.4,5.7-0.4,5.7-0.4l-10.8,26.2c0,0-20.5,15.2-30.2,20.5
					c-8.8,4.8-13.1,1.3-14.2-1.2c-1.8-4.2-3.6-6.1-1.1-29c0.2-1.8,0.4-6.9,0.6-8.7c0.2-3.7-0.1-7.5-1.5-8.3
					c-2.6-1.4-5.2-3.1-7.5-5.1c-1.5-1.3-2.9-2.7-3.9-4.4c-0.5-0.7-1.3-1.7-1.3-2.6c-0.1-0.8,0.2-1.8,0-2.6c-0.2-0.6-0.6-1.1-0.7-1.7
					c-0.4-1.3-0.2-2.7-1-3.8c-0.5-0.6-1.2-1.2-1.1-1.9c0.1-0.6,0.7-1,1.3-1.1C107.7,378.2,107.9,378.2,108.1,378.2z"/>
				<path fill="#F28F8F" d="M124.3,388.2c0.5,3.1,2.6,6.9,4.2,8.2c0,0-2.5-1.4-3.6-3.6C123.7,390.5,123.8,389.3,124.3,388.2z"/>
				<path fill="#27DEBF" d="M180.4,401.4c-5.5,0.2-9.8,0.4-14.5,3.1c-4.8,2.7-25.7,20.4-25.7,20.4s-0.2-8.9-0.7-13.7
					c-0.4-3.2-1-4.3-1.9-4.2c0,0-1.8,2.7-7,3.2c-5.1,0.4-6.9-1.8-6.9-1.8s-1.5-0.4-2,1.8c-0.6,2.1-1.5,25-0.6,31.5
					c1,6.5,3.9,9.6,7.9,10.6c3.9,1,13.1-4.6,24.2-12c11.1-7.4,23-14.3,23-14.3L180.4,401.4z"/>
				<path opacity="0.7" fill="#FFFFFF" enable-background="new    " d="M180.4,401.4c-5.5,0.2-9.8,0.4-14.5,3.1
					c-4.8,2.7-25.7,20.4-25.7,20.4s-0.2-8.9-0.7-13.7c-0.4-3.2-1-4.3-1.9-4.2c0,0-1.8,2.7-7,3.2c-5.1,0.4-6.9-1.8-6.9-1.8
					s-1.5-0.4-2,1.8c-0.6,2.1-1.5,25-0.6,31.5c1,6.5,3.9,9.6,7.9,10.6c3.9,1,13.1-4.6,24.2-12c11.1-7.4,23-14.3,23-14.3L180.4,401.4
					z"/>
				<path opacity="0.1" enable-background="new    " d="M140.1,424.8c1,6.2-0.5,12.9-0.5,12.9s4-7.7,2.7-14.9L140.1,424.8z"/>
			</g>
			<g>
				<path id="XMLID_28996_" fill="#FAFAFA" d="M225.7,406.2c1,4.9,10.1,50.6-0.4,84.9c-18.8,2.3-51.8-6.4-56.7-18.8
					c0,0,3.3-11.8,4.8-17.5c-0.4-9.4,0-27.5,0.2-33.1c0.4-11.1,2.1-19.6,7.6-20.5c0,0,11.1-0.5,17.7-0.1c5.7,0.2,10.1,0.4,10.1,0.4
					L225.7,406.2z"/>
				<path fill="#F0F0F0" d="M198.1,479c1.2-2.7,23.5-16.4,23.5-16.4s-0.4-6.4-1.7-18.1s-1.7-25.7,2.5-32.9l4.3,0.1
					c2.4,14.2,7.3,50.7-1.4,79.2c-10,1.2-24-0.7-35.7-4.6C191.8,485,197.2,481.2,198.1,479z"/>
				<g>
					<path fill="#455A64" d="M211,390.5c0-2.4,4.5-9.4,6.5-15c3.5-9.4,3.7-17.7-4.8-21.4c0,0-5.4-9.2-18.7-9.6
						c-13.3-0.5-23.7,10.8-19.3,26L211,390.5z"/>
					<g id="XMLID_28983_">
						<g id="XMLID_28990_">
							<path id="XMLID_28992_" fill="#FFA8A7" d="M207.6,376.1c1.8,0,2.4-2.5,3.6-3.8c1.2-1.3,5.4-2.9,8,1c2.5,3.6,0.1,8.7-2.6,10.7
								c-3.5,2.5-5.7,0.1-5.7,0.1l0.4,18.9c0,0-0.6,4.2-8.3,6.7c-8.9,2.9-16.2-1.9-10.8-7.7l-0.2-5c-2.5,0.6-6,0.8-8.6,0.5
								c-3-0.5-5.4-2.7-6.9-7.3c-3-8.9-2.1-21,1-31.8c3,2.4,16.5,6.7,28.8,2.4C205.6,368.1,206,376.1,207.6,376.1z"/>
							<circle fill="#263238" cx="213.6" cy="381.9" r="1.1"/>
							<path id="XMLID_28991_" fill="#F28F8F" d="M191.8,396.8c0,0,7.5-2.1,10.4-4.3c2.1-1.5,4-3.9,4.5-5.2c0,0-1.1,4-3.1,6.3
								c-3.6,4-11.7,6-11.7,6L191.8,396.8z"/>
						</g>
						<g id="XMLID_28984_">
							<path id="XMLID_28989_" fill="#263238" d="M192.4,375.9c0,1.1,0.8,1.9,1.8,1.9c1.1,0,1.9-0.8,1.9-1.9c0-1.1-0.8-1.9-1.8-1.9
								C193.2,374,192.4,374.9,192.4,375.9z"/>
							<path id="XMLID_28987_" fill="#263238" d="M194.4,369.6l4,2.1c0.6-1.2,0.1-2.5-1-3.1C196.3,368,195,368.4,194.4,369.6z"/>
							<path id="XMLID_28988_" fill="#F28F8F" d="M193,385.7l-6.4,2c0.6,1.8,2.6,2.7,4.3,2.3C192.8,389.4,193.6,387.5,193,385.7z"/>
							<path id="XMLID_28986_" fill="#263238" d="M177.3,369.5l4.4-1.2c-0.2-1.2-1.5-2-2.7-1.7C177.8,367,177,368.3,177.3,369.5z"/>
							<path id="XMLID_28985_" fill="#263238" d="M178.5,374.5c0,1.1,0.8,1.9,1.8,1.9c1.1,0,1.9-0.8,1.9-1.9s-0.8-1.9-1.8-1.9
								C179.3,372.6,178.5,373.4,178.5,374.5z"/>
						</g>
					</g>
					<path fill="#37474F" d="M176.3,358.2c-4.2-3-6.4-6.9-5.4-12.3c1.5,1.7,6.1,1.9,10,0c4.2-2,10.8-4.8,20.2-3
						c7.3,1.4,11.5,6.9,11.5,11c-1.4,2.9-3.3,4.4-6.8,6.5c0,0-7,5.7-17.5,5c-6.8-0.5-10.4-3.7-10.4-3.7s3.8,0.4,5.6-0.8
						C183.7,361.1,179.4,360.3,176.3,358.2z"/>
					<g id="XMLID_28981_">
						<polygon id="XMLID_28982_" fill="#F28F8F" points="186.3,383.3 180.7,380.7 188,370.7 						"/>
					</g>
				</g>
			</g>
			<g id="Laptop_1_">
				<path opacity="0.15" enable-background="new    " d="M124.1,503.7c0.5-0.7,1.1-1.4,1.7-2c6.7-6.1,19-14.2,29.6-21l48.1,27.7
					c0.2,0.1,0.2,0.6,0,0.7l-34.9,20.1L124.1,503.7z"/>
				<g id="XMLID_28964_">
					<g>
						<g id="XMLID_28980_">
							<path fill="#37474F" d="M109.4,489.6v0.8c0,1.2,0.6,2.1,1.5,2.7l55.8,32.3c0.5,0.2,1.1,0.5,1.5,0.5c0.6,0,1.1-0.1,1.5-0.5
								l30.5-17.5c1-0.6,1.5-1.7,1.5-2.7v-1.1l0,0l0,0c0,0.1-0.1,0.2-0.2,0.4L168,523.8L109.4,489.6z"/>
						</g>
						<g id="XMLID_28979_">
							<path fill="#263238" d="M168.5,523.7v2.1c-0.6,0-1.1-0.1-1.5-0.5L111.2,493c-1-0.6-1.5-1.7-1.5-2.7v-0.8L168.5,523.7z"/>
						</g>
						<g id="XMLID_28978_">
							<path fill="#455A64" d="M109.4,489.6l33.1-19.2c0.6-0.4,1.3-0.4,1.9,0l57.5,33.2c0.2,0.1,0.2,0.6,0,0.7l-33.5,19.3
								L109.4,489.6z"/>
						</g>
						<g>
							<g id="XMLID_28972_">
								<polygon fill="#37474F" points="168.8,521 186.7,510.6 134.4,480.5 116.4,490.7 								"/>
							</g>
							<g id="XMLID_28971_">
								<polygon fill="#263238" points="116.4,490.7 117.2,491.1 134.4,481.2 186,511 186.7,510.6 134.4,480.5 								"/>
							</g>
						</g>
						<g>
							<g id="XMLID_28970_">
								<polygon fill="#263238" points="177.6,492.3 177.3,492.4 168.5,497.5 153,488.4 152.6,488.3 161.7,483.1 								"/>
							</g>
							<g id="XMLID_28969_">
								<polygon fill="#37474F" points="177.3,492.4 168.5,497.5 153,488.4 161.7,483.4 								"/>
							</g>
						</g>
					</g>
					<g id="Arm_5_">
						<path fill="#FFA8A7" d="M160.6,498.5c2.5-2.5,6.2-6,9.2-6.9c0.4-0.1,1-0.4,2.1-0.7c-1.1-0.2-2.1-0.2-3.1-0.6
							c-1.1-0.4-2-1-2.6-1.8c-0.2-0.4-0.5-0.8-0.1-1.2c0.1-0.1,0.2-0.1,0.5-0.1c2.3-0.1,4-0.5,6.2-0.6c1-0.1,1.9-0.2,2.9,0
							c0.8,0.2,1.7,0.5,2.5,0.7c3.8,1.3,7.3,2.5,12.6,1.2l9.6-5.1c0,0,2-0.5,5.1,4.6c3.1,5.1,1.3,8,1.3,8l-10.8,3.8l0,0
							c0,0-0.1,0-0.1,0.1c-1.2,0.5-2.3,1.4-5.1,2.3c-3.3,1.1-7.7-0.2-10.7-0.4c-3-0.1-8,1.2-10.6,2.3c-2.7,1.1-6-3.1-7.4-2.6
							C160.5,502.1,158.1,501,160.6,498.5z"/>
						<path fill="#F28F8F" d="M173.2,489.3c2-0.2,4.2,0.7,4.2,0.7s-2.5,0-5.5,1c-1.1-0.2-2.1-0.2-3.1-0.6c-1-0.4-1.8-0.8-2.4-1.4
							C168.1,489.9,171.3,489.5,173.2,489.3z"/>
						<g>
							<path fill="#27DEBF" d="M225.7,406.2c-2.7,1.1-6.3,12.5-4.2,23.6l5.1,34.5c0,0-6.3,3.7-15.1,9.2c-6.1,3.8-11.3,7.3-11.3,10
								c4,1.4,7.6,8.8,6.4,12.6c2.7,3.2,28-10.7,36.7-16.8c4-2.7,6.2-3.9,4.5-16.5c-1.8-13.9-3-29.4-5.6-39.8
								C239.5,412.3,236.3,408.1,225.7,406.2z"/>
							<path opacity="0.7" fill="#FFFFFF" enable-background="new    " d="M225.7,406.2c-2.7,1.1-6.3,12.5-4.2,23.6l5.1,34.5
								c0,0-6.3,3.7-15.1,9.2c-6.1,3.8-11.3,7.3-11.3,10c4,1.4,7.6,8.8,6.4,12.6c2.7,3.2,28-10.7,36.7-16.8c4-2.7,6.2-3.9,4.5-16.5
								c-1.8-13.9-3-29.4-5.6-39.8C239.5,412.3,236.3,408.1,225.7,406.2z"/>
						</g>
					</g>
					<g>
						<g id="XMLID_28968_">
							<path fill="#37474F" d="M167.6,524.2c-1.1,0.4-2.3,0.4-3.2-0.2l-55.6-32.1c-1-0.6-1.7-1.5-1.8-2.6l-6.1-36.3
								c0-0.2,0-0.4,0-0.6c0-1.1,0.4-2,1.1-2.7l57.7,33.3c0.7,0.5,1.2,1.2,1.3,1.9L167.6,524.2z"/>
						</g>
						<g id="XMLID_28967_">
							<path fill="#455A64" d="M168.5,523.7l-0.4,0.2c-0.1,0.1-0.4,0.2-0.5,0.2l-6.5-39.3c-0.1-0.8-0.6-1.5-1.3-1.9L102,449.6
								c0.2-0.2,0.5-0.5,0.7-0.6l57.9,33.5c0.7,0.5,1.2,1.2,1.3,1.9L168.5,523.7z"/>
						</g>
						<g id="XMLID_28966_">
							<path fill="#263238" d="M160.5,483.7l1-0.5c0.2,0.4,0.5,0.7,0.5,1.2l6.5,39.4l-0.4,0.2c-0.1,0.1-0.4,0.2-0.5,0.2l-6.5-39.3
								C161,484.4,160.7,484,160.5,483.7z"/>
						</g>
						<g id="XMLID_28965_">
							<path fill="#27DEBF" d="M136.3,490.7c-0.4-2.4-3-5.7-5.6-7.3c-2.7-1.5-4.5-0.8-4.2,1.5c0.4,2.4,3,5.7,5.6,7.3
								C134.9,493.8,136.7,493.1,136.3,490.7z"/>
						</g>
					</g>
				</g>
			</g>
		</g>
	</g>
</g>
<g>
	<g>
		<g>
			<path fill="#27DEBF" d="M125.9,190.4c0-3.1,1.1-5.4,2.9-6.4c1.8-1.1,12.1-7,13.9-8.1c1.8-1.1,4.3-0.8,7,0.7l194.4,112.3v64.3
				l-13.9,8.1L135.8,248.9c-5.5-3.2-9.9-10.8-9.9-17.1V190.4z"/>
			<path opacity="0.15" enable-background="new    " d="M125.9,190.4c0-3.1,1.1-5.4,2.9-6.4c1.8-1.1,12.1-7,13.9-8.1
				c1.8-1.1,4.3-0.8,7,0.7l194.4,112.3v64.3l-13.9,8.1L135.8,248.9c-5.5-3.2-9.9-10.8-9.9-17.1V190.4z"/>
			<path fill="#27DEBF" d="M135.8,184.7c-5.5-3.2-9.9-0.6-9.9,5.7v41.4c0,6.3,4.4,13.9,9.9,17.1l194.4,112.3v-64.3L135.8,184.7z"/>
			<path fill="#FAFAFA" d="M137.8,243.7c-3.7-2.1-6.7-7.3-6.7-11.5v-38.3c0-3,2.1-4.3,4.8-2.7l190.4,110v51.6L137.8,243.7z"/>
		</g>
		<g id="World">
			<g id="Check_1_">
				<g id="Circle_1_">
					<path id="XMLID_306_" fill="#37474F" d="M338.7,278.1L338.7,278.1L338.7,278.1C338.8,278.1,338.8,278.1,338.7,278.1l23.9-14.2
						l0,0l0.1-0.1l0,0c10.5-6.3,24.5-5.4,39.5,4.5c30.2,19.8,53.3,67.6,51.4,107c-1,19.6-7.9,33.3-18.2,39.9l0,0h-0.1l0,0
						l-23.8,14.2l0,0l-0.1,0.1l0,0c-10.5,6.3-24.5,5.4-39.5-4.5c-30.2-19.8-53.3-67.6-51.4-107C321.4,298.4,328.3,284.5,338.7,278.1
						z"/>
					<path id="XMLID_302_" fill="#263238" d="M412.4,428.8l23.1-13.7l0,0l0.1-0.1c10.5-6.4,17.4-20.2,18.2-39.8
						c0.8-17.5-3.3-36.8-10.8-54.4l-0.1-0.4L419.2,335c7.5,17.6,11.7,36.9,10.8,54.4C429.2,408.7,422.5,422.3,412.4,428.8z"/>
					<path id="XMLID_297_" fill="#455A64" d="M371.9,424.9c-30.2-19.8-53.3-67.6-51.4-107c1.8-39.3,27.9-55.2,58.1-35.5
						c30.2,19.8,53.3,67.6,51.4,107C428.2,428.8,402.3,444.7,371.9,424.9z"/>
				</g>
			</g>
			<g>
				<g>
					<path fill="#27DEBF" d="M372,409.4c-22.6-13.1-41-48.5-41-78.7c0-16.4,5.5-29,15-34.5c8-4.5,18-3.8,28.2,2.1
						c22.6,13.1,41,48.5,41,78.7c0,16.4-5.5,29-15,34.5c-3.5,2-7.3,3-11.3,3C383.7,414.6,377.9,412.9,372,409.4z M348.3,300.3
						c-8.1,4.6-12.7,15.7-12.7,30.5c0,28.8,17.4,62.3,38.7,74.6c8.8,5.1,17.3,5.8,23.7,2.1c8.1-4.6,12.7-15.7,12.7-30.5
						c0-28.8-17.4-62.3-38.7-74.6c-5.1-3-10.1-4.5-14.6-4.5C354,298,351.1,298.7,348.3,300.3z"/>
				</g>
				<g>
					<g>
						<path fill="#27DEBF" d="M389.1,339c5,0,9.6-1.5,13.6-4.6l-2.1-2.7c-6.9,5.5-16.3,5.2-26.4-0.7c-10.5-6.1-20.4-17.4-27.7-31.8
							l-3.1,1.5c7.7,15,18,26.8,29,33.2C378.2,337.3,383.8,339,389.1,339z"/>
					</g>
					<g>
						<path fill="#27DEBF" d="M400,408.8l3.1-1.5c-7.7-15-18-26.8-29-33.2c-11.4-6.7-22.1-6.8-30.2-0.4l2.1,2.7
							c6.9-5.5,16.3-5.2,26.4,0.7C382.9,383.1,392.6,394.4,400,408.8z"/>
					</g>
				</g>
				<g>
					<path fill="#27DEBF" d="M372.4,409c-11.9-6.9-21.2-36.3-21.2-66.8c0-22.1,5-38.8,13-43.5c3.1-1.8,6.5-1.7,9.9,0.2
						c11.9,6.9,21.2,36.2,21.2,66.8c0,22.1-5,38.8-13,43.5c-1.4,0.8-3,1.3-4.6,1.3C375.8,410.5,374.1,410,372.4,409z M365.8,301.7
						c-5.6,3.2-11.3,17-11.3,40.5c0,28.5,8.9,57.7,19.5,63.8c2.3,1.3,4.4,1.4,6.4,0.2c5.6-3.2,11.3-17,11.3-40.5
						c0-28.5-8.9-57.7-19.5-63.8c-1.2-0.7-2.4-1.1-3.6-1.1C367.7,300.9,366.8,301.2,365.8,301.7z"/>
				</g>
				<g>
					<rect x="371.4" y="300.5" fill="#27DEBF" width="3.5" height="107"/>
				</g>
				<g>
					
						<rect x="371.5" y="308" transform="matrix(0.5029 -0.8643 0.8643 0.5029 -120.4577 498.5526)" fill="#27DEBF" width="3.5" height="92.1"/>
				</g>
			</g>
		</g>
	</g>
	<g enable-background="new    ">
		<path fill="#455A64" d="M146.4,210.3l5.2,2.9l-3.8,6.9c1.1-0.3,2.1-0.5,3-0.4s1.8,0.4,2.7,0.9c1.4,0.8,2.3,1.8,2.6,3.2
			c0.3,1.3,0,2.9-1,4.6l-4.8,8.6l-5.2-2.9l4.2-7.5c0.5-0.9,0.7-1.5,0.5-2.1c-0.1-0.5-0.5-1-1-1.3c-0.6-0.4-1.3-0.4-1.9-0.1
			c-0.6,0.3-1.3,1-2,2.2l-3.6,6.5l-5.2-2.9L146.4,210.3z"/>
		<path fill="#455A64" d="M170.2,223.5l-2.9,5.2l2.9,1.6l-2.1,3.8l-2.9-1.6l-2.7,4.8c-0.3,0.6-0.5,1-0.5,1.2c0,0.4,0.2,0.7,0.7,0.9
			c0.4,0.2,1,0.4,1.8,0.6l-1.6,3.8c-1.4-0.4-2.7-1-3.8-1.6c-1.3-0.7-2.2-1.4-2.6-2.1c-0.4-0.7-0.6-1.4-0.5-2.3
			c0.1-0.8,0.5-2,1.4-3.5l2.7-4.8l-1.9-1.1l2.1-3.8l1.9,1.1l1.4-2.5L170.2,223.5z"/>
		<path fill="#455A64" d="M181.8,230l-2.9,5.2l2.9,1.6l-2.1,3.8l-2.9-1.6l-2.7,4.8c-0.3,0.6-0.5,1-0.5,1.2c0,0.4,0.2,0.7,0.7,0.9
			c0.4,0.2,1,0.4,1.8,0.6l-1.6,3.8c-1.4-0.4-2.7-1-3.8-1.6c-1.3-0.7-2.2-1.4-2.6-2.1c-0.4-0.7-0.6-1.4-0.5-2.3
			c0.1-0.8,0.5-2,1.4-3.5l2.7-4.8l-1.9-1.1l2.1-3.8l1.9,1.1l1.4-2.5L181.8,230z"/>
		<path fill="#455A64" d="M173.9,256.9l10.4-18.8l4.9,2.7l-1.1,2c1.1-0.5,2.1-0.7,2.8-0.7c1,0,1.9,0.3,2.9,0.8
			c1.8,1,2.8,2.5,3.1,4.4c0.2,1.9-0.2,3.9-1.4,6c-1.3,2.3-2.8,3.7-4.5,4.3c-1.7,0.6-3.4,0.4-5.1-0.5c-0.8-0.4-1.5-1-2-1.6
			c-0.5-0.6-0.9-1.4-1.1-2.2l-3.6,6.5L173.9,256.9z M185.7,247.9c-0.6,1.1-0.8,2-0.7,2.8c0.2,0.8,0.6,1.4,1.3,1.7
			c0.6,0.3,1.3,0.4,1.9,0.1c0.7-0.3,1.4-1,2-2.2c0.6-1.1,0.8-2,0.7-2.8s-0.5-1.3-1.1-1.6c-0.7-0.4-1.4-0.4-2.1-0.1
			C187,246.1,186.4,246.7,185.7,247.9z"/>
		<path fill="#455A64" d="M195.4,257.2l5.4,2.4c-0.1,0.7-0.1,1.3,0.2,1.8c0.2,0.5,0.7,0.9,1.3,1.3c0.7,0.4,1.3,0.5,1.9,0.5
			c0.4-0.1,0.7-0.2,0.9-0.6c0.2-0.4,0.2-0.8-0.1-1.2c-0.2-0.3-0.8-0.9-1.9-1.8c-1.6-1.3-2.7-2.3-3.3-3c-0.6-0.7-0.9-1.4-1-2.4
			c-0.1-0.9,0-1.8,0.5-2.6c0.5-0.9,1.2-1.5,2.1-1.9c0.9-0.4,1.9-0.4,3-0.3c1.1,0.2,2.4,0.7,3.9,1.6c1.6,0.9,2.7,1.7,3.4,2.4
			c0.6,0.7,1.1,1.4,1.3,2.2c0.2,0.8,0.3,1.8,0.1,2.8l-5.2-2.3c0.1-0.5,0.1-0.9-0.1-1.3c-0.3-0.5-0.7-0.9-1.3-1.2
			c-0.6-0.3-1.1-0.5-1.5-0.4s-0.7,0.2-0.8,0.5c-0.2,0.3-0.2,0.7,0.1,1c0.2,0.4,0.9,0.9,2,1.7c1.6,1.2,2.8,2.2,3.4,3s1,1.7,1.1,2.6
			s-0.1,1.7-0.5,2.5s-1.1,1.4-2,1.9c-0.9,0.5-2,0.7-3.2,0.5c-1.3-0.1-2.8-0.7-4.5-1.7c-2.5-1.4-4.1-2.7-4.7-4
			C195.1,260,195,258.7,195.4,257.2z"/>
		<path fill="#455A64" d="M213.1,265.2l5.6,3.1l-2.9,5.2l-5.6-3.1L213.1,265.2z M217.8,256.8l5.6,3.1l-2.9,5.2l-5.6-3.1L217.8,256.8
			z"/>
		<path fill="#455A64" d="M232.7,257.9l2.7,1.5l-15.5,16.8l-2.6-1.5L232.7,257.9z"/>
		<path fill="#455A64" d="M240,262l2.7,1.5l-15.5,16.8l-2.6-1.5L240,262z"/>
		<path fill="#455A64" d="M239.6,268.9l5,2.8l-2.6,9.8l7.5-7l4.7,2.6l-1.9,10.2l7-7.4l5,2.8l-12.6,10.8l-4.6-2.6l1.8-9.7l-7.2,6.7
			l-4.7-2.6L239.6,268.9z"/>
		<path fill="#455A64" d="M264.3,282.7l5,2.8l-2.6,9.8l7.5-7l4.7,2.6l-1.9,10.2l7-7.4l5,2.8l-12.6,10.8l-4.6-2.6l1.8-9.7l-7.2,6.7
			l-4.7-2.6L264.3,282.7z"/>
		<path fill="#455A64" d="M289,296.5l5,2.8l-2.6,9.8l7.5-7l4.7,2.6l-1.9,10.2l7-7.4l5,2.8l-12.6,10.8l-4.6-2.6l1.8-9.7l-7.2,6.7
			l-4.7-2.6L289,296.5z"/>
		<path fill="#455A64" d="M308.4,318.2l5.6,3.1l-2.9,5.2l-5.6-3.1L308.4,318.2z"/>
	</g>
</g>
</svg>
